<svg xmlns="http://www.w3.org/2000/svg" xmlns:xlink="http://www.w3.org/1999/xlink" viewBox="0 0 336.21 235.3"><defs><style>.cls-1{fill:url(#Névtelen_színátmenet_404);}.cls-2{fill:none;}.cls-177,.cls-223,.cls-231,.cls-3{fill:#fff;}.cls-4{isolation:isolate;}.cls-5{fill:url(#Névtelen_színátmenet_395);}.cls-6{fill:url(#linear-gradient);}.cls-7{clip-path:url(#clip-path);}.cls-168,.cls-170,.cls-171,.cls-174,.cls-8{opacity:0.2;}.cls-9{fill:url(#Névtelen_színátmenet_404-3);}.cls-10{fill:url(#Névtelen_színátmenet_404-4);}.cls-11{fill:url(#Névtelen_színátmenet_32);}.cls-12{fill:url(#Névtelen_színátmenet_32-2);}.cls-13{fill:url(#Névtelen_színátmenet_32-3);}.cls-14{fill:url(#Névtelen_színátmenet_32-4);}.cls-15{fill:url(#Névtelen_színátmenet_32-5);}.cls-16{fill:url(#Névtelen_színátmenet_32-6);}.cls-17{fill:url(#Névtelen_színátmenet_32-7);}.cls-18{fill:url(#Névtelen_színátmenet_32-8);}.cls-19{fill:url(#Névtelen_színátmenet_32-9);}.cls-20{fill:url(#Névtelen_színátmenet_32-10);}.cls-21{fill:url(#Névtelen_színátmenet_32-11);}.cls-22{fill:url(#Névtelen_színátmenet_32-12);}.cls-23{fill:url(#Névtelen_színátmenet_32-13);}.cls-24{fill:url(#Névtelen_színátmenet_32-14);}.cls-25{fill:url(#Névtelen_színátmenet_32-15);}.cls-26{fill:url(#Névtelen_színátmenet_32-16);}.cls-27{fill:url(#Névtelen_színátmenet_32-17);}.cls-28{fill:url(#Névtelen_színátmenet_32-18);}.cls-29{fill:url(#Névtelen_színátmenet_32-19);}.cls-30{fill:url(#Névtelen_színátmenet_32-20);}.cls-31{fill:url(#Névtelen_színátmenet_32-21);}.cls-32{fill:url(#Névtelen_színátmenet_32-22);}.cls-33{fill:url(#Névtelen_színátmenet_32-23);}.cls-34{fill:url(#Névtelen_színátmenet_32-24);}.cls-35{fill:url(#Névtelen_színátmenet_32-25);}.cls-36{fill:url(#Névtelen_színátmenet_32-26);}.cls-37{fill:url(#Névtelen_színátmenet_32-27);}.cls-38{fill:url(#Névtelen_színátmenet_32-28);}.cls-39{fill:url(#Névtelen_színátmenet_32-29);}.cls-40{fill:url(#Névtelen_színátmenet_32-30);}.cls-41{fill:url(#Névtelen_színátmenet_32-31);}.cls-42{fill:url(#Névtelen_színátmenet_32-32);}.cls-43{fill:url(#Névtelen_színátmenet_32-33);}.cls-44{fill:url(#Névtelen_színátmenet_32-34);}.cls-45{fill:url(#Névtelen_színátmenet_32-35);}.cls-46{fill:url(#Névtelen_színátmenet_32-36);}.cls-47{fill:url(#Névtelen_színátmenet_32-37);}.cls-48{fill:url(#Névtelen_színátmenet_32-38);}.cls-49{fill:url(#Névtelen_színátmenet_32-39);}.cls-50{fill:url(#Névtelen_színátmenet_32-40);}.cls-51{fill:url(#Névtelen_színátmenet_32-41);}.cls-52{fill:url(#Névtelen_színátmenet_32-42);}.cls-53{fill:url(#Névtelen_színátmenet_32-43);}.cls-54{fill:url(#Névtelen_színátmenet_32-44);}.cls-55{fill:url(#Névtelen_színátmenet_32-45);}.cls-56{fill:url(#Névtelen_színátmenet_32-46);}.cls-57{fill:url(#Névtelen_színátmenet_32-47);}.cls-58{fill:url(#Névtelen_színátmenet_32-48);}.cls-59{fill:url(#Névtelen_színátmenet_32-49);}.cls-60{fill:url(#Névtelen_színátmenet_32-50);}.cls-61{fill:url(#Névtelen_színátmenet_32-51);}.cls-62{fill:url(#Névtelen_színátmenet_32-52);}.cls-63{fill:url(#Névtelen_színátmenet_32-53);}.cls-64{fill:url(#Névtelen_színátmenet_32-54);}.cls-65{fill:url(#Névtelen_színátmenet_32-55);}.cls-66{fill:url(#Névtelen_színátmenet_32-56);}.cls-67{fill:url(#Névtelen_színátmenet_32-57);}.cls-68{fill:url(#Névtelen_színátmenet_32-58);}.cls-69{fill:url(#Névtelen_színátmenet_32-59);}.cls-70{fill:url(#Névtelen_színátmenet_32-60);}.cls-71{fill:url(#Névtelen_színátmenet_32-61);}.cls-72{fill:url(#Névtelen_színátmenet_32-62);}.cls-73{fill:url(#Névtelen_színátmenet_32-63);}.cls-74{fill:url(#Névtelen_színátmenet_32-64);}.cls-75{fill:url(#Névtelen_színátmenet_32-65);}.cls-76{fill:url(#Névtelen_színátmenet_32-66);}.cls-77{fill:url(#Névtelen_színátmenet_32-67);}.cls-78{fill:url(#Névtelen_színátmenet_32-68);}.cls-79{fill:url(#Névtelen_színátmenet_32-69);}.cls-80{fill:url(#Névtelen_színátmenet_32-70);}.cls-81{fill:url(#Névtelen_színátmenet_32-71);}.cls-82{fill:url(#Névtelen_színátmenet_32-72);}.cls-83{fill:url(#Névtelen_színátmenet_32-73);}.cls-84{fill:url(#Névtelen_színátmenet_32-74);}.cls-85{fill:url(#Névtelen_színátmenet_32-75);}.cls-86{fill:url(#Névtelen_színátmenet_32-76);}.cls-87{fill:url(#Névtelen_színátmenet_32-77);}.cls-88{fill:url(#Névtelen_színátmenet_32-78);}.cls-89{fill:url(#Névtelen_színátmenet_32-79);}.cls-90{fill:url(#Névtelen_színátmenet_32-80);}.cls-91{fill:url(#Névtelen_színátmenet_32-81);}.cls-92{fill:url(#Névtelen_színátmenet_32-82);}.cls-93{fill:url(#Névtelen_színátmenet_32-83);}.cls-94{fill:url(#Névtelen_színátmenet_32-84);}.cls-95{fill:url(#Névtelen_színátmenet_32-85);}.cls-96{fill:url(#Névtelen_színátmenet_32-86);}.cls-97{fill:url(#Névtelen_színátmenet_32-87);}.cls-98{fill:url(#Névtelen_színátmenet_32-88);}.cls-99{fill:url(#Névtelen_színátmenet_32-89);}.cls-100{fill:url(#Névtelen_színátmenet_32-90);}.cls-101{fill:url(#Névtelen_színátmenet_32-91);}.cls-102{fill:url(#Névtelen_színátmenet_32-92);}.cls-103{fill:url(#Névtelen_színátmenet_32-93);}.cls-104{fill:url(#Névtelen_színátmenet_32-94);}.cls-105{fill:url(#Névtelen_színátmenet_32-95);}.cls-106{fill:url(#Névtelen_színátmenet_32-96);}.cls-107{fill:url(#Névtelen_színátmenet_32-97);}.cls-108{fill:url(#Névtelen_színátmenet_32-98);}.cls-109{fill:url(#Névtelen_színátmenet_32-99);}.cls-110{fill:url(#Névtelen_színátmenet_32-100);}.cls-111{fill:url(#Névtelen_színátmenet_32-101);}.cls-112{fill:url(#Névtelen_színátmenet_32-102);}.cls-113{fill:url(#Névtelen_színátmenet_32-103);}.cls-114{fill:url(#Névtelen_színátmenet_32-104);}.cls-115{fill:url(#Névtelen_színátmenet_32-105);}.cls-116{fill:url(#Névtelen_színátmenet_32-106);}.cls-117{fill:url(#Névtelen_színátmenet_32-107);}.cls-118{fill:url(#Névtelen_színátmenet_32-108);}.cls-119{fill:url(#Névtelen_színátmenet_32-109);}.cls-120{fill:url(#Névtelen_színátmenet_32-110);}.cls-121{fill:url(#Névtelen_színátmenet_32-111);}.cls-122{fill:url(#Névtelen_színátmenet_32-112);}.cls-123{fill:url(#Névtelen_színátmenet_32-113);}.cls-124{fill:url(#Névtelen_színátmenet_32-114);}.cls-125{fill:url(#Névtelen_színátmenet_32-115);}.cls-126{fill:url(#Névtelen_színátmenet_32-116);}.cls-127{fill:url(#Névtelen_színátmenet_32-117);}.cls-128{fill:url(#Névtelen_színátmenet_32-118);}.cls-129{fill:url(#Névtelen_színátmenet_32-119);}.cls-130{fill:url(#Névtelen_színátmenet_32-120);}.cls-131{fill:url(#Névtelen_színátmenet_32-121);}.cls-132{fill:url(#Névtelen_színátmenet_32-122);}.cls-133{fill:url(#Névtelen_színátmenet_32-123);}.cls-134{fill:url(#Névtelen_színátmenet_32-124);}.cls-135{fill:url(#Névtelen_színátmenet_32-125);}.cls-136{fill:url(#Névtelen_színátmenet_32-126);}.cls-137{fill:url(#Névtelen_színátmenet_32-127);}.cls-138{fill:url(#Névtelen_színátmenet_32-128);}.cls-139{fill:url(#Névtelen_színátmenet_32-129);}.cls-140{fill:url(#Névtelen_színátmenet_32-130);}.cls-141{fill:url(#Névtelen_színátmenet_32-131);}.cls-142{fill:url(#Névtelen_színátmenet_32-132);}.cls-143{fill:url(#Névtelen_színátmenet_32-133);}.cls-144{fill:url(#Névtelen_színátmenet_32-134);}.cls-145{fill:url(#Névtelen_színátmenet_32-135);}.cls-146{fill:url(#Névtelen_színátmenet_32-136);}.cls-147{fill:url(#Névtelen_színátmenet_32-137);}.cls-148{fill:url(#Névtelen_színátmenet_32-138);}.cls-149{fill:url(#Névtelen_színátmenet_32-139);}.cls-150{fill:url(#Névtelen_színátmenet_32-140);}.cls-151{fill:url(#Névtelen_színátmenet_32-141);}.cls-152{fill:url(#Névtelen_színátmenet_32-142);}.cls-153{fill:url(#Névtelen_színátmenet_32-143);}.cls-154{fill:url(#Névtelen_színátmenet_32-144);}.cls-155{fill:url(#Névtelen_színátmenet_32-145);}.cls-156{fill:url(#Névtelen_színátmenet_32-146);}.cls-157{fill:url(#Névtelen_színátmenet_32-147);}.cls-158{fill:url(#Névtelen_színátmenet_32-148);}.cls-159,.cls-177{opacity:0.7;}.cls-160,.cls-162,.cls-163,.cls-164,.cls-169,.cls-172,.cls-175,.cls-190,.cls-192,.cls-194,.cls-196,.cls-198,.cls-200,.cls-202,.cls-204,.cls-206,.cls-208,.cls-210,.cls-212,.cls-214,.cls-216,.cls-219,.cls-230,.cls-231,.cls-239{opacity:0.6;}.cls-160{fill:url(#Névtelen_színátmenet_26);}.cls-161,.cls-166,.cls-167,.cls-173{opacity:0.3;}.cls-161{fill:url(#Névtelen_színátmenet_26-2);}.cls-162{fill:url(#Névtelen_színátmenet_31);}.cls-163{fill:url(#Névtelen_színátmenet_26-3);}.cls-164{fill:url(#Névtelen_színátmenet_31-2);}.cls-165,.cls-188,.cls-191,.cls-193,.cls-195,.cls-197,.cls-199,.cls-201,.cls-203,.cls-205,.cls-207,.cls-209,.cls-211,.cls-213,.cls-215,.cls-229{opacity:0.8;}.cls-165{fill:url(#Névtelen_színátmenet_26-4);}.cls-166{fill:url(#Névtelen_színátmenet_26-5);}.cls-167{fill:url(#Névtelen_színátmenet_26-6);}.cls-168{fill:url(#Névtelen_színátmenet_26-7);}.cls-169{fill:url(#Névtelen_színátmenet_26-8);}.cls-170{fill:url(#Névtelen_színátmenet_26-9);}.cls-171{fill:url(#Névtelen_színátmenet_26-10);}.cls-172{fill:url(#Névtelen_színátmenet_31-3);}.cls-173{fill:url(#Névtelen_színátmenet_26-11);}.cls-174{fill:url(#Névtelen_színátmenet_26-12);}.cls-175{fill:url(#Névtelen_színátmenet_26-13);}.cls-176{fill:#bdbcbc;}.cls-178,.cls-187{fill:#757575;}.cls-178,.cls-225{opacity:0.5;}.cls-179,.cls-225{mix-blend-mode:multiply;}.cls-180{opacity:0.15;}.cls-181{fill:#b6b6b6;}.cls-182{fill:#858585;}.cls-183{fill:#2a2a2a;}.cls-184{fill:#8a8a8a;}.cls-185{fill:#4e4e4e;}.cls-186{fill:#686868;}.cls-188{fill:url(#Új_mintázatos_színtár_1);}.cls-189{fill:#9f897c;}.cls-190{fill:url(#Névtelen_színátmenet_157);}.cls-191{fill:url(#Új_mintázatos_színtár_1-3);}.cls-192{fill:url(#Névtelen_színátmenet_157-2);}.cls-193{fill:url(#Új_mintázatos_színtár_1-5);}.cls-194{fill:url(#Névtelen_színátmenet_157-3);}.cls-195{fill:url(#Új_mintázatos_színtár_1-7);}.cls-196{fill:url(#Névtelen_színátmenet_157-4);}.cls-197{fill:url(#Új_mintázatos_színtár_1-9);}.cls-198{fill:url(#Névtelen_színátmenet_157-5);}.cls-199{fill:url(#Új_mintázatos_színtár_1-11);}.cls-200{fill:url(#Névtelen_színátmenet_157-6);}.cls-201{fill:url(#Új_mintázatos_színtár_1-13);}.cls-202{fill:url(#Névtelen_színátmenet_157-7);}.cls-203{fill:url(#Új_mintázatos_színtár_1-15);}.cls-204{fill:url(#Névtelen_színátmenet_157-8);}.cls-205{fill:url(#Új_mintázatos_színtár_1-17);}.cls-206{fill:url(#Névtelen_színátmenet_157-9);}.cls-207{fill:url(#Új_mintázatos_színtár_1-19);}.cls-208{fill:url(#Névtelen_színátmenet_157-10);}.cls-209{fill:url(#Új_mintázatos_színtár_1-21);}.cls-210{fill:url(#Névtelen_színátmenet_157-11);}.cls-211{fill:url(#Új_mintázatos_színtár_1-23);}.cls-212{fill:url(#Névtelen_színátmenet_157-12);}.cls-213{fill:url(#Új_mintázatos_színtár_1-25);}.cls-214{fill:url(#Névtelen_színátmenet_157-13);}.cls-215{fill:url(#Új_mintázatos_színtár_1-27);}.cls-216{fill:url(#Névtelen_színátmenet_157-14);}.cls-217{fill:url(#linear-gradient-2);}.cls-218{fill:url(#linear-gradient-3);}.cls-219,.cls-220,.cls-222,.cls-223,.cls-232,.cls-237,.cls-238,.cls-246{fill-rule:evenodd;}.cls-219{fill:url(#Névtelen_színátmenet_10);}.cls-220{fill:#f9fcfd;}.cls-221{fill:#f9e9af;}.cls-222,.cls-233{fill:#444242;}.cls-224{fill:url(#linear-gradient-4);}.cls-226{fill:url(#Névtelen_színátmenet_98);}.cls-227{fill:url(#linear-gradient-5);}.cls-228{fill:#d2b5a3;}.cls-232{fill:url(#linear-gradient-6);}.cls-234{fill:#a59e9a;}.cls-235{fill:url(#linear-gradient-7);}.cls-236{fill:url(#Névtelen_színátmenet_404-5);}.cls-237{fill:url(#linear-gradient-8);}.cls-238{fill:url(#linear-gradient-9);}.cls-239{fill:url(#Névtelen_színátmenet_157-15);}.cls-240{fill:#fdf4ee;}.cls-241{fill:url(#linear-gradient-10);}.cls-242,.cls-246{fill:#869325;}.cls-243{fill:#bccb2e;}.cls-244{fill:#98aa25;}.cls-245{fill:#727824;}</style><linearGradient id="Névtelen_színátmenet_404" x1="62.87" y1="188.88" x2="55.96" y2="149.68" gradientUnits="userSpaceOnUse"><stop offset="0" stop-color="#7ccbeb"/><stop offset="0.17" stop-color="#74c7e8"/><stop offset="0.43" stop-color="#5ebbe0"/><stop offset="0.75" stop-color="#3aa9d4"/><stop offset="0.99" stop-color="#1b99c9"/></linearGradient><linearGradient id="Névtelen_színátmenet_395" x1="168.04" y1="233.65" x2="168.04" y2="121.35" gradientTransform="matrix(1, 0, 0, -1, 0.14, 236.52)" gradientUnits="userSpaceOnUse"><stop offset="0.15" stop-color="#21b2db"/><stop offset="0.38" stop-color="#6bcbe7"/><stop offset="0.6" stop-color="#a7e0f0"/><stop offset="0.78" stop-color="#d3eff7"/><stop offset="0.92" stop-color="#edf8fb"/><stop offset="1" stop-color="#f7fbfd"/></linearGradient><linearGradient id="linear-gradient" x1="167.97" y1="0.52" x2="167.97" y2="119.46" gradientTransform="matrix(1, 0, 0, -1, 0.14, 236.52)" gradientUnits="userSpaceOnUse"><stop offset="0" stop-color="#7ccbeb"/><stop offset="0.44" stop-color="#7acaea"/><stop offset="0.6" stop-color="#73c6e8"/><stop offset="0.72" stop-color="#67c0e4"/><stop offset="0.82" stop-color="#56b8de"/><stop offset="0.9" stop-color="#40acd6"/><stop offset="0.97" stop-color="#259ecd"/><stop offset="0.99" stop-color="#1b99c9"/></linearGradient><clipPath id="clip-path" transform="translate(0.14 0.03)"><path class="cls-1" d="M1,159.52H.11V192.4c25.42,3.84,55.28,1.79,85.55-14.77,3.26-1.78,6.54-3.51,9.87-5.13,4-1.94,10-4.91,17-8.59,2.6-1.31,5.46-2.78,8.52-4.39Z"/></clipPath><linearGradient id="Névtelen_színátmenet_404-3" x1="58.36" y1="94.84" x2="52.2" y2="129.79" gradientTransform="matrix(1, 0, 0, -1, 0, 284.52)" xlink:href="#Névtelen_színátmenet_404"/><linearGradient id="Névtelen_színátmenet_404-4" x1="62.53" y1="172.73" x2="58.39" y2="149.25" xlink:href="#Névtelen_színátmenet_404"/><radialGradient id="Névtelen_színátmenet_32" cx="422.27" cy="-645.72" r="0.85" gradientTransform="translate(533.8 -433.68) rotate(180)" gradientUnits="userSpaceOnUse"><stop offset="0" stop-color="#fff"/><stop offset="1" stop-color="#fff" stop-opacity="0.2"/></radialGradient><radialGradient id="Névtelen_színátmenet_32-2" cx="439.05" cy="-643.81" r="0.85" xlink:href="#Névtelen_színátmenet_32"/><radialGradient id="Névtelen_színátmenet_32-3" cx="466.58" cy="-643.81" r="0.85" xlink:href="#Névtelen_színátmenet_32"/><radialGradient id="Névtelen_színátmenet_32-4" cx="447.26" cy="-641.76" r="0.85" xlink:href="#Névtelen_színátmenet_32"/><radialGradient id="Névtelen_színátmenet_32-5" cx="416.34" cy="-644.61" r="0.85" xlink:href="#Névtelen_színátmenet_32"/><radialGradient id="Névtelen_színátmenet_32-6" cx="449.77" cy="-640.02" r="0.85" xlink:href="#Névtelen_színátmenet_32"/><radialGradient id="Névtelen_színátmenet_32-7" cx="414.11" cy="-643.79" r="0.85" xlink:href="#Névtelen_színátmenet_32"/><radialGradient id="Névtelen_színátmenet_32-8" cx="434.73" cy="-643.79" r="0.85" xlink:href="#Névtelen_színátmenet_32"/><radialGradient id="Névtelen_színátmenet_32-9" cx="456.35" cy="-643.79" r="0.85" xlink:href="#Névtelen_színátmenet_32"/><radialGradient id="Névtelen_színátmenet_32-10" cx="459.37" cy="-643.79" r="0.85" xlink:href="#Névtelen_színátmenet_32"/><radialGradient id="Névtelen_színátmenet_32-11" cx="473.63" cy="-643.79" r="0.85" xlink:href="#Névtelen_színátmenet_32"/><radialGradient id="Névtelen_színátmenet_32-12" cx="430.87" cy="-642.3" r="0.54" xlink:href="#Névtelen_színátmenet_32"/><radialGradient id="Névtelen_színátmenet_32-13" cx="438.05" cy="-642.28" r="0.54" xlink:href="#Névtelen_színátmenet_32"/><radialGradient id="Névtelen_színátmenet_32-14" cx="471.88" cy="-642.28" r="0.54" xlink:href="#Névtelen_színátmenet_32"/><radialGradient id="Névtelen_színátmenet_32-15" cx="457.63" cy="-642.28" r="0.54" xlink:href="#Névtelen_színátmenet_32"/><radialGradient id="Névtelen_színátmenet_32-16" cx="457.63" cy="-638.55" r="0.54" xlink:href="#Névtelen_színátmenet_32"/><radialGradient id="Névtelen_színátmenet_32-17" cx="433.08" cy="-645.06" r="0.54" xlink:href="#Névtelen_színátmenet_32"/><radialGradient id="Névtelen_színátmenet_32-18" cx="464.36" cy="-639.76" r="0.54" xlink:href="#Névtelen_színátmenet_32"/><radialGradient id="Névtelen_színátmenet_32-19" cx="424.17" cy="-638.47" r="0.54" xlink:href="#Névtelen_színátmenet_32"/><radialGradient id="Névtelen_színátmenet_32-20" cx="419.05" cy="-643.76" r="0.54" xlink:href="#Névtelen_színátmenet_32"/><radialGradient id="Névtelen_színátmenet_32-21" cx="454.66" cy="-643.76" r="0.54" xlink:href="#Névtelen_színátmenet_32"/><radialGradient id="Névtelen_színátmenet_32-22" cx="428.18" cy="-643.76" r="0.54" xlink:href="#Névtelen_színátmenet_32"/><radialGradient id="Névtelen_színátmenet_32-23" cx="368.13" cy="-645.72" r="0.85" xlink:href="#Névtelen_színátmenet_32"/><radialGradient id="Névtelen_színátmenet_32-24" cx="384.91" cy="-643.81" r="0.85" xlink:href="#Névtelen_színátmenet_32"/><radialGradient id="Névtelen_színátmenet_32-25" cx="412.44" cy="-643.81" r="0.85" xlink:href="#Névtelen_színátmenet_32"/><radialGradient id="Névtelen_színátmenet_32-26" cx="393.12" cy="-641.76" r="0.85" xlink:href="#Névtelen_színátmenet_32"/><radialGradient id="Névtelen_színátmenet_32-27" cx="395.64" cy="-640.02" r="0.85" xlink:href="#Névtelen_színátmenet_32"/><radialGradient id="Névtelen_színátmenet_32-28" cx="380.59" cy="-643.79" r="0.85" xlink:href="#Névtelen_színátmenet_32"/><radialGradient id="Névtelen_színátmenet_32-29" cx="402.22" cy="-643.79" r="0.85" xlink:href="#Névtelen_színátmenet_32"/><radialGradient id="Névtelen_színátmenet_32-30" cx="405.23" cy="-643.79" r="0.85" xlink:href="#Névtelen_színátmenet_32"/><radialGradient id="Névtelen_színátmenet_32-31" cx="419.49" cy="-643.79" r="0.85" xlink:href="#Névtelen_színátmenet_32"/><radialGradient id="Névtelen_színátmenet_32-32" cx="376.73" cy="-642.3" r="0.54" xlink:href="#Névtelen_színátmenet_32"/><radialGradient id="Névtelen_színátmenet_32-33" cx="383.92" cy="-642.28" r="0.54" xlink:href="#Névtelen_színátmenet_32"/><radialGradient id="Névtelen_színátmenet_32-34" cx="417.74" cy="-642.28" r="0.54" xlink:href="#Névtelen_színátmenet_32"/><radialGradient id="Névtelen_színátmenet_32-35" cx="403.49" cy="-642.28" r="0.54" xlink:href="#Névtelen_színátmenet_32"/><radialGradient id="Névtelen_színátmenet_32-36" cx="403.49" cy="-638.55" r="0.54" xlink:href="#Névtelen_színátmenet_32"/><radialGradient id="Névtelen_színátmenet_32-37" cx="378.94" cy="-645.06" r="0.54" xlink:href="#Névtelen_színátmenet_32"/><radialGradient id="Névtelen_színátmenet_32-38" cx="410.23" cy="-639.76" r="0.54" xlink:href="#Névtelen_színátmenet_32"/><radialGradient id="Névtelen_színátmenet_32-39" cx="370.03" cy="-638.47" r="0.54" xlink:href="#Névtelen_színátmenet_32"/><radialGradient id="Névtelen_színátmenet_32-40" cx="400.52" cy="-643.76" r="0.54" xlink:href="#Névtelen_színátmenet_32"/><radialGradient id="Névtelen_színátmenet_32-41" cx="374.04" cy="-643.76" r="0.54" xlink:href="#Névtelen_színátmenet_32"/><radialGradient id="Névtelen_színátmenet_32-42" cx="421.83" cy="-627.94" r="0.85" xlink:href="#Névtelen_színátmenet_32"/><radialGradient id="Névtelen_színátmenet_32-43" cx="465.16" cy="-627.92" r="0.85" xlink:href="#Névtelen_színátmenet_32"/><radialGradient id="Névtelen_színátmenet_32-44" cx="409.16" cy="-626.41" r="0.54" xlink:href="#Névtelen_színátmenet_32"/><radialGradient id="Névtelen_színátmenet_32-45" cx="468.36" cy="-626.41" r="0.54" xlink:href="#Névtelen_színátmenet_32"/><radialGradient id="Névtelen_színátmenet_32-46" cx="451.35" cy="-622.67" r="0.54" xlink:href="#Névtelen_színátmenet_32"/><radialGradient id="Névtelen_színátmenet_32-47" cx="531.36" cy="-645.72" r="0.85" xlink:href="#Névtelen_színátmenet_32"/><radialGradient id="Névtelen_színátmenet_32-48" cx="525.44" cy="-644.61" r="0.85" xlink:href="#Névtelen_színátmenet_32"/><radialGradient id="Névtelen_színátmenet_32-49" cx="523.2" cy="-643.79" r="0.85" xlink:href="#Névtelen_színátmenet_32"/><radialGradient id="Névtelen_színátmenet_32-50" cx="533.26" cy="-638.47" r="0.54" xlink:href="#Névtelen_színátmenet_32"/><radialGradient id="Névtelen_színátmenet_32-51" cx="528.14" cy="-643.76" r="0.54" xlink:href="#Névtelen_színátmenet_32"/><radialGradient id="Névtelen_színátmenet_32-52" cx="477.22" cy="-645.72" r="0.85" xlink:href="#Névtelen_színátmenet_32"/><radialGradient id="Névtelen_színátmenet_32-53" cx="494" cy="-643.81" r="0.85" xlink:href="#Névtelen_színátmenet_32"/><radialGradient id="Névtelen_színátmenet_32-54" cx="521.53" cy="-643.81" r="0.85" xlink:href="#Névtelen_színátmenet_32"/><radialGradient id="Névtelen_színátmenet_32-55" cx="502.22" cy="-641.76" r="0.85" xlink:href="#Névtelen_színátmenet_32"/><radialGradient id="Névtelen_színátmenet_32-56" cx="504.73" cy="-640.02" r="0.85" xlink:href="#Névtelen_színátmenet_32"/><radialGradient id="Névtelen_színátmenet_32-57" cx="489.68" cy="-643.79" r="0.85" xlink:href="#Névtelen_színátmenet_32"/><radialGradient id="Névtelen_színátmenet_32-58" cx="511.31" cy="-643.79" r="0.85" xlink:href="#Névtelen_színátmenet_32"/><radialGradient id="Névtelen_színátmenet_32-59" cx="514.33" cy="-643.79" r="0.85" xlink:href="#Névtelen_színátmenet_32"/><radialGradient id="Névtelen_színátmenet_32-60" cx="528.59" cy="-643.79" r="0.85" xlink:href="#Névtelen_színátmenet_32"/><radialGradient id="Névtelen_színátmenet_32-61" cx="485.83" cy="-642.3" r="0.54" xlink:href="#Névtelen_színátmenet_32"/><radialGradient id="Névtelen_színátmenet_32-62" cx="493.01" cy="-642.28" r="0.54" xlink:href="#Névtelen_színátmenet_32"/><radialGradient id="Névtelen_színátmenet_32-63" cx="526.84" cy="-642.28" r="0.54" xlink:href="#Névtelen_színátmenet_32"/><radialGradient id="Névtelen_színátmenet_32-64" cx="512.58" cy="-642.28" r="0.54" xlink:href="#Névtelen_színátmenet_32"/><radialGradient id="Névtelen_színátmenet_32-65" cx="512.58" cy="-638.55" r="0.54" xlink:href="#Névtelen_színátmenet_32"/><radialGradient id="Névtelen_színátmenet_32-66" cx="488.03" cy="-645.06" r="0.54" xlink:href="#Névtelen_színátmenet_32"/><radialGradient id="Névtelen_színátmenet_32-67" cx="519.32" cy="-639.76" r="0.54" xlink:href="#Névtelen_színátmenet_32"/><radialGradient id="Névtelen_színátmenet_32-68" cx="479.13" cy="-638.47" r="0.54" xlink:href="#Névtelen_színátmenet_32"/><radialGradient id="Névtelen_színátmenet_32-69" cx="509.61" cy="-643.76" r="0.54" xlink:href="#Névtelen_színátmenet_32"/><radialGradient id="Névtelen_színátmenet_32-70" cx="483.13" cy="-643.76" r="0.54" xlink:href="#Névtelen_színátmenet_32"/><radialGradient id="Névtelen_színátmenet_32-71" cx="530.92" cy="-627.94" r="0.85" xlink:href="#Névtelen_színátmenet_32"/><radialGradient id="Névtelen_színátmenet_32-72" cx="489.37" cy="-627.92" r="0.85" xlink:href="#Névtelen_színátmenet_32"/><radialGradient id="Névtelen_színátmenet_32-73" cx="518.25" cy="-626.41" r="0.54" xlink:href="#Névtelen_színátmenet_32"/><radialGradient id="Névtelen_színátmenet_32-74" cx="494.85" cy="-622.67" r="0.54" xlink:href="#Névtelen_színátmenet_32"/><radialGradient id="Névtelen_színátmenet_32-75" cx="255.56" cy="-645.44" r="0.85" xlink:href="#Névtelen_színátmenet_32"/><radialGradient id="Névtelen_színátmenet_32-76" cx="272.33" cy="-643.53" r="0.85" xlink:href="#Névtelen_színátmenet_32"/><radialGradient id="Névtelen_színátmenet_32-77" cx="299.86" cy="-643.53" r="0.85" xlink:href="#Névtelen_színátmenet_32"/><radialGradient id="Névtelen_színátmenet_32-78" cx="280.55" cy="-641.47" r="0.85" xlink:href="#Névtelen_színátmenet_32"/><radialGradient id="Névtelen_színátmenet_32-79" cx="249.63" cy="-644.33" r="0.85" xlink:href="#Névtelen_színátmenet_32"/><radialGradient id="Névtelen_színátmenet_32-80" cx="283.06" cy="-639.74" r="0.85" xlink:href="#Névtelen_színátmenet_32"/><radialGradient id="Névtelen_színátmenet_32-81" cx="247.4" cy="-643.5" r="0.85" xlink:href="#Névtelen_színátmenet_32"/><radialGradient id="Névtelen_színátmenet_32-82" cx="268.02" cy="-643.5" r="0.85" xlink:href="#Névtelen_színátmenet_32"/><radialGradient id="Névtelen_színátmenet_32-83" cx="289.64" cy="-643.5" r="0.85" xlink:href="#Névtelen_színátmenet_32"/><radialGradient id="Névtelen_színátmenet_32-84" cx="292.66" cy="-643.5" r="0.85" xlink:href="#Névtelen_színátmenet_32"/><radialGradient id="Névtelen_színátmenet_32-85" cx="306.92" cy="-643.5" r="0.85" xlink:href="#Névtelen_színátmenet_32"/><radialGradient id="Névtelen_színátmenet_32-86" cx="264.16" cy="-642.02" r="0.54" xlink:href="#Névtelen_színátmenet_32"/><radialGradient id="Névtelen_színátmenet_32-87" cx="271.34" cy="-642" r="0.54" xlink:href="#Névtelen_színátmenet_32"/><radialGradient id="Névtelen_színátmenet_32-88" cx="305.17" cy="-642" r="0.54" xlink:href="#Névtelen_színátmenet_32"/><radialGradient id="Névtelen_színátmenet_32-89" cx="290.91" cy="-642" r="0.54" xlink:href="#Névtelen_színátmenet_32"/><radialGradient id="Névtelen_színátmenet_32-90" cx="290.91" cy="-638.26" r="0.54" xlink:href="#Névtelen_színátmenet_32"/><radialGradient id="Névtelen_színátmenet_32-91" cx="266.36" cy="-644.78" r="0.54" xlink:href="#Névtelen_színátmenet_32"/><radialGradient id="Névtelen_színátmenet_32-92" cx="297.65" cy="-639.47" r="0.54" xlink:href="#Névtelen_színátmenet_32"/><radialGradient id="Névtelen_színátmenet_32-93" cx="257.46" cy="-638.19" r="0.54" xlink:href="#Névtelen_színátmenet_32"/><radialGradient id="Névtelen_színátmenet_32-94" cx="252.34" cy="-643.48" r="0.54" xlink:href="#Névtelen_színátmenet_32"/><radialGradient id="Névtelen_színátmenet_32-95" cx="287.95" cy="-643.48" r="0.54" xlink:href="#Névtelen_színátmenet_32"/><radialGradient id="Névtelen_színátmenet_32-96" cx="261.46" cy="-643.48" r="0.54" xlink:href="#Névtelen_színátmenet_32"/><radialGradient id="Névtelen_színátmenet_32-97" cx="201.42" cy="-645.44" r="0.85" xlink:href="#Névtelen_színátmenet_32"/><radialGradient id="Névtelen_színátmenet_32-98" cx="218.2" cy="-643.53" r="0.85" xlink:href="#Névtelen_színátmenet_32"/><radialGradient id="Névtelen_színátmenet_32-99" cx="245.73" cy="-643.53" r="0.85" xlink:href="#Névtelen_színátmenet_32"/><radialGradient id="Névtelen_színátmenet_32-100" cx="226.41" cy="-641.47" r="0.85" xlink:href="#Névtelen_színátmenet_32"/><radialGradient id="Névtelen_színátmenet_32-101" cx="228.93" cy="-639.74" r="0.85" xlink:href="#Névtelen_színátmenet_32"/><radialGradient id="Névtelen_színátmenet_32-102" cx="213.88" cy="-643.5" r="0.85" xlink:href="#Névtelen_színátmenet_32"/><radialGradient id="Névtelen_színátmenet_32-103" cx="235.5" cy="-643.5" r="0.85" xlink:href="#Névtelen_színátmenet_32"/><radialGradient id="Névtelen_színátmenet_32-104" cx="238.52" cy="-643.5" r="0.85" xlink:href="#Névtelen_színátmenet_32"/><radialGradient id="Névtelen_színátmenet_32-105" cx="252.78" cy="-643.5" r="0.85" xlink:href="#Névtelen_színátmenet_32"/><radialGradient id="Névtelen_színátmenet_32-106" cx="210.02" cy="-642.02" r="0.54" xlink:href="#Névtelen_színátmenet_32"/><radialGradient id="Névtelen_színátmenet_32-107" cx="217.21" cy="-642" r="0.54" xlink:href="#Névtelen_színátmenet_32"/><radialGradient id="Névtelen_színátmenet_32-108" cx="251.03" cy="-642" r="0.54" xlink:href="#Névtelen_színátmenet_32"/><radialGradient id="Névtelen_színátmenet_32-109" cx="236.78" cy="-642" r="0.54" xlink:href="#Névtelen_színátmenet_32"/><radialGradient id="Névtelen_színátmenet_32-110" cx="236.78" cy="-638.26" r="0.54" xlink:href="#Névtelen_színátmenet_32"/><radialGradient id="Névtelen_színátmenet_32-111" cx="212.23" cy="-644.78" r="0.54" xlink:href="#Névtelen_színátmenet_32"/><radialGradient id="Névtelen_színátmenet_32-112" cx="243.52" cy="-639.47" r="0.54" xlink:href="#Névtelen_színátmenet_32"/><radialGradient id="Névtelen_színátmenet_32-113" cx="203.32" cy="-638.19" r="0.54" xlink:href="#Névtelen_színátmenet_32"/><radialGradient id="Névtelen_színátmenet_32-114" cx="233.81" cy="-643.48" r="0.54" xlink:href="#Névtelen_színátmenet_32"/><radialGradient id="Névtelen_színátmenet_32-115" cx="207.33" cy="-643.48" r="0.54" xlink:href="#Névtelen_színátmenet_32"/><radialGradient id="Névtelen_színátmenet_32-116" cx="255.12" cy="-627.66" r="0.85" xlink:href="#Névtelen_színátmenet_32"/><radialGradient id="Névtelen_színátmenet_32-117" cx="298.44" cy="-627.63" r="0.85" xlink:href="#Névtelen_színátmenet_32"/><radialGradient id="Névtelen_színátmenet_32-118" cx="242.45" cy="-626.13" r="0.54" xlink:href="#Névtelen_színátmenet_32"/><radialGradient id="Névtelen_színátmenet_32-119" cx="301.64" cy="-626.13" r="0.54" xlink:href="#Névtelen_színátmenet_32"/><radialGradient id="Névtelen_színátmenet_32-120" cx="284.64" cy="-622.39" r="0.54" xlink:href="#Névtelen_színátmenet_32"/><radialGradient id="Névtelen_színátmenet_32-121" cx="364.65" cy="-645.44" r="0.85" xlink:href="#Névtelen_színátmenet_32"/><radialGradient id="Névtelen_színátmenet_32-122" cx="358.72" cy="-644.33" r="0.85" xlink:href="#Névtelen_színátmenet_32"/><radialGradient id="Névtelen_színátmenet_32-123" cx="356.49" cy="-643.5" r="0.85" xlink:href="#Névtelen_színátmenet_32"/><radialGradient id="Névtelen_színátmenet_32-124" cx="366.55" cy="-638.19" r="0.54" xlink:href="#Névtelen_színátmenet_32"/><radialGradient id="Névtelen_színátmenet_32-125" cx="361.43" cy="-643.48" r="0.54" xlink:href="#Névtelen_színátmenet_32"/><radialGradient id="Névtelen_színátmenet_32-126" cx="310.51" cy="-645.44" r="0.85" xlink:href="#Névtelen_színátmenet_32"/><radialGradient id="Névtelen_színátmenet_32-127" cx="327.29" cy="-643.53" r="0.85" xlink:href="#Névtelen_színátmenet_32"/><radialGradient id="Névtelen_színátmenet_32-128" cx="354.82" cy="-643.53" r="0.85" xlink:href="#Névtelen_színátmenet_32"/><radialGradient id="Névtelen_színátmenet_32-129" cx="335.5" cy="-641.47" r="0.85" xlink:href="#Névtelen_színátmenet_32"/><radialGradient id="Névtelen_színátmenet_32-130" cx="338.02" cy="-639.74" r="0.85" xlink:href="#Névtelen_színátmenet_32"/><radialGradient id="Névtelen_színátmenet_32-131" cx="322.97" cy="-643.5" r="0.85" xlink:href="#Névtelen_színátmenet_32"/><radialGradient id="Névtelen_színátmenet_32-132" cx="344.6" cy="-643.5" r="0.85" xlink:href="#Névtelen_színátmenet_32"/><radialGradient id="Névtelen_színátmenet_32-133" cx="347.61" cy="-643.5" r="0.85" xlink:href="#Névtelen_színátmenet_32"/><radialGradient id="Névtelen_színátmenet_32-134" cx="361.87" cy="-643.5" r="0.85" xlink:href="#Névtelen_színátmenet_32"/><radialGradient id="Névtelen_színátmenet_32-135" cx="319.11" cy="-642.02" r="0.54" xlink:href="#Névtelen_színátmenet_32"/><radialGradient id="Névtelen_színátmenet_32-136" cx="326.3" cy="-642" r="0.54" xlink:href="#Névtelen_színátmenet_32"/><radialGradient id="Névtelen_színátmenet_32-137" cx="360.12" cy="-642" r="0.54" xlink:href="#Névtelen_színátmenet_32"/><radialGradient id="Névtelen_színátmenet_32-138" cx="345.87" cy="-642" r="0.54" xlink:href="#Névtelen_színátmenet_32"/><radialGradient id="Névtelen_színátmenet_32-139" cx="345.87" cy="-638.26" r="0.54" xlink:href="#Névtelen_színátmenet_32"/><radialGradient id="Névtelen_színátmenet_32-140" cx="321.32" cy="-644.78" r="0.54" xlink:href="#Névtelen_színátmenet_32"/><radialGradient id="Névtelen_színátmenet_32-141" cx="352.61" cy="-639.47" r="0.54" xlink:href="#Névtelen_színátmenet_32"/><radialGradient id="Névtelen_színátmenet_32-142" cx="312.41" cy="-638.19" r="0.54" xlink:href="#Névtelen_színátmenet_32"/><radialGradient id="Névtelen_színátmenet_32-143" cx="342.9" cy="-643.48" r="0.54" xlink:href="#Névtelen_színátmenet_32"/><radialGradient id="Névtelen_színátmenet_32-144" cx="316.42" cy="-643.48" r="0.54" xlink:href="#Névtelen_színátmenet_32"/><radialGradient id="Névtelen_színátmenet_32-145" cx="364.21" cy="-627.66" r="0.85" xlink:href="#Névtelen_színátmenet_32"/><radialGradient id="Névtelen_színátmenet_32-146" cx="322.66" cy="-627.63" r="0.85" xlink:href="#Névtelen_színátmenet_32"/><radialGradient id="Névtelen_színátmenet_32-147" cx="351.54" cy="-626.13" r="0.54" xlink:href="#Névtelen_színátmenet_32"/><radialGradient id="Névtelen_színátmenet_32-148" cx="328.14" cy="-622.39" r="0.54" xlink:href="#Névtelen_színátmenet_32"/><radialGradient id="Névtelen_színátmenet_26" cx="231.11" cy="-67.67" r="20.87" gradientTransform="matrix(1, -0.06, 0.06, 1.01, -0.06, 191.53)" gradientUnits="userSpaceOnUse"><stop offset="0.74" stop-color="#fff" stop-opacity="0.8"/><stop offset="0.95" stop-color="#fff" stop-opacity="0"/></radialGradient><radialGradient id="Névtelen_színátmenet_26-2" cx="120.4" cy="-63.72" r="32.84" xlink:href="#Névtelen_színátmenet_26"/><radialGradient id="Névtelen_színátmenet_31" cx="69.64" cy="-30.83" r="27.66" gradientTransform="matrix(1, -0.06, 0.06, 1.01, -0.06, 191.53)" gradientUnits="userSpaceOnUse"><stop offset="0.85" stop-color="#fff" stop-opacity="0.6"/><stop offset="0.95" stop-color="#fff" stop-opacity="0"/></radialGradient><radialGradient id="Névtelen_színátmenet_26-3" cx="102.58" cy="-84.18" r="14.9" xlink:href="#Névtelen_színátmenet_26"/><radialGradient id="Névtelen_színátmenet_31-2" cx="56.4" cy="-98.74" r="20.87" xlink:href="#Névtelen_színátmenet_31"/><radialGradient id="Névtelen_színátmenet_26-4" cx="239.19" cy="-7.19" r="28.38" xlink:href="#Névtelen_színátmenet_26"/><radialGradient id="Névtelen_színátmenet_26-5" cx="136.94" cy="17.5" r="20.87" xlink:href="#Névtelen_színátmenet_26"/><radialGradient id="Névtelen_színátmenet_26-6" cx="118.62" cy="-111.2" r="20.87" xlink:href="#Névtelen_színátmenet_26"/><radialGradient id="Névtelen_színátmenet_26-7" cx="76.63" cy="-139.58" r="29.48" xlink:href="#Névtelen_színátmenet_26"/><radialGradient id="Névtelen_színátmenet_26-8" cx="54.52" cy="-0.23" r="20.87" xlink:href="#Névtelen_színátmenet_26"/><radialGradient id="Névtelen_színátmenet_26-9" cx="144.86" cy="-106.53" r="20.87" xlink:href="#Névtelen_színátmenet_26"/><radialGradient id="Névtelen_színátmenet_26-10" cx="262.34" cy="-92.14" r="20.87" xlink:href="#Névtelen_színátmenet_26"/><radialGradient id="Névtelen_színátmenet_31-3" cx="291.14" cy="-125.27" r="27.02" xlink:href="#Névtelen_színátmenet_31"/><radialGradient id="Névtelen_színátmenet_26-11" cx="278.79" cy="-53.04" r="29.02" xlink:href="#Névtelen_színátmenet_26"/><radialGradient id="Névtelen_színátmenet_26-12" cx="284.24" cy="20.5" r="20.87" xlink:href="#Névtelen_színátmenet_26"/><radialGradient id="Névtelen_színátmenet_26-13" cx="41.19" cy="-36.98" r="20.87" xlink:href="#Névtelen_színátmenet_26"/><pattern id="Új_mintázatos_színtár_1" data-name="Új mintázatos színtár 1" x="0.14" y="0.03" width="38.25" height="55" patternUnits="userSpaceOnUse" viewBox="0 0 38.24 55"><rect class="cls-2" width="38.25" height="55"/><rect class="cls-3" width="38.25" height="55"/></pattern><radialGradient id="Névtelen_színátmenet_157" cx="22.41" cy="172.12" r="3.81" gradientUnits="userSpaceOnUse"><stop offset="0.34" stop-color="#fff" stop-opacity="0.96"/><stop offset="0.95" stop-color="#f6fbff" stop-opacity="0"/></radialGradient><pattern id="Új_mintázatos_színtár_1-3" data-name="Új mintázatos színtár 1" width="38.25" height="55" patternTransform="translate(22.66 0.03)" patternUnits="userSpaceOnUse" viewBox="0 0 38.24 55"><rect class="cls-2" width="38.25" height="55"/><rect class="cls-3" width="38.25" height="55"/></pattern><radialGradient id="Névtelen_színátmenet_157-2" cx="44.93" cy="172.12" r="3.81" xlink:href="#Névtelen_színátmenet_157"/><pattern id="Új_mintázatos_színtár_1-5" data-name="Új mintázatos színtár 1" width="38.25" height="55" patternTransform="translate(45.19 0.03)" patternUnits="userSpaceOnUse" viewBox="0 0 38.24 55"><rect class="cls-2" width="38.25" height="55"/><rect class="cls-3" width="38.25" height="55"/></pattern><radialGradient id="Névtelen_színátmenet_157-3" cx="67.45" cy="172.12" r="3.81" xlink:href="#Névtelen_színátmenet_157"/><pattern id="Új_mintázatos_színtár_1-7" data-name="Új mintázatos színtár 1" width="38.25" height="55" patternTransform="translate(67.71 0.03)" patternUnits="userSpaceOnUse" viewBox="0 0 38.24 55"><rect class="cls-2" width="38.25" height="55"/><rect class="cls-3" width="38.25" height="55"/></pattern><radialGradient id="Névtelen_színátmenet_157-4" cx="89.98" cy="172.12" r="3.81" xlink:href="#Névtelen_színátmenet_157"/><pattern id="Új_mintázatos_színtár_1-9" data-name="Új mintázatos színtár 1" width="38.25" height="55" patternTransform="translate(88.06 0.03)" patternUnits="userSpaceOnUse" viewBox="0 0 38.24 55"><rect class="cls-2" width="38.25" height="55"/><rect class="cls-3" width="38.25" height="55"/></pattern><radialGradient id="Névtelen_színátmenet_157-5" cx="110.33" cy="172.12" r="3.81" xlink:href="#Névtelen_színátmenet_157"/><pattern id="Új_mintázatos_színtár_1-11" data-name="Új mintázatos színtár 1" width="38.25" height="55" patternTransform="translate(33.87 0.03)" patternUnits="userSpaceOnUse" viewBox="0 0 38.24 55"><rect class="cls-2" width="38.25" height="55"/><rect class="cls-3" width="38.25" height="55"/></pattern><radialGradient id="Névtelen_színátmenet_157-6" cx="132.63" cy="172.12" r="3.81" xlink:href="#Névtelen_színátmenet_157"/><pattern id="Új_mintázatos_színtár_1-13" data-name="Új mintázatos színtár 1" width="38.25" height="55" patternTransform="translate(56.39 0.03)" patternUnits="userSpaceOnUse" viewBox="0 0 38.24 55"><rect class="cls-2" width="38.25" height="55"/><rect class="cls-3" width="38.25" height="55"/></pattern><radialGradient id="Névtelen_színátmenet_157-7" cx="155.15" cy="172.12" r="3.81" xlink:href="#Névtelen_színátmenet_157"/><pattern id="Új_mintázatos_színtár_1-15" data-name="Új mintázatos színtár 1" width="38.25" height="55" patternTransform="translate(78.91 0.03)" patternUnits="userSpaceOnUse" viewBox="0 0 38.24 55"><rect class="cls-2" width="38.25" height="55"/><rect class="cls-3" width="38.25" height="55"/></pattern><radialGradient id="Névtelen_színátmenet_157-8" cx="177.67" cy="172.12" r="3.81" xlink:href="#Névtelen_színátmenet_157"/><pattern id="Új_mintázatos_színtár_1-17" data-name="Új mintázatos színtár 1" width="38.25" height="55" patternTransform="translate(101.43 0.03)" patternUnits="userSpaceOnUse" viewBox="0 0 38.24 55"><rect class="cls-2" width="38.25" height="55"/><rect class="cls-3" width="38.25" height="55"/></pattern><radialGradient id="Névtelen_színátmenet_157-9" cx="200.19" cy="172.12" r="3.81" xlink:href="#Névtelen_színátmenet_157"/><pattern id="Új_mintázatos_színtár_1-19" data-name="Új mintázatos színtár 1" width="38.25" height="55" patternTransform="translate(123.95 0.03)" patternUnits="userSpaceOnUse" viewBox="0 0 38.24 55"><rect class="cls-2" width="38.25" height="55"/><rect class="cls-3" width="38.25" height="55"/></pattern><radialGradient id="Névtelen_színátmenet_157-10" cx="222.71" cy="172.12" r="3.81" xlink:href="#Névtelen_színátmenet_157"/><pattern id="Új_mintázatos_színtár_1-21" data-name="Új mintázatos színtár 1" width="38.25" height="55" patternTransform="translate(70.09 0.03)" patternUnits="userSpaceOnUse" viewBox="0 0 38.24 55"><rect class="cls-2" width="38.25" height="55"/><rect class="cls-3" width="38.25" height="55"/></pattern><radialGradient id="Névtelen_színátmenet_157-11" cx="245.34" cy="172.12" r="3.81" xlink:href="#Névtelen_színátmenet_157"/><pattern id="Új_mintázatos_színtár_1-23" data-name="Új mintázatos színtár 1" width="38.25" height="55" patternTransform="translate(92.61 0.03)" patternUnits="userSpaceOnUse" viewBox="0 0 38.24 55"><rect class="cls-2" width="38.25" height="55"/><rect class="cls-3" width="38.25" height="55"/></pattern><radialGradient id="Névtelen_színátmenet_157-12" cx="267.86" cy="172.12" r="3.81" xlink:href="#Névtelen_színátmenet_157"/><pattern id="Új_mintázatos_színtár_1-25" data-name="Új mintázatos színtár 1" width="38.25" height="55" patternTransform="translate(115.13 0.03)" patternUnits="userSpaceOnUse" viewBox="0 0 38.24 55"><rect class="cls-2" width="38.25" height="55"/><rect class="cls-3" width="38.25" height="55"/></pattern><radialGradient id="Névtelen_színátmenet_157-13" cx="290.38" cy="172.12" r="3.81" xlink:href="#Névtelen_színátmenet_157"/><pattern id="Új_mintázatos_színtár_1-27" data-name="Új mintázatos színtár 1" width="38.25" height="55" patternTransform="translate(137.65 0.03)" patternUnits="userSpaceOnUse" viewBox="0 0 38.24 55"><rect class="cls-2" width="38.25" height="55"/><rect class="cls-3" width="38.25" height="55"/></pattern><radialGradient id="Névtelen_színátmenet_157-14" cx="312.9" cy="172.12" r="3.81" xlink:href="#Névtelen_színátmenet_157"/><linearGradient id="linear-gradient-2" x1="33.84" y1="136.08" x2="33.84" y2="113.9" gradientUnits="userSpaceOnUse"><stop offset="0.19" stop-color="#81942c"/><stop offset="1" stop-color="#a4bd2d"/></linearGradient><linearGradient id="linear-gradient-3" x1="56.33" y1="155.14" x2="56.33" y2="124.99" gradientUnits="userSpaceOnUse"><stop offset="0.16" stop-color="#9c9723"/><stop offset="0.92" stop-color="#ded620"/></linearGradient><radialGradient id="Névtelen_színátmenet_10" cx="167.99" cy="69.9" r="23.53" gradientUnits="userSpaceOnUse"><stop offset="0" stop-color="#f7f9e9" stop-opacity="0.96"/><stop offset="0.09" stop-color="#f7f9ea" stop-opacity="0.93"/><stop offset="0.23" stop-color="#f7f9ec" stop-opacity="0.85"/><stop offset="0.39" stop-color="#f7faef" stop-opacity="0.71"/><stop offset="0.58" stop-color="#f7faf3" stop-opacity="0.52"/><stop offset="0.79" stop-color="#f6faf9" stop-opacity="0.28"/><stop offset="1" stop-color="#f6fbff" stop-opacity="0"/></radialGradient><linearGradient id="linear-gradient-4" x1="33.15" y1="96" x2="35.14" y2="96" gradientUnits="userSpaceOnUse"><stop offset="0.04" stop-color="#464846"/><stop offset="1" stop-color="#636764"/></linearGradient><linearGradient id="Névtelen_színátmenet_98" x1="36.7" y1="108.48" x2="41.39" y2="108.48" gradientUnits="userSpaceOnUse"><stop offset="0" stop-color="#fff"/><stop offset="0.06" stop-color="#f6f6f7"/><stop offset="0.35" stop-color="#ced0d3"/><stop offset="0.61" stop-color="#b1b5b9"/><stop offset="0.83" stop-color="#9fa4a9"/><stop offset="1" stop-color="#999ea3"/></linearGradient><linearGradient id="linear-gradient-5" x1="26.94" y1="83.93" x2="40.95" y2="83.93" xlink:href="#linear-gradient-4"/><linearGradient id="linear-gradient-6" x1="44.28" y1="228.13" x2="227.83" y2="228.13" xlink:href="#linear-gradient-3"/><linearGradient id="linear-gradient-7" x1="164.93" y1="119.67" x2="173.75" y2="119.67" gradientTransform="matrix(-1, 0, 0, 1, 430.75, 0.03)" xlink:href="#linear-gradient-4"/><linearGradient id="Névtelen_színátmenet_404-5" x1="259.23" y1="165.49" x2="259.23" y2="123.9" xlink:href="#Névtelen_színátmenet_404"/><linearGradient id="linear-gradient-8" x1="169.92" y1="227.46" x2="336.07" y2="227.46" xlink:href="#linear-gradient-2"/><linearGradient id="linear-gradient-9" x1="-0.08" y1="228.58" x2="108.79" y2="228.58" xlink:href="#linear-gradient-2"/><radialGradient id="Névtelen_színátmenet_157-15" cx="167.98" cy="117.78" r="59.95" gradientTransform="translate(0 38.46) scale(1 0.67)" xlink:href="#Névtelen_színátmenet_157"/><linearGradient id="linear-gradient-10" x1="115.95" y1="153.56" x2="128.58" y2="153.56" xlink:href="#linear-gradient-4"/></defs><title>eezy_06</title><g class="cls-4"><g id="Layer"><rect class="cls-5" x="0.25" width="335.86" height="117.45"/><rect class="cls-6" x="0.09" y="117.33" width="336.03" height="117.89"/><path class="cls-1" d="M1,159.52H.11V192.4c25.42,3.84,55.28,1.79,85.55-14.77,3.26-1.78,6.54-3.51,9.87-5.13,4-1.94,10-4.91,17-8.59,2.6-1.31,5.46-2.78,8.52-4.39Z" transform="translate(0.14 0.03)"/><g class="cls-7"><g class="cls-8"><path class="cls-9" d="M95.53,172.5c-3.33,1.62-6.61,3.35-9.87,5.13C55.39,194.19,25.53,196.24.11,192.4V163.91H112.55C105.55,167.59,99.55,170.56,95.53,172.5Z" transform="translate(0.14 0.03)"/><path class="cls-10" d="M1,163.91H.11v-4.39h121c-3.06,1.61-5.92,3.08-8.52,4.39Z" transform="translate(0.14 0.03)"/></g></g><circle class="cls-11" cx="111.53" cy="212.04" r="0.85"/><circle class="cls-12" cx="94.76" cy="210.13" r="0.85"/><circle class="cls-13" cx="67.23" cy="210.13" r="0.85"/><circle class="cls-14" cx="86.54" cy="208.08" r="0.85"/><circle class="cls-15" cx="117.46" cy="210.93" r="0.85"/><circle class="cls-16" cx="84.03" cy="206.34" r="0.85"/><circle class="cls-17" cx="119.69" cy="210.11" r="0.85"/><circle class="cls-18" cx="99.07" cy="210.11" r="0.85"/><circle class="cls-19" cx="77.45" cy="210.11" r="0.85"/><circle class="cls-20" cx="74.43" cy="210.11" r="0.85"/><circle class="cls-21" cx="60.17" cy="210.11" r="0.85"/><circle class="cls-22" cx="102.93" cy="208.62" r="0.54"/><circle class="cls-23" cx="95.75" cy="208.6" r="0.54"/><circle class="cls-24" cx="61.92" cy="208.6" r="0.54"/><circle class="cls-25" cx="76.18" cy="208.6" r="0.54"/><circle class="cls-26" cx="76.18" cy="204.87" r="0.54"/><circle class="cls-27" cx="100.73" cy="211.38" r="0.54"/><circle class="cls-28" cx="69.44" cy="206.08" r="0.54"/><circle class="cls-29" cx="109.63" cy="204.79" r="0.54"/><circle class="cls-30" cx="114.75" cy="210.08" r="0.54"/><circle class="cls-31" cx="79.14" cy="210.08" r="0.54"/><circle class="cls-32" cx="105.63" cy="210.08" r="0.54"/><circle class="cls-33" cx="165.67" cy="212.04" r="0.85"/><circle class="cls-34" cx="148.89" cy="210.13" r="0.85"/><circle class="cls-35" cx="121.36" cy="210.13" r="0.85"/><circle class="cls-36" cx="140.68" cy="208.08" r="0.85"/><circle class="cls-37" cx="138.16" cy="206.34" r="0.85"/><circle class="cls-38" cx="153.21" cy="210.11" r="0.85"/><circle class="cls-39" cx="131.59" cy="210.11" r="0.85"/><circle class="cls-40" cx="128.57" cy="210.11" r="0.85"/><circle class="cls-41" cx="114.31" cy="210.11" r="0.85"/><circle class="cls-42" cx="157.07" cy="208.62" r="0.54"/><circle class="cls-43" cx="149.88" cy="208.6" r="0.54"/><circle class="cls-44" cx="116.06" cy="208.6" r="0.54"/><circle class="cls-45" cx="130.31" cy="208.6" r="0.54"/><circle class="cls-46" cx="130.31" cy="204.87" r="0.54"/><circle class="cls-47" cx="154.86" cy="211.38" r="0.54"/><circle class="cls-48" cx="123.57" cy="206.08" r="0.54"/><circle class="cls-49" cx="163.77" cy="204.79" r="0.54"/><circle class="cls-50" cx="133.28" cy="210.08" r="0.54"/><circle class="cls-51" cx="159.76" cy="210.08" r="0.54"/><circle class="cls-52" cx="111.97" cy="194.26" r="0.85"/><circle class="cls-53" cx="68.65" cy="194.23" r="0.85"/><circle class="cls-54" cx="124.64" cy="192.73" r="0.54"/><circle class="cls-55" cx="65.45" cy="192.73" r="0.54"/><circle class="cls-56" cx="82.45" cy="188.99" r="0.54"/><circle class="cls-57" cx="2.44" cy="212.04" r="0.85"/><circle class="cls-58" cx="8.37" cy="210.93" r="0.85"/><circle class="cls-59" cx="10.6" cy="210.11" r="0.85"/><circle class="cls-60" cx="0.54" cy="204.79" r="0.54"/><circle class="cls-61" cx="5.66" cy="210.08" r="0.54"/><circle class="cls-62" cx="56.58" cy="212.04" r="0.85"/><circle class="cls-63" cx="39.8" cy="210.13" r="0.85"/><circle class="cls-64" cx="12.27" cy="210.13" r="0.85"/><circle class="cls-65" cx="31.59" cy="208.08" r="0.85"/><circle class="cls-66" cx="29.07" cy="206.34" r="0.85"/><circle class="cls-67" cx="44.12" cy="210.11" r="0.85"/><circle class="cls-68" cx="22.49" cy="210.11" r="0.85"/><circle class="cls-69" cx="19.48" cy="210.11" r="0.85"/><circle class="cls-70" cx="5.22" cy="210.11" r="0.85"/><circle class="cls-71" cx="47.98" cy="208.62" r="0.54"/><circle class="cls-72" cx="40.79" cy="208.6" r="0.54"/><circle class="cls-73" cx="6.97" cy="208.6" r="0.54"/><circle class="cls-74" cx="21.22" cy="208.6" r="0.54"/><circle class="cls-75" cx="21.22" cy="204.87" r="0.54"/><circle class="cls-76" cx="45.77" cy="211.38" r="0.54"/><circle class="cls-77" cx="14.48" cy="206.08" r="0.54"/><circle class="cls-78" cx="54.68" cy="204.79" r="0.54"/><circle class="cls-79" cx="24.19" cy="210.08" r="0.54"/><circle class="cls-80" cx="50.67" cy="210.08" r="0.54"/><circle class="cls-81" cx="2.88" cy="194.26" r="0.85"/><circle class="cls-82" cx="44.43" cy="194.23" r="0.85"/><circle class="cls-83" cx="15.55" cy="192.73" r="0.54"/><circle class="cls-84" cx="38.95" cy="188.99" r="0.54"/><circle class="cls-85" cx="278.25" cy="211.75" r="0.85"/><circle class="cls-86" cx="261.47" cy="209.85" r="0.85"/><circle class="cls-87" cx="233.94" cy="209.85" r="0.85"/><circle class="cls-88" cx="253.25" cy="207.79" r="0.85"/><circle class="cls-89" cx="284.17" cy="210.65" r="0.85"/><circle class="cls-90" cx="250.74" cy="206.06" r="0.85"/><circle class="cls-91" cx="286.41" cy="209.82" r="0.85"/><circle class="cls-92" cx="265.79" cy="209.82" r="0.85"/><circle class="cls-93" cx="244.16" cy="209.82" r="0.85"/><circle class="cls-94" cx="241.15" cy="209.82" r="0.85"/><circle class="cls-95" cx="226.89" cy="209.82" r="0.85"/><circle class="cls-96" cx="269.65" cy="208.33" r="0.54"/><circle class="cls-97" cx="262.46" cy="208.32" r="0.54"/><circle class="cls-98" cx="228.63" cy="208.32" r="0.54"/><circle class="cls-99" cx="242.89" cy="208.32" r="0.54"/><circle class="cls-100" cx="242.89" cy="204.58" r="0.54"/><circle class="cls-101" cx="267.44" cy="211.1" r="0.54"/><circle class="cls-102" cx="236.15" cy="205.79" r="0.54"/><circle class="cls-103" cx="276.35" cy="204.51" r="0.54"/><circle class="cls-104" cx="281.46" cy="209.8" r="0.54"/><circle class="cls-105" cx="245.86" cy="209.8" r="0.54"/><circle class="cls-106" cx="272.34" cy="209.8" r="0.54"/><circle class="cls-107" cx="332.38" cy="211.75" r="0.85"/><circle class="cls-108" cx="315.6" cy="209.85" r="0.85"/><circle class="cls-109" cx="288.07" cy="209.85" r="0.85"/><circle class="cls-110" cx="307.39" cy="207.79" r="0.85"/><circle class="cls-111" cx="304.88" cy="206.06" r="0.85"/><circle class="cls-112" cx="319.92" cy="209.82" r="0.85"/><circle class="cls-113" cx="298.3" cy="209.82" r="0.85"/><circle class="cls-114" cx="295.28" cy="209.82" r="0.85"/><circle class="cls-115" cx="281.02" cy="209.82" r="0.85"/><circle class="cls-116" cx="323.78" cy="208.33" r="0.54"/><circle class="cls-117" cx="316.59" cy="208.32" r="0.54"/><circle class="cls-118" cx="282.77" cy="208.32" r="0.54"/><circle class="cls-119" cx="297.02" cy="208.32" r="0.54"/><circle class="cls-120" cx="297.02" cy="204.58" r="0.54"/><circle class="cls-121" cx="321.57" cy="211.1" r="0.54"/><circle class="cls-122" cx="290.29" cy="205.79" r="0.54"/><circle class="cls-123" cx="330.48" cy="204.51" r="0.54"/><circle class="cls-124" cx="299.99" cy="209.8" r="0.54"/><circle class="cls-125" cx="326.47" cy="209.8" r="0.54"/><circle class="cls-126" cx="278.69" cy="193.98" r="0.85"/><circle class="cls-127" cx="235.36" cy="193.95" r="0.85"/><circle class="cls-128" cx="291.35" cy="192.45" r="0.54"/><circle class="cls-129" cx="232.16" cy="192.45" r="0.54"/><circle class="cls-130" cx="249.16" cy="188.71" r="0.54"/><circle class="cls-131" cx="169.16" cy="211.75" r="0.85"/><circle class="cls-132" cx="175.08" cy="210.65" r="0.85"/><circle class="cls-133" cx="177.31" cy="209.82" r="0.85"/><circle class="cls-134" cx="167.25" cy="204.51" r="0.54"/><circle class="cls-135" cx="172.37" cy="209.8" r="0.54"/><circle class="cls-136" cx="223.29" cy="211.75" r="0.85"/><circle class="cls-137" cx="206.51" cy="209.85" r="0.85"/><circle class="cls-138" cx="178.98" cy="209.85" r="0.85"/><circle class="cls-139" cx="198.3" cy="207.79" r="0.85"/><circle class="cls-140" cx="195.79" cy="206.06" r="0.85"/><circle class="cls-141" cx="210.83" cy="209.82" r="0.85"/><circle class="cls-142" cx="189.21" cy="209.82" r="0.85"/><circle class="cls-143" cx="186.19" cy="209.82" r="0.85"/><circle class="cls-144" cx="171.93" cy="209.82" r="0.85"/><circle class="cls-145" cx="214.69" cy="208.33" r="0.54"/><circle class="cls-146" cx="207.5" cy="208.32" r="0.54"/><circle class="cls-147" cx="173.68" cy="208.32" r="0.54"/><circle class="cls-148" cx="187.93" cy="208.32" r="0.54"/><circle class="cls-149" cx="187.93" cy="204.58" r="0.54"/><circle class="cls-150" cx="212.48" cy="211.1" r="0.54"/><circle class="cls-151" cx="181.2" cy="205.79" r="0.54"/><circle class="cls-152" cx="221.39" cy="204.51" r="0.54"/><circle class="cls-153" cx="190.9" cy="209.8" r="0.54"/><circle class="cls-154" cx="217.38" cy="209.8" r="0.54"/><circle class="cls-155" cx="169.6" cy="193.98" r="0.85"/><circle class="cls-156" cx="211.15" cy="193.95" r="0.85"/><circle class="cls-157" cx="182.26" cy="192.45" r="0.54"/><circle class="cls-158" cx="205.66" cy="188.71" r="0.54"/><g id="cloud" class="cls-159"><path class="cls-3" d="M132.31,113.44a4.45,4.45,0,0,0-1.75.35,3,3,0,0,0-2.64-1.6,3.08,3.08,0,0,0-.75.1,3.89,3.89,0,0,0,.31-1.49,3.94,3.94,0,0,0-3.94-3.94h-.09a3.32,3.32,0,0,0-1.25-2.2,3.26,3.26,0,0,0-1.83-.67,3.28,3.28,0,1,0-6.51.62,3.25,3.25,0,0,0-2.54-1.21,3.31,3.31,0,0,0-3.31,3.31,2.83,2.83,0,0,0,0,.29,5.85,5.85,0,0,0-.92.87,3,3,0,0,0-2-.8,2.61,2.61,0,0,0-.48,0,5.82,5.82,0,0,0-6.82-9.06,6,6,0,0,0-1.27.77,4.65,4.65,0,0,0-2.71.31,4.58,4.58,0,0,0-2,1.78,3.29,3.29,0,0,0-2.24-.91l.31-.45a4.88,4.88,0,0,0-8.68-2.87,5.63,5.63,0,0,0-.45-.38,4.88,4.88,0,0,0-7.37,5.92,4.85,4.85,0,0,0-.23,2.66,4.9,4.9,0,0,0-3.7,1.14,4.87,4.87,0,0,0-7.29-4.12,4.86,4.86,0,0,0-.91-.46,4.09,4.09,0,0,0-.72-3.26,1.47,1.47,0,0,1,.1-.13,4,4,0,0,0,.8-2.82,4.57,4.57,0,0,0-.87-9,4.4,4.4,0,0,0-1.74.35,3,3,0,0,0-2.64-1.61,3.1,3.1,0,0,0-.76.11,3.9,3.9,0,0,0,.32-1.49,4,4,0,0,0-3.95-3.94h-.09a3.28,3.28,0,0,0-1.25-2.19,3.2,3.2,0,0,0-1.82-.67,3.25,3.25,0,0,0-1.26-2.5,3.28,3.28,0,0,0-5.25,3.12,3.28,3.28,0,0,0-2.54-1.21,3.32,3.32,0,0,0-3.32,3.31,2.85,2.85,0,0,0,0,.29,6.39,6.39,0,0,0-.93.87,3,3,0,0,0-2-.8,2.44,2.44,0,0,0-.48,0,5.82,5.82,0,0,0-6.83-9.06,6.15,6.15,0,0,0-1.26.77,4.55,4.55,0,0,0-2.71.31,4.48,4.48,0,0,0-2,1.78,3.32,3.32,0,0,0-5.53,3.11,4.55,4.55,0,0,0-.42,2,2.94,2.94,0,0,0-1.81.9,2.94,2.94,0,0,0-4.44,2.69,3.23,3.23,0,0,0,.18.83,4.21,4.21,0,0,0-.7.7,3.8,3.8,0,0,0-2-.62A7.07,7.07,0,0,0,4,76.5,5.82,5.82,0,0,0,0,74l0,43.13H136.79A4.56,4.56,0,0,0,132.31,113.44Z" transform="translate(0.14 0.03)"/></g><g class="cls-8"><path class="cls-160" d="M246.27,116.77a20.89,20.89,0,0,1-27.56,10.92,21.17,21.17,0,0,1-10.85-27.77A20.9,20.9,0,0,1,235.43,89,21.16,21.16,0,0,1,246.27,116.77Z" transform="translate(0.14 0.03)"/><path class="cls-161" d="M146.66,132.72A32.86,32.86,0,0,1,103.3,149.9a33.28,33.28,0,0,1-17.06-43.68A32.86,32.86,0,0,1,129.6,89,33.3,33.3,0,0,1,146.66,132.72Z" transform="translate(0.14 0.03)"/><path class="cls-162" d="M93.16,167.09a27.67,27.67,0,0,1-36.52,14.47,28,28,0,0,1-14.36-36.79A27.66,27.66,0,0,1,78.79,130.3,28,28,0,0,1,93.16,167.09Z" transform="translate(0.14 0.03)"/><path class="cls-163" d="M111,106a14.92,14.92,0,0,1-19.69,7.8A15.12,15.12,0,0,1,83.57,94a14.91,14.91,0,0,1,19.68-7.8A15.11,15.11,0,0,1,111,106Z" transform="translate(0.14 0.03)"/><path class="cls-164" d="M69.31,96.69a20.89,20.89,0,0,1-27.56,10.92A21.15,21.15,0,0,1,30.91,79.84,20.88,20.88,0,0,1,58.47,68.92,21.16,21.16,0,0,1,69.31,96.69Z" transform="translate(0.14 0.03)"/><path class="cls-165" d="M265.14,180.3a28.4,28.4,0,0,1-37.47,14.85,28.76,28.76,0,0,1-14.74-37.75,28.38,28.38,0,0,1,37.47-14.85A28.76,28.76,0,0,1,265.14,180.3Z" transform="translate(0.14 0.03)"/><path class="cls-166" d="M157.41,208.78a20.89,20.89,0,0,1-27.57,10.92A21.16,21.16,0,0,1,119,191.93,20.89,20.89,0,0,1,146.56,181,21.17,21.17,0,0,1,157.41,208.78Z" transform="translate(0.14 0.03)"/><path class="cls-167" d="M130.83,80.1A20.88,20.88,0,0,1,103.27,91,21.16,21.16,0,0,1,92.43,63.26,20.89,20.89,0,0,1,120,52.33,21.17,21.17,0,0,1,130.83,80.1Z" transform="translate(0.14 0.03)"/><path class="cls-168" d="M94.87,57.65A29.49,29.49,0,0,1,56,73.07,29.87,29.87,0,0,1,40.64,33.86,29.5,29.5,0,0,1,79.56,18.43,29.89,29.89,0,0,1,94.87,57.65Z" transform="translate(0.14 0.03)"/><path class="cls-169" d="M73.73,196.2a20.87,20.87,0,0,1-27.56,10.92,21.15,21.15,0,0,1-10.84-27.76,20.88,20.88,0,0,1,27.56-10.93A21.16,21.16,0,0,1,73.73,196.2Z" transform="translate(0.14 0.03)"/><path class="cls-170" d="M157.41,83.12A20.89,20.89,0,0,1,129.84,94,21.15,21.15,0,0,1,119,66.28a20.88,20.88,0,0,1,27.56-10.93A21.17,21.17,0,0,1,157.41,83.12Z" transform="translate(0.14 0.03)"/><path class="cls-171" d="M276,90.06A20.88,20.88,0,0,1,248.42,101a21.16,21.16,0,0,1-10.84-27.77,20.89,20.89,0,0,1,27.56-10.92A21.15,21.15,0,0,1,276,90.06Z" transform="translate(0.14 0.03)"/><path class="cls-172" d="M308.36,57.26A27,27,0,0,1,272.68,71.4a27.4,27.4,0,0,1-14-35.95,27,27,0,0,1,35.68-14.14A27.39,27.39,0,0,1,308.36,57.26Z" transform="translate(0.14 0.03)"/><path class="cls-173" d="M302.46,131.74a29,29,0,0,1-38.33,15.18,29.42,29.42,0,0,1-15.07-38.61,29,29,0,0,1,38.32-15.18A29.42,29.42,0,0,1,302.46,131.74Z" transform="translate(0.14 0.03)"/><path class="cls-174" d="M305.12,202.31a20.89,20.89,0,0,1-27.56,10.92,21.15,21.15,0,0,1-10.84-27.77,20.88,20.88,0,0,1,27.56-10.92A21.16,21.16,0,0,1,305.12,202.31Z" transform="translate(0.14 0.03)"/><path class="cls-175" d="M58,160A20.89,20.89,0,0,1,30.46,170.9a21.15,21.15,0,0,1-10.84-27.76,20.88,20.88,0,0,1,27.56-10.93A21.17,21.17,0,0,1,58,160Z" transform="translate(0.14 0.03)"/></g><rect class="cls-3" x="0.06" y="212.94" width="335.99" height="22.21"/><rect class="cls-176" x="0.06" y="217.7" width="335.97" height="0.36"/><rect class="cls-177" x="0.06" y="217.95" width="335.97" height="0.11"/><rect class="cls-178" x="0.06" y="217.81" width="335.97" height="0.14"/><rect class="cls-176" x="0.06" y="223.8" width="335.97" height="0.36"/><rect class="cls-177" x="0.06" y="224.05" width="335.97" height="0.11"/><rect class="cls-178" x="0.06" y="223.91" width="335.97" height="0.14"/><rect class="cls-176" x="0.06" y="230.04" width="335.97" height="0.36"/><rect class="cls-177" x="0.06" y="230.29" width="335.97" height="0.11"/><rect class="cls-178" x="0.06" y="230.14" width="335.97" height="0.14"/><g class="cls-179"><g class="cls-180"><rect class="cls-181" x="0.1" y="212.98" width="335.97" height="0.93" transform="translate(336.31 426.94) rotate(180)"/><rect class="cls-182" x="0.1" y="217.08" width="335.97" height="0.93" transform="translate(336.31 435.12) rotate(180)"/><rect class="cls-183" x="0.1" y="216.61" width="335.97" height="0.93" transform="translate(336.31 434.18) rotate(180)"/><rect class="cls-184" x="0.1" y="214.05" width="335.97" height="0.93" transform="translate(336.31 429.06) rotate(180)"/><rect class="cls-184" x="0.1" y="216.31" width="335.97" height="0.93" transform="translate(336.31 433.59) rotate(180)"/><rect class="cls-181" x="0.1" y="215.84" width="335.97" height="0.93" transform="translate(336.31 432.66) rotate(180)"/><rect class="cls-185" x="0.1" y="214.78" width="335.97" height="0.93" transform="translate(336.31 430.53) rotate(180)"/><rect class="cls-182" x="0.1" y="213.45" width="335.97" height="0.93" transform="translate(336.31 427.87) rotate(180)"/><rect class="cls-186" x="0.1" y="215.53" width="335.97" height="0.93" transform="translate(336.31 432.03) rotate(180)"/><rect class="cls-181" x="0.1" y="217.79" width="335.97" height="0.93" transform="translate(336.31 436.56) rotate(180)"/><rect class="cls-186" x="0.1" y="221.42" width="335.97" height="0.93" transform="translate(336.31 443.81) rotate(180)"/><rect class="cls-184" x="0.1" y="218.86" width="335.97" height="0.93" transform="translate(336.31 438.68) rotate(180)"/><rect class="cls-185" x="0.1" y="221.12" width="335.97" height="0.93" transform="translate(336.31 443.21) rotate(180)"/><rect class="cls-181" x="0.1" y="220.65" width="335.97" height="0.93" transform="translate(336.31 442.28) rotate(180)"/><rect class="cls-182" x="0.1" y="219.59" width="335.97" height="0.93" transform="translate(336.31 440.15) rotate(180)"/><rect class="cls-185" x="0.1" y="218.26" width="335.97" height="0.93" transform="translate(336.31 437.49) rotate(180)"/><rect class="cls-184" x="0.1" y="220.34" width="335.97" height="0.93" transform="translate(336.31 441.65) rotate(180)"/></g><g class="cls-180"><rect class="cls-182" x="0.24" y="232.42" width="335.97" height="1.87"/><rect class="cls-183" x="0.24" y="233.35" width="335.97" height="1.87"/><rect class="cls-181" x="0.24" y="230.98" width="335.97" height="1.87"/><rect class="cls-186" x="0.24" y="223.73" width="335.97" height="1.87"/><rect class="cls-184" x="0.24" y="228.86" width="335.97" height="1.87"/><rect class="cls-185" x="0.24" y="224.33" width="335.97" height="1.87"/><rect class="cls-181" x="0.24" y="225.26" width="335.97" height="1.87"/><rect class="cls-182" x="0.24" y="227.39" width="335.97" height="1.87"/><rect class="cls-185" x="0.24" y="230.05" width="335.97" height="1.87"/><rect class="cls-184" x="0.24" y="225.89" width="335.97" height="1.87"/></g></g><path class="cls-187" d="M335.9,197.13H-.08v15.79H1.17V205H21.64v7.9H22.9V205H44.16v7.9h1.26V205H66.68v7.9h1.26V205H89.2v7.9h1.26V205h19v7.9h1.26V205H132v7.9h1.26V205h21.26v7.9h1.26V205H177v7.9h1.26V205h21.26v7.9h1.26V205h21.26v7.9h1.26V205h21.26v7.9h1.26V205h21.26v7.9h1.26V205h21.26v7.9h1.26V205h21.26v7.9h1.25V205h21.27v7.9h1.25V197.13ZM21.64,203.78H1.17v-5.4H21.64Zm22.52,0H22.9v-5.4H44.16Zm22.52,0H45.42v-5.4H66.68Zm22.52,0H67.94v-5.4H89.2Zm1.26,0v-5.4h19v5.4Zm20.25,0v-5.4H132v5.4Zm22.52,0v-5.4h21.26v5.4Zm22.52,0v-5.4H177v5.4Zm22.52,0v-5.4h21.26v5.4Zm22.52,0v-5.4h21.26v5.4Zm22.52,0v-5.4h21.26v5.4Zm22.52,0v-5.4h21.26v5.4Zm22.52,0v-5.4h21.26v5.4Zm22.52,0v-5.4h21.26v5.4Zm22.51,0v-5.4h21.27v5.4Z" transform="translate(0.14 0.03)"/><rect class="cls-187" x="21.78" y="176.47" width="1.26" height="20.7"/><polygon class="cls-188" points="23.86 175.51 20.96 175.51 20.44 169.76 24.38 169.76 23.86 175.51"/><rect class="cls-189" x="19.96" y="168.27" width="4.91" height="1.5"/><rect class="cls-189" x="20.77" y="175.51" width="3.27" height="1.06"/><rect class="cls-187" x="20.44" y="167.53" width="3.94" height="0.74"/><path class="cls-189" d="M22.27,166.72a.78.78,0,0,0-.78.78h1.56A.78.78,0,0,0,22.27,166.72Z" transform="translate(0.14 0.03)"/><circle class="cls-190" cx="22.41" cy="172.12" r="3.81"/><rect class="cls-187" x="44.3" y="176.47" width="1.26" height="20.7"/><polygon class="cls-191" points="46.38 175.51 43.48 175.51 42.96 169.76 46.9 169.76 46.38 175.51"/><rect class="cls-189" x="42.48" y="168.27" width="4.91" height="1.5"/><rect class="cls-189" x="43.3" y="175.51" width="3.27" height="1.06"/><rect class="cls-187" x="42.96" y="167.53" width="3.94" height="0.74"/><path class="cls-189" d="M44.79,166.72a.78.78,0,0,0-.78.78h1.56A.78.78,0,0,0,44.79,166.72Z" transform="translate(0.14 0.03)"/><circle class="cls-192" cx="44.93" cy="172.12" r="3.81"/><rect class="cls-187" x="66.83" y="176.47" width="1.26" height="20.7"/><polygon class="cls-193" points="68.91 175.51 66 175.51 65.48 169.76 69.43 169.76 68.91 175.51"/><rect class="cls-189" x="65" y="168.27" width="4.91" height="1.5"/><rect class="cls-189" x="65.82" y="175.51" width="3.27" height="1.06"/><rect class="cls-187" x="65.48" y="167.53" width="3.94" height="0.74"/><path class="cls-189" d="M67.31,166.72a.78.78,0,0,0-.78.78h1.56A.78.78,0,0,0,67.31,166.72Z" transform="translate(0.14 0.03)"/><circle class="cls-194" cx="67.45" cy="172.12" r="3.81"/><rect class="cls-187" x="89.35" y="176.47" width="1.26" height="20.7"/><polygon class="cls-195" points="91.43 175.51 88.52 175.51 88 169.76 91.95 169.76 91.43 175.51"/><rect class="cls-189" x="87.52" y="168.27" width="4.91" height="1.5"/><rect class="cls-189" x="88.34" y="175.51" width="3.27" height="1.06"/><rect class="cls-187" x="88" y="167.53" width="3.94" height="0.74"/><path class="cls-189" d="M89.83,166.72a.78.78,0,0,0-.78.78h1.56A.78.78,0,0,0,89.83,166.72Z" transform="translate(0.14 0.03)"/><circle class="cls-196" cx="89.98" cy="172.12" r="3.81"/><rect class="cls-187" x="109.7" y="176.47" width="1.26" height="20.7"/><polygon class="cls-197" points="111.78 175.51 108.88 175.51 108.36 169.76 112.3 169.76 111.78 175.51"/><rect class="cls-189" x="107.87" y="168.27" width="4.91" height="1.5"/><rect class="cls-189" x="108.69" y="175.51" width="3.27" height="1.06"/><rect class="cls-187" x="108.36" y="167.53" width="3.94" height="0.74"/><path class="cls-189" d="M110.19,166.72a.77.77,0,0,0-.78.78H111A.78.78,0,0,0,110.19,166.72Z" transform="translate(0.14 0.03)"/><circle class="cls-198" cx="110.33" cy="172.12" r="3.81"/><rect class="cls-187" x="132" y="176.47" width="1.26" height="20.7"/><polygon class="cls-199" points="134.08 175.51 131.17 175.51 130.66 169.76 134.6 169.76 134.08 175.51"/><rect class="cls-189" x="130.17" y="168.27" width="4.91" height="1.5"/><rect class="cls-189" x="130.99" y="175.51" width="3.27" height="1.06"/><rect class="cls-187" x="130.66" y="167.53" width="3.94" height="0.74"/><path class="cls-189" d="M132.48,166.72a.78.78,0,0,0-.78.78h1.56A.77.77,0,0,0,132.48,166.72Z" transform="translate(0.14 0.03)"/><circle class="cls-200" cx="132.63" cy="172.12" r="3.81"/><rect class="cls-187" x="154.52" y="176.47" width="1.26" height="20.7"/><polygon class="cls-201" points="156.6 175.51 153.7 175.51 153.18 169.76 157.12 169.76 156.6 175.51"/><rect class="cls-189" x="152.69" y="168.27" width="4.91" height="1.5"/><rect class="cls-189" x="153.51" y="175.51" width="3.27" height="1.06"/><rect class="cls-187" x="153.18" y="167.53" width="3.94" height="0.74"/><path class="cls-189" d="M155,166.72a.78.78,0,0,0-.78.78h1.56A.78.78,0,0,0,155,166.72Z" transform="translate(0.14 0.03)"/><circle class="cls-202" cx="155.15" cy="172.12" r="3.81"/><rect class="cls-187" x="177.04" y="176.47" width="1.26" height="20.7"/><polygon class="cls-203" points="179.12 175.51 176.22 175.51 175.7 169.76 179.64 169.76 179.12 175.51"/><rect class="cls-189" x="175.22" y="168.27" width="4.91" height="1.5"/><rect class="cls-189" x="176.03" y="175.51" width="3.27" height="1.06"/><rect class="cls-187" x="175.7" y="167.53" width="3.94" height="0.74"/><path class="cls-189" d="M177.53,166.72a.78.78,0,0,0-.78.78h1.56A.78.78,0,0,0,177.53,166.72Z" transform="translate(0.14 0.03)"/><circle class="cls-204" cx="177.67" cy="172.12" r="3.81"/><rect class="cls-187" x="199.56" y="176.47" width="1.26" height="20.7"/><polygon class="cls-205" points="201.64 175.51 198.74 175.51 198.22 169.76 202.16 169.76 201.64 175.51"/><rect class="cls-189" x="197.74" y="168.27" width="4.91" height="1.5"/><rect class="cls-189" x="198.56" y="175.51" width="3.27" height="1.06"/><rect class="cls-187" x="198.22" y="167.53" width="3.94" height="0.74"/><path class="cls-189" d="M200.05,166.72a.78.78,0,0,0-.78.78h1.56A.78.78,0,0,0,200.05,166.72Z" transform="translate(0.14 0.03)"/><circle class="cls-206" cx="200.19" cy="172.12" r="3.81"/><rect class="cls-187" x="222.08" y="176.47" width="1.26" height="20.7"/><polygon class="cls-207" points="224.17 175.51 221.26 175.51 220.74 169.76 224.69 169.76 224.17 175.51"/><rect class="cls-189" x="220.26" y="168.27" width="4.91" height="1.5"/><rect class="cls-189" x="221.08" y="175.51" width="3.27" height="1.06"/><rect class="cls-187" x="220.74" y="167.53" width="3.94" height="0.74"/><path class="cls-189" d="M222.57,166.72a.78.78,0,0,0-.78.78h1.56A.78.78,0,0,0,222.57,166.72Z" transform="translate(0.14 0.03)"/><circle class="cls-208" cx="222.71" cy="172.12" r="3.81"/><rect class="cls-187" x="244.71" y="176.47" width="1.26" height="20.7"/><polygon class="cls-209" points="246.79 175.51 243.88 175.51 243.37 169.76 247.31 169.76 246.79 175.51"/><rect class="cls-189" x="242.88" y="168.27" width="4.91" height="1.5"/><rect class="cls-189" x="243.7" y="175.51" width="3.27" height="1.06"/><rect class="cls-187" x="243.36" y="167.53" width="3.94" height="0.74"/><path class="cls-189" d="M245.19,166.72a.78.78,0,0,0-.78.78H246A.78.78,0,0,0,245.19,166.72Z" transform="translate(0.14 0.03)"/><circle class="cls-210" cx="245.34" cy="172.12" r="3.81"/><rect class="cls-187" x="267.23" y="176.47" width="1.26" height="20.7"/><polygon class="cls-211" points="269.31 175.51 266.4 175.51 265.89 169.76 269.83 169.76 269.31 175.51"/><rect class="cls-189" x="265.4" y="168.27" width="4.91" height="1.5"/><rect class="cls-189" x="266.22" y="175.51" width="3.27" height="1.06"/><rect class="cls-187" x="265.89" y="167.53" width="3.94" height="0.74"/><path class="cls-189" d="M267.72,166.72a.78.78,0,0,0-.78.78h1.56A.78.78,0,0,0,267.72,166.72Z" transform="translate(0.14 0.03)"/><circle class="cls-212" cx="267.86" cy="172.12" r="3.81"/><rect class="cls-187" x="289.75" y="176.47" width="1.26" height="20.7"/><polygon class="cls-213" points="291.83 175.51 288.93 175.51 288.41 169.76 292.35 169.76 291.83 175.51"/><rect class="cls-189" x="287.93" y="168.27" width="4.91" height="1.5"/><rect class="cls-189" x="288.74" y="175.51" width="3.27" height="1.06"/><rect class="cls-187" x="288.41" y="167.53" width="3.94" height="0.74"/><path class="cls-189" d="M290.24,166.72a.78.78,0,0,0-.78.78H291A.78.78,0,0,0,290.24,166.72Z" transform="translate(0.14 0.03)"/><circle class="cls-214" cx="290.38" cy="172.12" r="3.81"/><rect class="cls-187" x="312.27" y="176.47" width="1.26" height="20.7"/><polygon class="cls-215" points="314.35 175.51 311.45 175.51 310.93 169.76 314.87 169.76 314.35 175.51"/><rect class="cls-189" x="310.45" y="168.27" width="4.91" height="1.5"/><rect class="cls-189" x="311.27" y="175.51" width="3.27" height="1.06"/><rect class="cls-187" x="310.93" y="167.53" width="3.94" height="0.74"/><path class="cls-189" d="M312.76,166.72a.78.78,0,0,0-.78.78h1.56A.78.78,0,0,0,312.76,166.72Z" transform="translate(0.14 0.03)"/><circle class="cls-216" cx="312.9" cy="172.12" r="3.81"/><path class="cls-217" d="M.11,136.08H67.56c-4.51-2.37-8.46-4.34-11.35-5.75-3.18-1.56-6.31-3.21-9.43-4.88A96.82,96.82,0,0,0,.11,113.9Z" transform="translate(0.14 0.03)"/><path class="cls-218" d="M95.53,146.54c-3.33-1.61-6.61-3.34-9.87-5.12C55.39,124.86,25.53,122.81.11,126.64v28.5H112.55C105.55,151.46,99.55,148.49,95.53,146.54Z" transform="translate(0.14 0.03)"/><path class="cls-219" d="M168,93.43A23.53,23.53,0,1,0,144.46,69.9,23.58,23.58,0,0,0,168,93.43Z" transform="translate(0.14 0.03)"/><path class="cls-220" d="M168,85.46A15.56,15.56,0,1,0,152.43,69.9,15.59,15.59,0,0,0,168,85.46Z" transform="translate(0.14 0.03)"/><path class="cls-221" d="M1,155.14H.11v4.38h121c-3.06-1.61-5.92-3.07-8.52-4.38Z" transform="translate(0.14 0.03)"/><path class="cls-222" d="M118.56,51.62A5,5,0,0,0,118,53a17.14,17.14,0,0,1,6.35,3A14.62,14.62,0,0,0,118.56,51.62Z" transform="translate(0.14 0.03)"/><path class="cls-222" d="M105,51.54a5.27,5.27,0,0,1,.58,1.42,17.28,17.28,0,0,0-6.39,2.93A14.63,14.63,0,0,1,105,51.54Z" transform="translate(0.14 0.03)"/><path class="cls-223" d="M118,53a5,5,0,0,1,.6-1.42A6.4,6.4,0,0,0,111.75,53,6.41,6.41,0,0,0,105,51.54a5.27,5.27,0,0,1,.58,1.42,5.62,5.62,0,0,1,6.1,2.37h.19A5.62,5.62,0,0,1,118,53Z" transform="translate(0.14 0.03)"/><path class="cls-222" d="M67.17,44.07a1.91,1.91,0,0,0-.23.54,6.63,6.63,0,0,1,2.42,1.14A5.48,5.48,0,0,0,67.17,44.07Z" transform="translate(0.14 0.03)"/><path class="cls-222" d="M62,44a1.91,1.91,0,0,1,.22.54,6.54,6.54,0,0,0-2.44,1.11A5.47,5.47,0,0,1,62,44Z" transform="translate(0.14 0.03)"/><path class="cls-223" d="M66.94,44.61a1.91,1.91,0,0,1,.23-.54,2.47,2.47,0,0,0-2.6.52A2.42,2.42,0,0,0,62,44a1.91,1.91,0,0,1,.22.54,2.13,2.13,0,0,1,2.32.9h.08A2.13,2.13,0,0,1,66.94,44.61Z" transform="translate(0.14 0.03)"/><path class="cls-222" d="M272.77,44.07a1.91,1.91,0,0,0-.22.54A6.63,6.63,0,0,1,275,45.75,5.5,5.5,0,0,0,272.77,44.07Z" transform="translate(0.14 0.03)"/><path class="cls-222" d="M267.59,44a1.91,1.91,0,0,1,.22.54,6.63,6.63,0,0,0-2.44,1.11A5.47,5.47,0,0,1,267.59,44Z" transform="translate(0.14 0.03)"/><path class="cls-223" d="M272.55,44.61a1.91,1.91,0,0,1,.22-.54,2.45,2.45,0,0,0-2.59.52,2.44,2.44,0,0,0-2.59-.55,1.91,1.91,0,0,1,.22.54,2.15,2.15,0,0,1,2.33.9h.07A2.15,2.15,0,0,1,272.55,44.61Z" transform="translate(0.14 0.03)"/><path class="cls-222" d="M83.77,56.71a3.54,3.54,0,0,0-.43,1A12.5,12.5,0,0,1,88,60,10.67,10.67,0,0,0,83.77,56.71Z" transform="translate(0.14 0.03)"/><path class="cls-222" d="M73.8,56.65a3.38,3.38,0,0,1,.42,1,12.67,12.67,0,0,0-4.68,2.14A10.71,10.71,0,0,1,73.8,56.65Z" transform="translate(0.14 0.03)"/><path class="cls-223" d="M83.34,57.75a3.54,3.54,0,0,1,.43-1,4.69,4.69,0,0,0-5,1,4.67,4.67,0,0,0-5-1.07,3.38,3.38,0,0,1,.42,1,4.14,4.14,0,0,1,4.48,1.74h.14A4.11,4.11,0,0,1,83.34,57.75Z" transform="translate(0.14 0.03)"/><path class="cls-222" d="M249.55,61.26a8.86,8.86,0,0,0-1,2.54c5.9,1,11.4,5,11.4,5C256.06,64.56,252.57,62.28,249.55,61.26Z" transform="translate(0.14 0.03)"/><path class="cls-222" d="M225.42,61.74a8.69,8.69,0,0,1,1.08,2.5c-5.85,1.18-11.2,5.48-11.2,5.48C219,65.29,222.43,62.88,225.42,61.74Z" transform="translate(0.14 0.03)"/><path class="cls-223" d="M248.56,63.8a8.86,8.86,0,0,1,1-2.54,11.37,11.37,0,0,0-12,2.76,11.35,11.35,0,0,0-12.11-2.28,8.69,8.69,0,0,1,1.08,2.5c3.89-.79,8-.21,10.94,3.92h.34C240.55,63.91,244.64,63.16,248.56,63.8Z" transform="translate(0.14 0.03)"/><polygon class="cls-3" points="39.9 89.53 28.34 89.53 26.61 127.42 26.52 127.42 41.39 127.42 39.9 89.53"/><rect class="cls-224" x="33.15" y="93.84" width="2" height="4.31"/><rect class="cls-189" x="28.99" y="81.09" width="10.42" height="1.42"/><rect class="cls-3" x="28.99" y="72.76" width="10.42" height="8.32"/><g class="cls-225"><polygon class="cls-226" points="36.7 127.42 41.39 127.42 39.9 89.53 37.13 89.54 36.7 127.42"/></g><rect class="cls-189" x="28" y="87.14" width="12.26" height="2.38" rx="0.55" ry="0.55"/><path class="cls-227" d="M40.94,83.18a.71.71,0,0,0-.71-.71H27.64a.7.7,0,0,0-.7.71v2.21H41V83.18Zm-2-.38v1.87H37.8V82.8Zm-1.43,0v1.87H36.36V82.8ZM36,82.8v1.87H34.93V82.8Zm-1.44,0v1.87H33.49V82.8Zm-1.43,0v1.87H32.05V82.8Zm-1.44,0v1.87H30.61V82.8Zm-1.44,0v1.87H29.18V82.8Zm-3,.38a.38.38,0,0,1,.38-.38h1.21v1.87H27.26Zm12,1.49V82.8h1a.39.39,0,0,1,.39.38v1.49Z" transform="translate(0.14 0.03)"/><path class="cls-228" d="M41,85.39h-14s0,1.6,0,1.6a.63.63,0,0,0,.62.63H40.33A.63.63,0,0,0,41,87S41,85.43,41,85.39Z" transform="translate(0.14 0.03)"/><polygon class="cls-189" points="34.2 66.62 28 72.76 34.2 72.75 40.39 72.76 34.2 66.62"/><g id="cloud-2" data-name="cloud" class="cls-229"><path class="cls-3" d="M336,45.9c-.92-1.07-3-.67-3.6.08a3.67,3.67,0,0,0-.61,3.52,1.94,1.94,0,0,0-1.06.34,2.6,2.6,0,0,0-.38-.36,1.22,1.22,0,0,0,.09-.43A1.53,1.53,0,0,0,329,47.46a1.6,1.6,0,0,0-.87.23,1.47,1.47,0,0,0-1-.45,2.45,2.45,0,0,0-.23-1,1.72,1.72,0,0,0-2.9-1.57,2.39,2.39,0,0,0-1.07-.91,2.33,2.33,0,0,0-1.42-.13,2.7,2.7,0,0,0-.66-.4A3,3,0,0,0,317.4,48l-.25,0a1.54,1.54,0,0,0-1,.44,2.62,2.62,0,0,0-.49-.45.77.77,0,0,0,0-.15,1.73,1.73,0,0,0-1.76-1.69,1.7,1.7,0,0,0-1.31.64,1.64,1.64,0,0,0-.35-1.3,1.71,1.71,0,0,0-3,1,1.63,1.63,0,0,0-.94.37,1.69,1.69,0,0,0-.63,1.15h-.05a2.05,2.05,0,0,0-2,2.09,2,2,0,0,0,.17.77,1.6,1.6,0,0,0-.39,0,1.55,1.55,0,0,0-1.36.86,2.49,2.49,0,0,0-.91-.17,2.38,2.38,0,0,0-.37,4.72,2.06,2.06,0,0,0,.44,1.45s0,0,.05.07a2.16,2.16,0,0,0-.35,1.7,2.94,2.94,0,0,0-.46.25,2.53,2.53,0,0,0-3.76,2.2,2.57,2.57,0,0,0-1.93-.56,2.52,2.52,0,0,0-.14-1.38,2.53,2.53,0,0,0-3.88-3,2.31,2.31,0,0,0-.24.2A2.53,2.53,0,0,0,288,58.71l.16.24a1.74,1.74,0,0,0-1.16.49,2.37,2.37,0,0,0-1.06-.91,2.41,2.41,0,0,0-1.42-.13,3.14,3.14,0,0,0-.66-.4,3,3,0,0,0-3.47,4.77l-.25,0a1.54,1.54,0,0,0-1,.44,3,3,0,0,0-.49-.45.38.38,0,0,0,0-.15,1.72,1.72,0,0,0-3.06-1,1.66,1.66,0,0,0-.35-1.31,1.71,1.71,0,0,0-3,1,1.71,1.71,0,0,0-1.57,1.52h-.05a1.84,1.84,0,0,0-2,1.83v0l67.49.09Z" transform="translate(0.14 0.03)"/></g><g id="cloud-3" data-name="cloud" class="cls-230"><path class="cls-231" d="M199.73,113.76a5,5,0,0,1,1.79.33,3.11,3.11,0,0,1,2.72-1.52,3.33,3.33,0,0,1,.78.1,3.39,3.39,0,0,1-.32-1.42,3.93,3.93,0,0,1,4.06-3.76h.09a3.09,3.09,0,0,1,1.29-2.08,3.61,3.61,0,0,1,1.88-.65,3.05,3.05,0,0,1,1.3-2.38,3.58,3.58,0,0,1,4.75.56,3,3,0,0,1,.66,2.41,3.5,3.5,0,0,1,2.61-1.15,3.29,3.29,0,0,1,3.42,3.16,2.48,2.48,0,0,1,0,.27,5.39,5.39,0,0,1,1,.83,3.2,3.2,0,0,1,2.06-.76,3.89,3.89,0,0,1,.49,0,5.2,5.2,0,0,1-.89-5.81,6.21,6.21,0,0,1,7.92-2.81,6.1,6.1,0,0,1,1.3.74,5.07,5.07,0,0,1,2.79.29,4.59,4.59,0,0,1,2.09,1.69,3.6,3.6,0,0,1,2.31-.86l-.32-.43a4.55,4.55,0,0,1,2-3.54,5.3,5.3,0,0,1,6.93.81,5.9,5.9,0,0,1,.47-.37,5.31,5.31,0,0,1,7,.93,4.36,4.36,0,0,1,.55,4.71,4.24,4.24,0,0,1,.23,2.53,5.35,5.35,0,0,1,3.81,1.08,4.51,4.51,0,0,1,2-3.6,5.36,5.36,0,0,1,5.51-.32,5.58,5.58,0,0,1,.93-.43,3.71,3.71,0,0,1,.75-3.11l-.11-.12a3.66,3.66,0,0,1-.82-2.68,4.46,4.46,0,0,1-3.81-4.27,4.54,4.54,0,0,1,4.71-4.35,5,5,0,0,1,1.79.33,3.13,3.13,0,0,1,2.72-1.52,3.33,3.33,0,0,1,.78.1,3.36,3.36,0,0,1-.32-1.42,3.92,3.92,0,0,1,4.06-3.75h.09A3.09,3.09,0,0,1,284,79.49a3.51,3.51,0,0,1,1.88-.64,3,3,0,0,1,1.3-2.38A3.56,3.56,0,0,1,292,77a2.94,2.94,0,0,1,.66,2.41,3.5,3.5,0,0,1,2.62-1.15,3.29,3.29,0,0,1,3.41,3.15,1.33,1.33,0,0,1,0,.28,5.12,5.12,0,0,1,1,.83,3.13,3.13,0,0,1,2.06-.77,2.72,2.72,0,0,1,.49,0,5.2,5.2,0,0,1-.89-5.81,6.2,6.2,0,0,1,7.92-2.81,6.32,6.32,0,0,1,1.3.73,5,5,0,0,1,2.79.3,4.59,4.59,0,0,1,2.09,1.69,3.62,3.62,0,0,1,3.74-.6A3.11,3.11,0,0,1,321,78.89a3.91,3.91,0,0,1,.43,1.85,3.15,3.15,0,0,1,1.87.87,3.23,3.23,0,0,1,1.73-.4,2.88,2.88,0,0,1,2.84,3,2.61,2.61,0,0,1-.19.79,4.24,4.24,0,0,1,.73.67,4.29,4.29,0,0,1,2.11-.6,6.34,6.34,0,0,1,1.34-6.42,6.08,6.08,0,0,1,4.1-2.35l0,41.05H195.11A4.61,4.61,0,0,1,199.73,113.76Z" transform="translate(0.14 0.03)"/></g><path class="cls-3" d="M160.92,44.58a2.47,2.47,0,0,0-.95-1.94,2.5,2.5,0,0,0-2.72-.21,2.79,2.79,0,0,0-.45-.24,2.09,2.09,0,0,0-.34-1.66s0,0,0-.07a2,2,0,0,0,.43-1.42,2.32,2.32,0,0,0-.37-4.6,2.15,2.15,0,0,0-.88.16,1.53,1.53,0,0,0-1.33-.84,1.58,1.58,0,0,0-.38.05,2.06,2.06,0,0,0,.17-.75,2,2,0,0,0-2-2h-.05a1.64,1.64,0,0,0-.61-1.12,1.73,1.73,0,0,0-.92-.36,1.7,1.7,0,0,0-.62-1.28,1.68,1.68,0,0,0-2.35.26,1.64,1.64,0,0,0-.34,1.28,1.69,1.69,0,0,0-1.28-.63,1.67,1.67,0,0,0-1.71,1.65.76.76,0,0,0,0,.15,2.46,2.46,0,0,0-.48.43,1.5,1.5,0,0,0-1-.42l-.24,0a2.94,2.94,0,0,0-1.39-4.76,2.84,2.84,0,0,0-2.76.47,2.29,2.29,0,0,0-1.26.15,2.33,2.33,0,0,0-1,.88,1.7,1.7,0,0,0-1.84-.35,1.73,1.73,0,0,0-.77.69,2.29,2.29,0,0,0-.28-.07,2.06,2.06,0,0,0-.23-1,1.68,1.68,0,0,0-2.83-1.53,2.28,2.28,0,0,0-1-.89,2.35,2.35,0,0,0-1.38-.13,3,3,0,0,0-.65-.38,3,3,0,0,0-3.39,4.65l-.24,0a1.55,1.55,0,0,0-1,.43,3.27,3.27,0,0,0-.47-.44c0-.05,0-.09,0-.14a1.69,1.69,0,0,0-1.71-1.66,1.67,1.67,0,0,0-1.28.64A1.67,1.67,0,0,0,116.32,26a1.63,1.63,0,0,0-.62,1.28,1.6,1.6,0,0,0-.92.36,1.65,1.65,0,0,0-.62,1.12h0a2,2,0,0,0-2,2,1.87,1.87,0,0,0,.17.75,2.34,2.34,0,0,0-.39,0,1.52,1.52,0,0,0-1.32.83,2.23,2.23,0,0,0-.89-.16,2.32,2.32,0,0,0-.36,4.6,2.1,2.1,0,0,0,.42,1.43l.06.06a2.07,2.07,0,0,0-.34,1.67,2.82,2.82,0,0,0-.46.23,2.48,2.48,0,0,0-3.67,2.16,2.49,2.49,0,0,0-1.88-.55,2.51,2.51,0,0,0-.14-1.35,2.47,2.47,0,0,0-3.79-2.94l-.23.2A2.47,2.47,0,0,0,95,39.21l.16.23a1.71,1.71,0,0,0-1.13.48,2.31,2.31,0,0,0-1-.88,2.35,2.35,0,0,0-1.38-.14,3,3,0,0,0-.65-.38A3,3,0,0,0,87,40.08a3,3,0,0,0,.49,3.1l-.24,0a1.47,1.47,0,0,0-1,.42,2.73,2.73,0,0,0-.47-.43s0-.1,0-.15a1.68,1.68,0,0,0-1.71-1.65,1.62,1.62,0,0,0-1.28.63,1.68,1.68,0,0,0-.35-1.28,1.66,1.66,0,0,0-3,1,1.6,1.6,0,0,0-.92.36A1.7,1.7,0,0,0,78,43.2h0A1.8,1.8,0,0,0,76,45v0l48.47.06v0h36.66v-.65Z" transform="translate(0.14 0.03)"/><path class="cls-232" d="M227.83,235.27c-.14,0-.27-.09-.41-.11a2.27,2.27,0,0,0-.38-.44,3.5,3.5,0,0,0-.32-1.89,3.43,3.43,0,0,0-1.73-1.69,4.41,4.41,0,0,0-2.32-.34,3,3,0,0,0-.69-.46,4.27,4.27,0,0,0-2.41-.32c-.12,0-.06-.08-.19-.11a1.87,1.87,0,0,0-.68-.08c-.16-.09.22-.18.22-.26h0c0-.21-1.25-.38-1.58-.53s-1.31-.18-1.61-.27a4,4,0,0,0-.78-.1,4,4,0,0,0-2.63-.81c-1.93,0-3.07.94-3.45,2h-.24a4,4,0,0,0-2.72.93,4.33,4.33,0,0,0-1.94-1,4.4,4.4,0,0,0-1.77,0,4,4,0,0,0-2.75-1,3.33,3.33,0,0,0-1.52.35c-.11-.08-.23-.17-.35-.24a3.84,3.84,0,0,0-.54-.35,2.3,2.3,0,0,0-.27-.76,3.79,3.79,0,0,0,.18-.34l.22-.51a2.31,2.31,0,0,0-.4-2.2,3.77,3.77,0,0,0-2.25-1.3,4.63,4.63,0,0,0-2,0,7,7,0,0,0-1.3-.87,4.62,4.62,0,0,0-2.9-.27,3.29,3.29,0,0,0-.54.14,4.84,4.84,0,0,0-3.25.11,4.39,4.39,0,0,0-1.64-.79l-.87-.27a4.63,4.63,0,0,0-3,.21c-.52-.2-1.09-.74-1.67-.74h-.22a4,4,0,0,0-3.64,2.79,4.26,4.26,0,0,0-3.09,2,3.18,3.18,0,0,0-2.77,1.94,4.3,4.3,0,0,0-2,.7,3.64,3.64,0,0,0-3.23,2.33,2.62,2.62,0,0,0-.12-.54,4.13,4.13,0,0,0-1.19-1.57,3.36,3.36,0,0,0-1.64-.7,2.57,2.57,0,0,0,0-1.48,3.16,3.16,0,0,0-1.74-1.7,4.71,4.71,0,0,0-2.57-.31,4.54,4.54,0,0,0-2-.55,4.91,4.91,0,0,0-1.18-.77,4.82,4.82,0,0,0-2.89-.27l-.11,0a4.57,4.57,0,0,0-3.77-.85,3.34,3.34,0,0,0-2.69,2.32l-.18,0a7,7,0,0,0-1.76.72,5.85,5.85,0,0,0-1.33,1.13,2.18,2.18,0,0,0-.38,2.16,3.34,3.34,0,0,0-.87,1,6.22,6.22,0,0,0-1.14,0A4.65,4.65,0,0,0,133,229a2.59,2.59,0,0,0-.5-1.33,3.81,3.81,0,0,0-2.24-1.29,4.89,4.89,0,0,0-2.81.28,2.75,2.75,0,0,0-1-1.53c-.38-.31-1.27-.51-1.27-.65v-.32c0-1.61-1.8-2.78-3.83-2.83a3.84,3.84,0,0,0-3.59,2,4.67,4.67,0,0,0-1.11.44c-.24-.06-.48-.13-.73-.18a4.55,4.55,0,0,0-1.23-.84,4,4,0,0,0-1.42-.36,4.33,4.33,0,0,0-1.89-.91,5.08,5.08,0,0,0-2.89.32L108,222a3.08,3.08,0,0,0-1.71,1.73,1.37,1.37,0,0,0-.07.29,5.07,5.07,0,0,0-1,0,3.22,3.22,0,0,0-1.53-1.3l-.43-.16a4.55,4.55,0,0,0-5.13,1.07,2.2,2.2,0,0,0-.44,1,4.61,4.61,0,0,0-2.89.84l-.43.34a2.46,2.46,0,0,0-1,2.16,3.17,3.17,0,0,0-1.35.91c-.24.11-.47.14-.68.26a4.35,4.35,0,0,0-1,0h-.44l-.16,0a4.53,4.53,0,0,0-.87-.54,4,4,0,0,0-.53-1.22,3.53,3.53,0,0,0-2.08-1.24l-.17-.38a4,4,0,0,0-4-2,4.25,4.25,0,0,0-2.69-1.15,2.29,2.29,0,0,0-.5-.3l-.43-.16a5.82,5.82,0,0,0-1.39-.32H77a4.58,4.58,0,0,0-.63,0,4.4,4.4,0,0,0-2.65.86,2.69,2.69,0,0,0-.85,1.08,4.91,4.91,0,0,0-2.75.34,3.34,3.34,0,0,0-1.71,1.73,7.2,7.2,0,0,0-.75,3.84,1.85,1.85,0,0,0-.23,0,2.3,2.3,0,0,0-2.36,1.7,2.1,2.1,0,0,0-1.13.84c-.07.09-.13.46-.19.46h-.38c-.24,0-.47-.16-.69-.11-.25-.11-.51-.42-.85-.49a4.68,4.68,0,0,0-1.71,0,2.14,2.14,0,0,0-.9.37,2.31,2.31,0,0,0-1.55-1.06L56.3,231a2.78,2.78,0,0,0-2.36.57,2.91,2.91,0,0,0-2.06.12l-1.3.68a2,2,0,0,0-1.09,1.27,3.28,3.28,0,0,0-1.62-.11l-1.08.22a2.29,2.29,0,0,0-1.1.55,2.31,2.31,0,0,0-1.41,1Z" transform="translate(0.14 0.03)"/><path class="cls-3" d="M261,82.31s2.2,22.24-.06,36.1l8.42,0S267.5,97,261,82.31Z" transform="translate(0.14 0.03)"/><path class="cls-233" d="M268,120.42l-.18.39a5.4,5.4,0,0,1-4.91,3.09H252.42a2.6,2.6,0,0,1-2.2-1.39l-1.16-2.11Z" transform="translate(0.14 0.03)"/><polygon class="cls-234" points="250.68 119.89 264.26 119.89 268.12 120.46 249.21 120.43 250.68 119.89"/><polygon class="cls-235" points="257 120.44 257.38 118.97 265.18 119.06 265.82 120.44 257 120.44"/><rect class="cls-189" x="260.57" y="82.31" width="0.47" height="36.67" transform="translate(521.76 201.32) rotate(-180)"/><circle class="cls-234" cx="264.24" cy="119.79" r="0.35"/><circle class="cls-234" cx="263.04" cy="119.79" r="0.35"/><circle class="cls-234" cx="261.83" cy="119.79" r="0.35"/><circle class="cls-234" cx="260.63" cy="119.79" r="0.35"/><circle class="cls-234" cx="259.43" cy="119.79" r="0.35"/><circle class="cls-234" cx="258.23" cy="119.79" r="0.35"/><path class="cls-236" d="M261,129.38v-.56h0l4,0,.47-1,2.47-.37-.18-.39a5.39,5.39,0,0,0-4.91-3.08H252.42a2.57,2.57,0,0,0-2.2,1.39l-1.16,2.11,1.48.54H257l.24.91,3.33,0v36.67H261V129.78c2.16,13.89,0,35.71,0,35.71,6.46-14.66,8.36-36.13,8.36-36.13Z" transform="translate(0.14 0.03)"/><path class="cls-237" d="M336.07,235.27v-5.73a3.83,3.83,0,0,0-2.42.87,4.33,4.33,0,0,0-1.92-1,4.23,4.23,0,0,0-1.77,0,4.11,4.11,0,0,0-2.75-1.09,3.23,3.23,0,0,0-1.52.33c-.11-.08-.23-.17-.35-.24a3.29,3.29,0,0,0-.53-.36,2.59,2.59,0,0,0-.26-.77,2.27,2.27,0,0,0,.19-.34c.07-.16.14-.33.22-.5a2.32,2.32,0,0,0-.37-2.21,3.88,3.88,0,0,0-2.24-1.33,4.8,4.8,0,0,0-2,0,7.16,7.16,0,0,0-1.29-.9,4.65,4.65,0,0,0-2.89-.3,3,3,0,0,0-.54.13,5,5,0,0,0-3.26.07,4.08,4.08,0,0,0-1.63-.8l-.86-.29a4.64,4.64,0,0,0-3,.17c-.52-.2-1.08-.75-1.67-.75H305a4,4,0,0,0-3.68,2.75,4.25,4.25,0,0,0-3.12,1.93,3.22,3.22,0,0,0-2.79,1.91,4.4,4.4,0,0,0-2,.68,3.62,3.62,0,0,0-3.26,2.29,2.62,2.62,0,0,0-.12-.54,4.11,4.11,0,0,0-1.17-1.59,3.44,3.44,0,0,0-1.63-.72,2.49,2.49,0,0,0,0-1.48,3.12,3.12,0,0,0-1.71-1.72,4.81,4.81,0,0,0-2.57-.34,4.35,4.35,0,0,0-2-.57,5.22,5.22,0,0,0-1.17-.79,4.74,4.74,0,0,0-2.89-.3l-.11,0a4.55,4.55,0,0,0-3.76-.89,3.32,3.32,0,0,0-2.71,2.29l-.19,0a7.18,7.18,0,0,0-1.76.7,6.11,6.11,0,0,0-1.35,1.11,2.22,2.22,0,0,0-.4,2.16,3.26,3.26,0,0,0-.89,1,5.35,5.35,0,0,0-1.13,0,4.7,4.7,0,0,0-3.91-.44,2.69,2.69,0,0,0-.48-1.33A3.82,3.82,0,0,0,258,225a4.89,4.89,0,0,0-2.81.25,2.76,2.76,0,0,0-.94-1.55c-.37-.31-1.27-.52-1.27-.66v-.32c0-1.61-1.76-2.8-3.79-2.88a3.86,3.86,0,0,0-3.62,2,4,4,0,0,0-1.11.42l-.74-.19a4.75,4.75,0,0,0-1.21-.86,4.2,4.2,0,0,0-1.41-.37,4.32,4.32,0,0,0-1.88-.93,5.19,5.19,0,0,0-2.9.28l-.43.16a3.14,3.14,0,0,0-1.74,1.71c0,.1,0,.2-.07.3a5,5,0,0,0-1-.06,3.22,3.22,0,0,0-1.52-1.31l-.43-.17a4.55,4.55,0,0,0-5.14,1,2,2,0,0,0-.45,1,4.62,4.62,0,0,0-2.9.8l-.44.34a2.45,2.45,0,0,0-1.06,2.14,3.28,3.28,0,0,0-1.37.9c-.24.11-.47.13-.68.25a5.79,5.79,0,0,0-1,0h-.6a5.42,5.42,0,0,0-.86-.54,3.9,3.9,0,0,0-.52-1.22,3.54,3.54,0,0,0-2.06-1.28c-.06-.12-.11-.25-.17-.38a4,4,0,0,0-4-2.08,4.23,4.23,0,0,0-2.67-1.19,2.55,2.55,0,0,0-.5-.3l-.43-.17a5.4,5.4,0,0,0-1.39-.33h-.1q-.31,0-.63-.06a4.38,4.38,0,0,0-2.65.83,2.65,2.65,0,0,0-.87,1.07,5,5,0,0,0-2.76.3,3.45,3.45,0,0,0-1.73,1.72,7.26,7.26,0,0,0-.79,3.83h-.23a2.29,2.29,0,0,0-2.38,1.67,2.14,2.14,0,0,0-1.15.83c-.06.09-.13.46-.19.46h-.38c-.24,0-.47-.18-.69-.12-.25-.12-.51-.43-.84-.51a4.47,4.47,0,0,0-1.71,0,2.12,2.12,0,0,0-.91.36,2.3,2.3,0,0,0-1.54-1.08l-1.32-.28a2.81,2.81,0,0,0-2.37.55,2.86,2.86,0,0,0-2.06.09l-1.31.67a2,2,0,0,0-1.1,1.25,3.4,3.4,0,0,0-1.62-.13l-1.09.21a2.16,2.16,0,0,0-1.1.54,2.08,2.08,0,0,0-1.72,1.77s0,.08,0,.13l-.23.09a3,3,0,0,0-1.55,1.36Z" transform="translate(0.14 0.03)"/><path class="cls-238" d="M-.08,235.27H108.79a3.33,3.33,0,0,0-.33-1.39,3.51,3.51,0,0,0-1.73-1.71,4.41,4.41,0,0,0-2.32-.33,3,3,0,0,0-.69-.47,4.35,4.35,0,0,0-2.41-.33c-.12,0-.06-.07-.18-.1a1.7,1.7,0,0,0-.69-.09c-.15-.09.22-.18.22-.25h0c0-.2-1.24-.38-1.57-.53s-1.31-.19-1.61-.28a4.17,4.17,0,0,0-.78-.1,4,4,0,0,0-2.63-.82c-1.93,0-3.07.94-3.45,2h-.25a3.91,3.91,0,0,0-2.72.92,4.31,4.31,0,0,0-3.7-1,4,4,0,0,0-2.75-1.06,3.18,3.18,0,0,0-1.52.34c-.12-.08-.23-.17-.36-.24a3.62,3.62,0,0,0-.54-.36,2.15,2.15,0,0,0-.26-.76,2.21,2.21,0,0,0,.18-.34l.22-.5a2.3,2.3,0,0,0-.39-2.21,3.82,3.82,0,0,0-2.25-1.3,4.48,4.48,0,0,0-2,0,7,7,0,0,0-1.3-.88,4.59,4.59,0,0,0-2.89-.28,3.05,3.05,0,0,0-.54.14,4.93,4.93,0,0,0-3.26.1,4.27,4.27,0,0,0-1.63-.79l-.87-.28a4.7,4.7,0,0,0-3,.2c-.52-.2-1.09-.74-1.67-.74H58.9a3.94,3.94,0,0,0-3.64,2.78,4.29,4.29,0,0,0-3.11,2,3.19,3.19,0,0,0-2.77,1.93,4.41,4.41,0,0,0-2,.7,3.64,3.64,0,0,0-3.24,2.32,2.48,2.48,0,0,0-.12-.54,4.06,4.06,0,0,0-1.19-1.58,3.33,3.33,0,0,0-1.63-.7,2.52,2.52,0,0,0,0-1.49,3.12,3.12,0,0,0-1.74-1.7,4.85,4.85,0,0,0-2.56-.32,4.68,4.68,0,0,0-2-.55,5.19,5.19,0,0,0-1.17-.78,4.93,4.93,0,0,0-2.9-.27l-.11,0a4.57,4.57,0,0,0-3.77-.86,3.34,3.34,0,0,0-2.69,2.31l-.18,0a7.05,7.05,0,0,0-1.76.73A5.83,5.83,0,0,0,21,227a2.21,2.21,0,0,0-.38,2.16,3.22,3.22,0,0,0-.87,1,5.45,5.45,0,0,0-1.14,0,4.66,4.66,0,0,0-3.91-.4,2.64,2.64,0,0,0-.49-1.32A3.89,3.89,0,0,0,12,227.11a4.86,4.86,0,0,0-2.8.28,2.77,2.77,0,0,0-1-1.54c-.38-.3-1.27-.51-1.27-.65v-.32c0-1.61-1.79-2.79-3.82-2.84a4,4,0,0,0-3.18,1.38Z" transform="translate(0.14 0.03)"/><path class="cls-239" d="M107.12,117.29c-.23,16.8,13.48,32.85,36.58,40,30.82,9.51,66.68-.49,80.1-22.33a32.52,32.52,0,0,0,5-17.65Z" transform="translate(0.14 0.03)"/><path class="cls-228" d="M122.44,100s-3.15,31.89.09,51.75l-12.06,0S113.19,121,122.44,100Z" transform="translate(0.14 0.03)"/><polygon class="cls-240" points="123.17 117.18 123.04 151.94 134.13 151.94 123.17 117.18"/><path class="cls-240" d="M112.5,154.6l.26.56a7.73,7.73,0,0,0,7,4.42l15-.1a3.62,3.62,0,0,0,3.16-1.89l1.65-3Z" transform="translate(0.14 0.03)"/><polygon class="cls-234" points="137.64 153.82 118.18 153.81 112.64 154.63 139.75 154.6 137.64 153.82"/><polygon class="cls-241" points="128.58 154.61 128.04 152.51 116.86 152.63 115.95 154.61 128.58 154.61"/><rect class="cls-189" x="122.59" y="100.01" width="0.67" height="52.55"/><circle class="cls-234" cx="118.21" cy="153.68" r="0.5"/><circle class="cls-234" cx="119.93" cy="153.68" r="0.5"/><circle class="cls-234" cx="121.65" cy="153.68" r="0.5"/><circle class="cls-234" cx="123.37" cy="153.68" r="0.5"/><circle class="cls-234" cx="125.1" cy="153.68" r="0.5"/><circle class="cls-234" cx="126.82" cy="153.68" r="0.5"/><path class="cls-242" d="M.11,229s1-47.31,17.45-65.76c0,0-14.6,17.58-15.49,65Z" transform="translate(0.14 0.03)"/><path class="cls-243" d="M16,234.09s38.53-27.46,63.16-25.29c0,0-22.83-1.2-61.35,26.39Z" transform="translate(0.14 0.03)"/><path class="cls-242" d="M16.93,230.91s43.27-19.16,67-12.08c0,0-22.12-5.76-65.4,13.52Z" transform="translate(0.14 0.03)"/><path class="cls-242" d="M0,234.88s13.26-24,26.7-32.89c13.13-8.66,21.32-3.7,20.84,2.69C47.2,209.85,37.16,230.4,0,234.88Z" transform="translate(0.14 0.03)"/><path class="cls-244" d="M34.52,208.9l6-1-5.22.3c2.27-1.84,4.54-3.68,6.78-5.57-2.46,1.78-4.89,3.6-7.31,5.42l1.57-5.21-2.43,5.86-1.07.81-5.42,4.17,2.06-7.54-2.73,8-3,2.34-4,3.15,2.53-9.31-3.37,10-4.21,3.34-1.12.9,1.53-6.15-2.09,6.61C10.62,227,8.21,229,5.82,231c2.48-1.79,4.93-3.63,7.38-5.48l.14-.07,7.11-.5-6.56.05,1.17-.88,4.29-3.31,10.6-1-9.73.31,4-3,3.15-2.5,8.42-.77-7.75.24L33.2,210Z" transform="translate(0.14 0.03)"/><path class="cls-245" d="M58,234.93c-.42-4.39-5.39-9.13-16.53-10-16-1.19-41.22,9.76-41.22,9.76l.35.2Z" transform="translate(0.14 0.03)"/><path class="cls-243" d="M52.29,234.93l.92,0c-3-.1-6.07-.14-9.1-.17l4.42-3.17L43,234.72l-1.35,0H34.86L41.09,230,34,234.7H30.18l-5.07.07L32.8,229,24,234.78l-5.37.08-1.43,0,5-3.94-5.69,4-.83,0Z" transform="translate(0.14 0.03)"/><path class="cls-243" d="M0,235H1.87c22.79-13.77,24.82-47.63,24.82-47.63L27.33,177l0-.08,0,0v0l0,.07-7.51,7.24S4,199.33,0,218.89Z" transform="translate(0.14 0.03)"/><path class="cls-242" d="M335.89,229s-1-47.31-17.45-65.76c0,0,14.6,17.58,15.49,65Z" transform="translate(0.14 0.03)"/><path class="cls-243" d="M320.05,234.09s-38.53-27.46-63.16-25.29c0,0,22.83-1.2,61.35,26.39Z" transform="translate(0.14 0.03)"/><path class="cls-242" d="M319.07,230.91s-43.27-19.16-67-12.08c0,0,22.12-5.76,65.4,13.52Z" transform="translate(0.14 0.03)"/><path class="cls-242" d="M336,234.88s-13.26-24-26.69-32.89c-13.14-8.66-21.33-3.7-20.85,2.69C288.8,209.85,298.85,230.4,336,234.88Z" transform="translate(0.14 0.03)"/><path class="cls-244" d="M301.48,208.9l-6-1,5.22.3c-2.27-1.84-4.54-3.68-6.78-5.57,2.46,1.78,4.89,3.6,7.31,5.42l-1.57-5.21,2.43,5.86,1.07.81,5.42,4.17-2.06-7.54,2.73,8,3,2.34,4,3.15-2.54-9.31,3.37,10,4.21,3.34,1.12.9-1.53-6.15,2.09,6.61c2.43,2,4.85,3.93,7.23,5.94-2.48-1.79-4.93-3.63-7.38-5.48l-.14-.07-7.11-.5,6.56.05c-.39-.3-.78-.58-1.16-.88l-4.3-3.31-10.6-1,9.73.31-4-3-3.15-2.5-8.42-.77,7.75.24L302.8,210Z" transform="translate(0.14 0.03)"/><path class="cls-245" d="M278,234.93c.42-4.39,5.39-9.13,16.53-10,16-1.19,41.22,9.76,41.22,9.76l-.35.2Z" transform="translate(0.14 0.03)"/><path class="cls-243" d="M283.71,234.93l-.92,0c3-.1,6.07-.14,9.1-.17l-4.42-3.17,5.49,3.16,1.35,0h6.83L294.91,230,302,234.7h3.83l5.07.07L303.2,229l8.76,5.83,5.37.08,1.43,0-5-3.94,5.69,4,.83,0Z" transform="translate(0.14 0.03)"/><path class="cls-243" d="M336,235h-1.86c-22.79-13.77-24.82-47.63-24.82-47.63L308.67,177l0-.08,0,0v0l0,.07,7.51,7.24S332,199.33,336,218.89Z" transform="translate(0.14 0.03)"/><path class="cls-246" d="M56.33,129.55a3.21,3.21,0,0,0-3.69-2.9,1.17,1.17,0,0,0-.24-.63,1.86,1.86,0,0,0-1.08-.63,2.4,2.4,0,0,0-1.35.14,1.29,1.29,0,0,0-.46-.74c-.18-.15-.61-.24-.61-.31v-.15c0-.78-.86-1.34-1.84-1.37a1.86,1.86,0,0,0-1.73,1,2.25,2.25,0,0,0-.53.21l-.36-.08a2,2,0,0,0-1.27-.58,2,2,0,0,0-.91-.44,2.44,2.44,0,0,0-1.39.15l-.21.08a1.56,1.56,0,0,0-.82.84.58.58,0,0,0,0,.14,2.33,2.33,0,0,0-.46,0,1.51,1.51,0,0,0-.74-.62l-.21-.08a2.2,2.2,0,0,0-2.47.51,1.12,1.12,0,0,0-.21.47,2.17,2.17,0,0,0-1.39.4l-.21.16a1.19,1.19,0,0,0-.49,1,1.63,1.63,0,0,0-.66.44c-.11.06-.22.07-.32.13a2.1,2.1,0,0,0-.5,0h-.28a2.26,2.26,0,0,0-.42-.26,1.9,1.9,0,0,0-.26-.59,1.69,1.69,0,0,0-1-.6l-.08-.18a1.9,1.9,0,0,0-1.94-1,2,2,0,0,0-1.3-.55,1,1,0,0,0-.24-.15l-.21-.08a2.6,2.6,0,0,0-.67-.15h0l-.31,0a2.17,2.17,0,0,0-1.27.42,1.22,1.22,0,0,0-.41.52,2.34,2.34,0,0,0-1.32.16,1.65,1.65,0,0,0-.83.84,3.5,3.5,0,0,0-.36,1.84h-.11a1.09,1.09,0,0,0-1.13.81,1.07,1.07,0,0,0-.55.41s-.06.22-.09.22h-.18c-.12,0-.23-.08-.33-.05a2,2,0,0,0-.41-.24,2.5,2.5,0,0,0-.82,0,1.1,1.1,0,0,0-.44.18,1.13,1.13,0,0,0-.75-.51l-.64-.13a1.36,1.36,0,0,0-1.13.28,1.4,1.4,0,0,0-1,.06l-.63.33a.93.93,0,0,0-.52.61,1.72,1.72,0,0,0-.78-.06l-.52.11a1.07,1.07,0,0,0-.53.27,1.09,1.09,0,0,0-.68.46H56.38A.78.78,0,0,1,56.33,129.55Z" transform="translate(0.14 0.03)"/></g></g></svg>