<?xml version="1.0" encoding="utf-8"?>
<!-- Generator: Adobe Illustrator 22.1.0, SVG Export Plug-In . SVG Version: 6.00 Build 0)  -->
<svg version="1.1" xmlns="http://www.w3.org/2000/svg" xmlns:xlink="http://www.w3.org/1999/xlink" x="0px" y="0px"
	 viewBox="0 0 2850 1800" enable-background="new 0 0 2850 1800" xml:space="preserve">
<g id="Layer_1_1_">
	<rect fill="#FFFFFF" width="2850" height="1800"/>
</g>
<g id="Layer_3">
	<path fill="#3FCFCF" d="M2739.245,1525.143c0-727.07-589.407-1316.477-1316.477-1316.477h-0.003
		c-727.07,0-1316.477,589.407-1316.477,1316.477v83.51h2632.956V1525.143z"/>
	<g>
		<path opacity="0.1" fill="#FFEF8B" d="M1667.792,231.427c-42.766-8.627-186.869-33.201-320.591-20.628
			c-149.645,14.07-236.978,25.908-359.596,71.488c-40.203,64.534-62.709,139.54-62.709,221.171
			c0,232.596,188.556,421.152,421.152,421.152S1767.2,736.053,1767.2,503.458C1767.2,397.105,1732.82,305.549,1667.792,231.427z"/>
		<path opacity="0.1" fill="#FFEF8B" d="M1522.719,210.063c-44.246-1.665-90.192-1.329-134.456-0.895
			c-47.792,0.469-92.026,5.499-138.931,10.363c-39.048,4.049-84.833,13.631-123.292,21.518
			c-78.695,62.741-122.436,153.94-122.436,262.408c0,189.126,153.317,342.443,342.443,342.443
			c189.126,0,342.443-153.317,342.443-342.443C1688.491,378.971,1622.059,270.01,1522.719,210.063z"/>
		<circle opacity="0.1" fill="#FFEF8B" cx="1346.048" cy="503.458" r="270.431"/>
		<circle fill="#FFEF8B" cx="1346.048" cy="503.458" r="218.656"/>
	</g>
	<g>
		<polygon fill="#60B0B1" points="1649.317,1423.654 1025.479,777.424 108.441,1381.62 487.478,1423.654 		"/>
		<polygon fill="#60B0B1" points="2136.167,1423.654 2119.745,886.768 1688.648,555.373 724.048,1073.493 905.778,1423.654 		"/>
		<path fill="#60B0B1" d="M2738.81,1423.654c0-77.305-49.095-266.033-49.095-266.033L2081.818,659.67l-482.362,400.365
			l234.198,363.62C1833.653,1423.654,2738.81,1500.959,2738.81,1423.654z"/>
		<polygon fill="#569A9B" points="1599.455,1060.035 1833.653,1423.654 2408.345,1423.654 2408.345,1102.09 1688.648,555.373 
			1587.192,777.424 1714.828,925.584 		"/>
		<polygon fill="#60B0B1" points="1688.648,555.373 1587.192,777.424 1714.828,925.584 1539.145,804.851 1299.793,901.661 
			1327.689,845.415 1054.448,991.064 997.798,1102.09 761.377,1051.545 		"/>
		<polygon fill="#569A9B" points="1025.479,777.424 950.58,951.814 1112.181,865.013 		"/>
		<polygon fill="#60B0B1" points="488.475,1423.654 612.311,1189.909 774.575,1151.179 761.377,1051.545 950.58,951.814 
			1025.479,777.424 108.441,1381.62 486.672,1423.654 		"/>
		<polygon fill="#569A9B" points="1297.35,1423.654 1327.689,1178.822 1221.248,1060.035 1327.689,845.415 1054.448,991.064 
			997.798,1102.09 1089.149,1423.654 		"/>
		<polygon fill="#569A9B" points="1973.806,1000.645 2101.062,933.166 2408.345,1102.09 1688.648,555.373 1587.192,777.424 
			1714.828,925.584 		"/>
		<polygon fill="#60B0B1" points="2081.818,659.67 2150.287,906.057 1896.814,713.506 		"/>
		<polygon fill="#569A9B" points="2590.372,1076.246 2081.818,659.67 2150.287,906.057 2281.77,927.141 2332.802,1011.713 		"/>
	</g>
	<path fill="#558025" d="M288.175,857.044l58.929-89.993l9.426,45.461l56.998-56.146l20.19,77.168l38.159-23.938L492.106,900
		l125.395-49.619l45.36,116.966l151.214-15.532l16.838,102.674l36.882-53.345l34.06,80.435l19.661-20.959l29.064,128.299
		l38.732-79.641l36.167,123.583l34.147-40.239l31.011,79.384l30.9-60.009l30.78,94.784l32.324-65.008l29.356,65.008l14.244-30.057
		l18.78,43.684l20.32-63.281l20.274,68.249l26.862-39.916l28.848,71.604l27.362-34.369l28.348,55.467l18.232-31.812l21.293,46.569
		l12.185-19.845l17.929,48.655l-1357.437-11.484C111.234,1410.245,117.877,1130.599,288.175,857.044z"/>
	<path fill="#558025" d="M2654.945,1060.619l-61.695-113.922l-32.724,72.181l-17.648-33.855l-46.504,88.892l-100.348-70.489
		l-87.996,150.309l-63.219-94.894l-65.523,106.702l-32.16-57.784l-45.527,72.972l-16.794-22.633l-46.832,119.444l-30.428-81.644
		l-43.825,111.715l-28.193-44.223l-36.581,71.284l-28.144-61.484l-32.729,84.863l-25.615-67.542l-28.493,56.811l-13.898-31.058
		l-17.723,38.679l-16.463-61.255l-20.114,59.065l-29.797-33.982l-25.239,55.372l-33.561-31.67l-19.415,42.671l-22.976-27.174
		l-14.567,34.772l-10.293-15.451l-21.728,38.471l1193.023,224.916C2731.22,1640.678,2770.489,1339.352,2654.945,1060.619z"/>
	<path fill="#4B7021" d="M227.823,967.346l80.311-101.182l26.695,75.166l35.979-27.104l27.864,88.35l120.708-60.129l55.167,112.673
		l149.339-28.367l25.53,100.865l32.2-56.295l40.793,77.238l17.802-22.559l39.896,125.354l31.801-82.653l46.571,120.049
		l30.592-43.003l37.666,76.452l25.671-62.425l38.748,91.815l26.664-67.527l34.791,62.268l11.629-31.162l22.436,41.924l14.851-64.783
		l26.019,66.272l23.361-42.06l34.848,68.884l24.333-36.577l32.974,52.848l15.453-33.251l25.185,44.584l10.449-20.812l22.011,46.95
		l-1304.927-28.905C111.234,1410.245,113.737,1157.898,227.823,967.346z"/>
	<g>
		<path fill="#AFF25C" d="M2364.363,1471.384c-155.265-99.771-355.002-148.213-548.83-133.107
			c-193.828,15.105-379.871,93.612-511.202,215.718"/>
	</g>
	<g>
		<path fill="#A4E356" d="M2738.81,1418.732c-87.467-95.086-216.239-78.876-370.545-49.994
			c-114.226,21.381-226.287,45.357-342.543,56.268c-157.056,14.74-315.523-2.972-472.24-20.121s-315.505-33.768-472.259-16.869
			s-335.714,120.097-437.296,222.971l2095.319,1.993L2738.81,1418.732z"/>
	</g>
	<g>
		<path fill="#90D449" d="M106.29,1606.063c0.909,26.574,1161.049,21.104,1161.049,21.104
			c-131.191-119.182-304.069-203.251-489.036-247.081s-638.408,4.434-667.068,30.16
			C111.234,1410.245,102.052,1482.197,106.29,1606.063z"/>
	</g>
	<g>
		<g>
			<polygon fill="#9AAC40" points="631.645,57.908 575.472,259.227 603.559,284.801 561.901,317.682 492.106,646.488 
				519.248,668.409 484.77,688.281 369.966,1176.232 449.454,1232.86 356.899,1249.056 264.486,1609.159 1001.798,1609.159 
				844.802,951.215 771.279,934.853 830.913,893.008 718.081,420.147 700.123,409.091 711.551,392.78 			"/>
			<g>
				<polygon fill="#798732" points="631.645,57.908 598.417,242.651 603.559,284.801 575.472,259.227 				"/>
				<polygon fill="#798732" points="519.248,668.409 575.472,330.625 638.4,257.3 561.901,317.682 492.106,646.488 				"/>
				<polygon fill="#798732" points="484.77,688.281 369.966,1176.232 449.454,1232.86 425.588,1157.222 498.094,698.432 
					556.699,647.894 				"/>
				<polygon fill="#798732" points="356.899,1249.056 264.486,1606.538 391.754,1290.171 520.173,1220.803 				"/>
			</g>
			<g>
				<polygon fill="#B9CF4D" points="631.645,57.908 711.551,392.78 683.074,434.06 694.158,384.451 				"/>
				<polygon fill="#B9CF4D" points="718.081,420.147 764.424,614.365 690.002,661.865 735.561,575.656 700.123,409.091 				"/>
				<polygon fill="#B9CF4D" points="830.913,893.008 727.213,967.346 786.862,889.732 764.424,614.365 				"/>
				<polygon fill="#B9CF4D" points="511.892,1607.906 1001.798,1609.159 844.802,951.214 771.279,934.853 819.959,980.605 
					940.071,1563.242 				"/>
			</g>
		</g>
		<polygon fill="#4D1D13" points="648.674,1608.256 633.084,393.033 617.501,1608.176 		"/>
		<polygon fill="#4D1D13" points="634.378,846.276 634.378,863.76 724.633,767.051 		"/>
		<polygon fill="#4D1D13" points="628.502,1434.547 628.502,1472.792 825.924,1261.252 		"/>
		<polygon fill="#4D1D13" points="631.695,1075.141 631.695,1106.101 471.875,934.853 		"/>
		<polygon fill="#4D1D13" points="632.493,540.25 632.493,553.276 565.253,481.228 		"/>
	</g>
	<path fill="#71BD34" d="M9.088,1650.422L9.088,1650.422c0,23.069,18.701,41.77,41.77,41.77h2743.869
		c23.069,0,41.77-18.701,41.77-41.77v0c0-23.069-18.701-41.77-41.77-41.77H50.858C27.789,1608.653,9.088,1627.354,9.088,1650.422z"
		/>
	<g>
		<path fill="#3FCFCF" d="M897.356,216.847c-62.798,39.444-134.608,91.86-168.811,159.021
			c102.029-81.289,220.511-141.828,346.156-176.917C1027.662,185.002,913.267,206.854,897.356,216.847z"/>
	</g>
	<g>
		<path fill="#3FCFCF" d="M2737.482,721.987c-3.065-6.611-8.656-11.672-14.319-16.258c-13.861-11.223-29.067-20.781-45.19-28.405
			c-3.292-1.557-7.175-3.067-10.346,0.04c-0.62,0.608-1.102,1.352-1.518,2.115c-6.97,12.769-11.043,16.302-17.076,27.405l0,0
			c-16.925,31.255-11.221,73.174,13.439,98.771c3.102,3.22,6.784,6.343,11.231,6.799c5.479,0.561,10.434-3.031,14.666-6.556
			c12.24-10.197,23.595-21.457,33.894-33.612C2734.249,758.14,2745.28,738.808,2737.482,721.987z"/>
	</g>
	<g>
		<path fill="#3FCFCF" d="M2612.253,585.324l-0.802,0.134c-5.708,5.623-10.914,11.753-15.544,18.291
			c-6.023,8.504,0.024,20.374,10.442,20.137c2.8-0.064,5.58-0.476,8.281-1.305c9.258-2.842,17.079-11.437,16.967-21.12
			C2631.483,591.777,2621.603,582.8,2612.253,585.324z"/>
	</g>
	<g>
		<path fill="#4B7021" d="M111.234,1410.245c14.122-146.276,50.921-430.087,202.502-684.462
			C87.324,996.038,103.73,1197.038,111.234,1410.245z"/>
	</g>
	<g>
		<path fill="#3FCFCF" d="M452.234,659.307c-1.425-2.847-4.52-4.383-7.407-5.724c-15.102-7.012-31.765-14.189-47.871-9.968
			l-0.272,2.042c-23.693,29.686-37.956,66.798-40.155,104.725c2.797,9.439,11.103,5.817,16.334,1.944
			c29.605-21.916,55.451-48.895,76.079-79.412C451.689,668.85,454.429,663.694,452.234,659.307z"/>
	</g>
	<g>
		<path fill="#3FCFCF" d="M395.746,543.502c7.355-1.419,14.573-5.796,17.37-12.745c2.797-6.948-0.424-16.314-7.6-18.462
			c-6.49-1.943-14.087,3.383-14.474,10.147l-0.412-4.39c-5.745,8.25-11.489,16.501-17.234,24.752
			C380.811,543.864,388.391,544.921,395.746,543.502z"/>
	</g>
	<g>
		
			<line fill="none" stroke="#396F22" stroke-width="9.5308" stroke-linecap="round" stroke-linejoin="round" stroke-miterlimit="10" x1="2793.824" y1="1692.192" x2="2815.294" y2="1692.192"/>
		
			<line fill="none" stroke="#396F22" stroke-width="9.5308" stroke-linecap="round" stroke-linejoin="round" stroke-miterlimit="10" x1="2604.019" y1="1692.192" x2="2759.005" y2="1692.192"/>
		
			<line fill="none" stroke="#396F22" stroke-width="9.5308" stroke-linecap="round" stroke-linejoin="round" stroke-miterlimit="10" x1="437.83" y1="1692.192" x2="2543.625" y2="1692.192"/>
		
			<line fill="none" stroke="#396F22" stroke-width="9.5308" stroke-linecap="round" stroke-linejoin="round" stroke-miterlimit="10" x1="1906.344" y1="1610.988" x2="2717.627" y2="1610.988"/>
		
			<line fill="none" stroke="#396F22" stroke-width="9.5308" stroke-linecap="round" stroke-linejoin="round" stroke-miterlimit="10" x1="492.438" y1="1610.988" x2="506.806" y2="1610.988"/>
		
			<line fill="none" stroke="#396F22" stroke-width="9.5308" stroke-linecap="round" stroke-linejoin="round" stroke-miterlimit="10" x1="404.981" y1="1610.988" x2="462.453" y2="1610.988"/>
		
			<line fill="none" stroke="#396F22" stroke-width="9.5308" stroke-linecap="round" stroke-linejoin="round" stroke-miterlimit="10" x1="65.325" y1="1610.988" x2="373.121" y2="1610.988"/>
		
			<line fill="none" stroke="#396F22" stroke-width="9.5308" stroke-linecap="round" stroke-linejoin="round" stroke-miterlimit="10" x1="138.886" y1="1692.192" x2="326.736" y2="1692.192"/>
		
			<line fill="none" stroke="#396F22" stroke-width="9.5308" stroke-linecap="round" stroke-linejoin="round" stroke-miterlimit="10" x1="92.009" y1="1692.192" x2="102.237" y2="1692.192"/>
	</g>
	<g>
		<g>
			<polygon fill="#9AAC40" points="2101.062,933.166 2084.232,993.481 2092.647,1001.143 2080.167,1010.994 2059.256,1109.505 
				2067.388,1116.072 2057.058,1122.026 2022.663,1268.215 2046.478,1285.181 2018.748,1290.034 1991.061,1397.92 2211.959,1397.92 
				2164.924,1200.8 2142.896,1195.898 2160.762,1183.362 2126.958,1041.693 2121.578,1038.38 2125.002,1033.494 			"/>
			<g>
				<polygon fill="#798732" points="2101.062,933.166 2091.107,988.515 2092.647,1001.143 2084.232,993.481 				"/>
				<polygon fill="#798732" points="2067.388,1116.072 2084.232,1014.872 2103.086,992.904 2080.167,1010.994 2059.256,1109.505 
									"/>
				<polygon fill="#798732" points="2057.058,1122.026 2022.663,1268.215 2046.478,1285.181 2039.327,1262.52 2061.05,1125.067 
					2078.608,1109.926 				"/>
				<polygon fill="#798732" points="2018.748,1290.034 1991.061,1397.135 2029.191,1302.352 2067.665,1281.569 				"/>
			</g>
			<g>
				<polygon fill="#B9CF4D" points="2101.062,933.166 2125.002,1033.494 2116.47,1045.861 2119.791,1030.999 				"/>
				<polygon fill="#B9CF4D" points="2126.958,1041.693 2140.843,1099.88 2118.545,1114.111 2132.195,1088.283 2121.578,1038.38 				
					"/>
				<polygon fill="#B9CF4D" points="2160.762,1183.362 2129.694,1205.633 2147.565,1182.38 2140.843,1099.88 				"/>
				<polygon fill="#B9CF4D" points="2065.184,1397.545 2211.959,1397.92 2164.924,1200.8 2142.896,1195.898 2157.48,1209.606 
					2193.466,1384.163 				"/>
			</g>
		</g>
		<polygon fill="#4D1D13" points="2106.164,1397.65 2101.493,1033.57 2096.824,1397.626 		"/>
		<polygon fill="#4D1D13" points="2101.881,1169.361 2101.881,1174.599 2128.921,1145.625 		"/>
		<polygon fill="#4D1D13" points="2100.12,1345.606 2100.12,1357.065 2159.268,1293.687 		"/>
		<polygon fill="#4D1D13" points="2101.077,1237.928 2101.077,1247.204 2053.195,1195.898 		"/>
		<polygon fill="#4D1D13" points="2101.316,1077.676 2101.316,1081.578 2081.171,1059.993 		"/>
	</g>
	<g>
		<g>
			<polygon fill="#9AAC40" points="2408.345,498.751 2374.865,618.736 2391.605,633.978 2366.777,653.575 2325.18,849.543 
				2341.357,862.607 2320.807,874.451 2252.385,1165.268 2299.759,1199.018 2244.597,1208.671 2189.519,1423.291 2628.954,1423.291 
				2535.385,1031.159 2491.566,1021.407 2527.108,996.468 2459.86,714.644 2449.157,708.055 2455.968,698.333 			"/>
			<g>
				<polygon fill="#798732" points="2408.345,498.751 2388.541,608.857 2391.605,633.978 2374.865,618.736 				"/>
				<polygon fill="#798732" points="2341.357,862.607 2374.865,661.289 2412.371,617.588 2366.777,653.575 2325.18,849.543 				"/>
				<polygon fill="#798732" points="2320.807,874.451 2252.385,1165.268 2299.759,1199.018 2285.535,1153.938 2328.749,880.501 
					2363.677,850.381 				"/>
				<polygon fill="#798732" points="2244.597,1208.671 2189.519,1421.729 2265.371,1233.176 2341.908,1191.832 				"/>
			</g>
			<g>
				<polygon fill="#B9CF4D" points="2408.345,498.751 2455.968,698.333 2438.996,722.936 2445.602,693.37 				"/>
				<polygon fill="#B9CF4D" points="2459.86,714.644 2487.481,830.397 2443.125,858.707 2470.278,807.327 2449.157,708.055 				"/>
				<polygon fill="#B9CF4D" points="2527.108,996.468 2465.303,1040.773 2500.853,994.515 2487.481,830.397 				"/>
				<polygon fill="#B9CF4D" points="2336.972,1422.545 2628.954,1423.291 2535.385,1031.158 2491.566,1021.407 2520.579,1048.675 
					2592.166,1395.925 				"/>
			</g>
		</g>
		<polygon fill="#4D1D13" points="2418.494,1422.753 2409.202,698.484 2399.915,1422.706 		"/>
		<polygon fill="#4D1D13" points="2409.973,968.616 2409.973,979.036 2463.765,921.398 		"/>
		<polygon fill="#4D1D13" points="2406.471,1319.223 2406.471,1342.017 2524.134,1215.94 		"/>
		<polygon fill="#4D1D13" points="2408.375,1105.018 2408.375,1123.47 2313.122,1021.407 		"/>
		<polygon fill="#4D1D13" points="2408.85,786.225 2408.85,793.989 2368.775,751.048 		"/>
	</g>
	<g>
		<g>
			<path fill="#3E5E23" d="M1030.385,1571.964c-28-11-62-11-85,10c-2-17-4-39-24-42c-22-4-33,17-40,34c-8-22-29-35-51-37
				c-35-2-67,21-79,53c-35.627-11.876-81.259-13.72-110.995,11.967c-0.922,2.978-1.708,5.999-2.338,9.056l425.409-2.138
				c-0.296-1.637-0.644-3.268-1.075-4.885C1057.385,1587.964,1044.385,1576.964,1030.385,1571.964z"/>
		</g>
		<g>
			<path fill="#4B7021" d="M1049.065,1533.591c-24.276-15.796-57.924-15.685-82.096,0.269c-2.386-15.982-6.062-32.573-16.539-44.875
				c-8.408-9.872-20.449-16.002-32.781-20.013c-31-10.084-65.825-7.845-95.278,6.126c-29.453,13.971-53.219,39.525-65.021,69.913
				c-15.727-16.247-42.835-14.869-63.285-5.22c-25.488,12.026-45.354,35.256-53.675,62.141
				c29.736-25.687,75.368-23.843,110.995-11.967c12-32,44-55,79-53c22,2,43,15,51,37c7-17,18-38,40-34c20,3,22,25,24,42
				c23-21,57-21,85-10c14,5,27,16,32,32c0.431,1.618,0.78,3.248,1.075,4.885l18.618-0.094
				C1086.872,1580.193,1073.342,1549.386,1049.065,1533.591z"/>
		</g>
	</g>
	<g>
		<g>
			<path fill="#4B7021" d="M2468,1427.964c31-28,69-51,112-54c33-2,66,20,72,53c8-8,20-14,31-7
				c10.646,6.506,16.743,15.461,20.984,25.415c3.845-17.284,0.889-45.548-7.443-59.934c-8.8-15.194-29.302-24.256-44.88-16.154
				c1.992-12.705-1.778-27.07-12.276-34.499c-10.498-7.429-27.85-4.549-32.818,7.312c-2.34-28.546-31.812-49.548-60.453-49.608
				c-28.641-0.061-55.093,16.414-74.832,37.167c-14.032,14.753-25.947,33.064-26.798,53.407
				c-11.634-11.423-31.545-8.165-45.197,0.747c-19.995,13.053-32.538,36.696-32.432,60.537
				C2394.467,1419.36,2436.189,1398.88,2468,1427.964z"/>
		</g>
		<g>
			<path fill="#3E5E23" d="M2683,1419.964c-11-7-23-1-31,7c-6-33-39-55-72-53c-43,3-81,26-112,54
				c-31.811-29.084-73.533-8.604-101.144,16.392c0.006,1.279,0.038,2.558,0.117,3.836h336.302c0.259-0.897,0.492-1.842,0.708-2.813
				C2699.743,1435.425,2693.646,1426.47,2683,1419.964z"/>
		</g>
	</g>
	<g>
		<g>
			<path fill="#4B7021" d="M2739.245,1433.802c-5.017-1.247-10.352-1.476-15.513-2.197c-13.508-1.885-26.486-7.434-37.181-15.897
				c-8.221-6.505-16.524-15.222-26.983-14.496c-7.609,0.528-13.919,6.152-18.403,12.322c-14.489,19.935-15.629,46.267-23.455,69.636
				c-3.26,9.734-8.678,19.949-18.36,23.361c-12.986,4.576-27.196-5.126-40.744-2.672c-11.253,2.038-19.402,12.037-24.182,22.426
				c-4.779,10.39-7.269,21.797-12.894,31.755c-5.625,9.957-15.738,18.668-27.146,17.869c-7.93-0.556-15.765-5.596-23.338-3.179
				c-5.83,1.861-9.474,7.646-11.666,13.36c-2.748,7.165-4.012,14.896-3.688,22.564h283.552V1433.802z"/>
		</g>
		<g>
			<g>
				<g>
					<path fill="#5A9629" d="M2574.325,1346.483c48.126,43.787,88.687,95.617,119.528,152.917
						c8.967,16.659,17.096,33.76,24.37,51.224c1.093,2.623,5.429,1.472,4.32-1.191c-25.349-60.86-60.951-117.228-105.166-166.149
						c-12.628-13.972-25.954-27.294-39.884-39.968C2575.365,1341.378,2572.187,1344.538,2574.325,1346.483L2574.325,1346.483z"/>
				</g>
			</g>
			<g>
				<path fill="#EB5F0A" d="M2587.083,1355.435c-10.712,8.524-23.901,13.897-37.52,15.285c-7.443,0.758-15.577,0.138-21.366-4.601
					c-2.774-2.27-4.922-5.929-3.88-9.359c0.605-1.991,2.17-3.534,3.796-4.832c3.344-2.667,7.204-4.683,11.303-5.903
					c2.555-0.76,5.487-1.415,6.861-3.699c2.19-3.641-1.199-8.023-1.768-12.234c-0.667-4.938,4.07-10.188,8.927-9.076
					c2.263,0.518,4.271,2.206,6.59,2.077c3.219-0.179,5.188-3.797,5.313-7.018c0.126-3.221-0.923-6.408-0.744-9.626
					c0.373-6.714,6.915-12.447,13.619-11.937c5.885,0.448,10.828,5.056,13.246,10.44s2.738,11.455,2.725,17.357
					C2594.161,1333.865,2595.405,1347.422,2587.083,1355.435"/>
			</g>
			<polygon fill="#FFFFFF" points="2546.781,1307.393 2554.894,1301.394 2560.923,1319.06 2559.031,1321.062 			"/>
			<polygon fill="#FFFFFF" points="2527.066,1315.633 2531.214,1308.733 2544.194,1322.128 2543.615,1323.573 			"/>
			<polygon fill="#FFFFFF" points="2528.637,1343.57 2527.066,1333.603 2545.519,1336.419 2546.42,1339.023 			"/>
			<g>
				<path fill="#5A9629" d="M2607.895,1373.851c-2.66-7.861-3.452-16.347-2.294-24.565c0.519-3.685,1.527-7.505,4.131-10.163
					c0.376-0.383,0.876-0.765,1.397-0.638c0.496,0.12,0.768,0.64,0.969,1.109c6.131,14.291,4.285,30.532,4.952,46.068"/>
			</g>
			<g>
				<path fill="#5A9629" d="M2641.439,1411.452c-0.953-6.675-1.908-13.414-1.393-20.137c0.515-6.723,2.629-13.523,7.131-18.542
					c0.681-0.76,1.699-1.534,2.625-1.106c0.424,0.196,0.704,0.606,0.956,0.999c3.106,4.854,5.311,10.282,6.469,15.927
					c1.034,5.036,1.237,10.202,1.437,15.339c0.395,10.161,0.789,20.369-0.357,30.473"/>
			</g>
			<g>
				<path fill="#5A9629" d="M2686.66,1476.117c-4.474-11.349-5.311-23.871-4.195-36.019s4.111-24.034,7.097-35.862
					c0.728-2.884,2.647-6.526,5.516-5.74c1.465,0.402,2.335,1.872,3.008,3.234c6.188,12.541,8.53,26.743,8.261,40.725
					s-3.064,27.806-6.724,41.303c-0.975,3.597-2.859,7.892-6.582,8.075"/>
			</g>
			<g>
				<path fill="#5A9629" d="M2684.165,1477.451c-5.641-4.494-12.584-6.966-19.386-9.362c-9.513-3.35-19.098-6.719-29.077-8.181
					c-3.179-0.466-7.4-0.087-8.238,3.015c-0.392,1.449,0.188,2.98,0.913,4.295c2.14,3.888,5.556,6.916,9.135,9.541
					c15.553,11.411,35.606,16.506,54.72,13.902"/>
			</g>
			<g>
				<path fill="#5A9629" d="M2654.424,1433.998c-9.08-7.775-21.178-10.804-32.801-13.597c-4.658-1.119-9.649-2.224-14.139-0.554
					c-0.529,0.197-1.076,0.457-1.369,0.94c-0.523,0.862-0.01,1.966,0.546,2.807c3.714,5.617,9.461,9.572,15.398,12.748
					c13.385,7.161,28.552,11.058,43.731,10.858"/>
			</g>
			<g>
				<path fill="#5A9629" d="M2617.362,1387.786c-3.501-3.016-8.201-4.354-12.817-4.585c-4.616-0.231-9.216,0.556-13.771,1.34
					c-0.41,0.071-0.911,0.228-0.972,0.64c-0.037,0.249,0.115,0.483,0.261,0.688c4.583,6.403,11.362,11.202,18.924,13.397
					c4.035,1.172,8.24,1.615,12.419,2.054c3.51,0.369,7.044,0.738,10.564,0.477"/>
			</g>
		</g>
		<g>
			<g>
				<g>
					<path fill="#5A9629" d="M2518.682,1492.57c57.535,16.573,112.082,42.903,160.813,77.703
						c13.978,9.982,27.428,20.671,40.363,31.971c1.984,1.734,4.903-1.162,2.906-2.906c-45.5-39.751-97.608-71.617-153.759-93.938
						c-16.123-6.409-32.559-11.991-49.231-16.793C2517.228,1487.874,2516.141,1491.838,2518.682,1492.57L2518.682,1492.57z"/>
				</g>
			</g>
			<g>
				<path fill="#EB5F0A" d="M2532.696,1494.727c-5.357,11.359-14.031,21.13-24.675,27.795c-5.817,3.643-12.762,6.431-19.448,4.88
					c-3.203-0.743-6.455-2.883-6.989-6.127c-0.31-1.883,0.352-3.788,1.164-5.516c1.67-3.551,4.029-6.776,6.907-9.442
					c1.794-1.662,3.941-3.39,4.146-5.827c0.326-3.885-4.24-6.116-6.417-9.35c-2.552-3.793-0.783-10.034,3.665-11.089
					c2.073-0.491,4.409,0.083,6.265-0.964c2.576-1.452,2.729-5.229,1.526-7.93c-1.203-2.702-3.358-4.899-4.517-7.62
					c-2.416-5.676,0.642-13.047,6.366-15.346c5.025-2.018,10.961-0.231,15.135,3.219c4.174,3.45,6.899,8.316,9.282,13.178
					C2529.771,1474.106,2536.294,1484.757,2532.696,1494.727"/>
			</g>
			<polygon fill="#FFFFFF" points="2480.047,1471.539 2484.29,1463.312 2496.417,1475.404 2495.671,1477.819 			"/>
			<polygon fill="#FFFFFF" points="2467.166,1486.316 2467.78,1478.955 2483.894,1484.714 2484.004,1486.137 			"/>
			<polygon fill="#FFFFFF" points="2479.789,1508.667 2474.454,1501.103 2490.781,1495.936 2492.579,1497.714 			"/>
			<g>
				<path fill="#5A9629" d="M2557.291,1501.44c-5.377-5.39-9.471-12.052-11.851-19.284c-1.067-3.243-1.787-6.796-0.722-10.039
					c0.154-0.468,0.411-0.984,0.891-1.092c0.457-0.102,0.891,0.216,1.247,0.52c10.841,9.273,15.909,23.387,22.76,35.901"/>
			</g>
			<g>
				<path fill="#5A9629" d="M2600.144,1518.777c-3.491-5.106-7.01-10.264-9.313-16.005s-3.321-12.194-1.652-18.15
					c0.252-0.901,0.776-1.952,1.712-1.974c0.429-0.01,0.825,0.213,1.192,0.435c4.524,2.734,8.54,6.307,11.783,10.482
					c2.894,3.725,5.156,7.893,7.404,12.04c4.447,8.201,8.911,16.441,12.066,25.22"/>
			</g>
			<g>
				<path fill="#5A9629" d="M2663.583,1553.649c-8.285-7.524-14.052-17.49-18.061-27.938s-6.365-21.445-8.705-32.389
					c-0.571-2.669-0.469-6.444,2.211-6.96c1.369-0.264,2.681,0.593,3.787,1.442c10.178,7.81,17.866,18.547,23.315,30.162
					s8.756,24.124,11.219,36.715c0.656,3.356,0.848,7.654-2.141,9.315"/>
			</g>
			<g>
				<path fill="#5A9629" d="M2662.072,1555.758c-6.464-1.41-13.181-0.629-19.75,0.159c-9.187,1.101-18.441,2.217-27.246,5.061
					c-2.805,0.906-6.125,2.93-5.556,5.822c0.266,1.351,1.364,2.376,2.493,3.164c3.339,2.332,7.377,3.438,11.386,4.147
					c17.427,3.082,35.994-0.859,50.667-10.754"/>
			</g>
			<g>
				<path fill="#5A9629" d="M2619.974,1532.063c-10.625-2.716-21.809-0.301-32.506,2.115c-4.287,0.968-8.842,2.084-11.86,5.279
					c-0.356,0.376-0.7,0.813-0.745,1.329c-0.081,0.922,0.789,1.622,1.587,2.088c5.334,3.115,11.667,4.039,17.842,4.245
					c13.919,0.464,27.98-2.481,40.39-8.802"/>
			</g>
			<g>
				<path fill="#5A9629" d="M2570.733,1509.068c-4.105-1.062-8.514-0.257-12.406,1.426s-7.358,4.195-10.788,6.688
					c-0.309,0.224-0.657,0.557-0.54,0.921c0.071,0.22,0.29,0.351,0.494,0.46c6.368,3.41,13.893,4.61,21.006,3.349
					c3.796-0.672,7.436-2.013,11.052-3.347c3.038-1.12,6.095-2.25,8.886-3.892"/>
			</g>
		</g>
		<g>
			<path fill="#3E5E23" d="M2738.981,1539.808c0,0-8.289-7.281-13.514-8.644c-6.271-1.636-12.933,0.378-18.736,3.261
				c-12.919,6.419-23.224,16.944-34.231,26.268c-11.007,9.325-23.703,17.88-38.088,18.962c-7.558,0.569-15.121-0.979-22.41-3.055
				c-9.548-2.719-19.767-6.36-29.092-2.952c-8.638,3.157-14.143,11.642-17.685,20.129c-2.435,5.835-2.065,14.875-2.065,14.875
				h176.085L2738.981,1539.808z"/>
		</g>
	</g>
	<g>
		<g>
			<path fill="#4B7021" d="M109.285,1433.802c5.017-1.247,10.351-1.476,15.513-2.197c13.508-1.885,26.486-7.434,37.181-15.897
				c8.221-6.505,16.524-15.222,26.983-14.496c7.609,0.528,13.919,6.152,18.403,12.322c14.489,19.935,15.629,46.267,23.455,69.636
				c3.26,9.734,8.678,19.949,18.36,23.361c12.986,4.576,27.196-5.126,40.744-2.672c11.253,2.038,19.402,12.037,24.182,22.426
				c4.779,10.39,7.269,21.797,12.894,31.755s15.738,18.668,27.146,17.869c7.93-0.556,15.765-5.596,23.338-3.179
				c5.83,1.861,9.474,7.646,11.666,13.36c2.748,7.165,4.012,14.896,3.688,22.564H109.285V1433.802z"/>
		</g>
		<g>
			<g>
				<g>
					<path fill="#5A9629" d="M271.037,1343.315c-49.007,44.589-90.273,97.567-121.421,156.053
						c-8.681,16.299-16.529,33.018-23.628,50.064c-1.107,2.658,3.226,3.818,4.32,1.191
						c25.143-60.367,60.659-116.346,104.579-164.798c12.46-13.745,25.597-26.858,39.318-39.343
						C276.342,1344.538,273.166,1341.378,271.037,1343.315L271.037,1343.315z"/>
				</g>
			</g>
			<g>
				<path fill="#EB5F0A" d="M261.448,1355.435c10.712,8.524,23.901,13.897,37.52,15.285c7.443,0.758,15.577,0.138,21.366-4.601
					c2.774-2.27,4.922-5.929,3.88-9.359c-0.605-1.991-2.17-3.534-3.796-4.832c-3.344-2.667-7.204-4.683-11.303-5.903
					c-2.555-0.76-5.487-1.415-6.861-3.699c-2.191-3.641,1.199-8.023,1.768-12.234c0.667-4.938-4.07-10.188-8.927-9.076
					c-2.263,0.518-4.271,2.206-6.59,2.077c-3.218-0.179-5.188-3.797-5.313-7.018c-0.126-3.221,0.923-6.408,0.744-9.626
					c-0.373-6.714-6.915-12.447-13.619-11.937c-5.886,0.448-10.828,5.056-13.246,10.44s-2.738,11.455-2.725,17.357
					C254.37,1333.865,253.125,1347.422,261.448,1355.435"/>
			</g>
			<polygon fill="#FFFFFF" points="301.749,1307.393 293.636,1301.394 287.607,1319.06 289.5,1321.062 			"/>
			<polygon fill="#FFFFFF" points="321.464,1315.633 317.316,1308.733 304.337,1322.128 304.915,1323.573 			"/>
			<polygon fill="#FFFFFF" points="319.893,1343.57 321.464,1333.603 303.011,1336.419 302.11,1339.023 			"/>
			<g>
				<path fill="#5A9629" d="M240.635,1373.851c2.66-7.861,3.452-16.347,2.294-24.565c-0.519-3.685-1.527-7.505-4.132-10.163
					c-0.376-0.383-0.876-0.765-1.397-0.638c-0.496,0.12-0.768,0.64-0.969,1.109c-6.131,14.291-4.285,30.532-4.952,46.068"/>
			</g>
			<g>
				<path fill="#5A9629" d="M207.091,1411.452c0.953-6.675,1.908-13.414,1.393-20.137c-0.515-6.723-2.629-13.523-7.131-18.542
					c-0.681-0.76-1.699-1.534-2.625-1.106c-0.424,0.196-0.704,0.606-0.956,0.999c-3.106,4.854-5.311,10.282-6.47,15.927
					c-1.034,5.036-1.237,10.202-1.437,15.339c-0.395,10.161-0.789,20.369,0.357,30.473"/>
			</g>
			<g>
				<path fill="#5A9629" d="M161.871,1476.117c4.474-11.349,5.31-23.871,4.195-36.019c-1.115-12.148-4.111-24.034-7.097-35.862
					c-0.728-2.884-2.647-6.526-5.516-5.74c-1.465,0.402-2.335,1.872-3.008,3.234c-6.188,12.541-8.53,26.743-8.261,40.725
					c0.269,13.982,3.064,27.806,6.724,41.303c0.975,3.597,2.859,7.892,6.582,8.075"/>
			</g>
			<g>
				<path fill="#5A9629" d="M164.365,1477.451c5.64-4.494,12.584-6.966,19.386-9.362c9.513-3.35,19.098-6.719,29.077-8.181
					c3.179-0.466,7.4-0.087,8.238,3.015c0.392,1.449-0.189,2.98-0.913,4.295c-2.14,3.888-5.556,6.916-9.134,9.541
					c-15.553,11.411-35.606,16.506-54.72,13.902"/>
			</g>
			<g>
				<path fill="#5A9629" d="M194.106,1433.998c9.08-7.775,21.178-10.804,32.801-13.597c4.658-1.119,9.649-2.224,14.14-0.554
					c0.529,0.197,1.076,0.457,1.369,0.94c0.523,0.862,0.011,1.966-0.546,2.807c-3.714,5.617-9.461,9.572-15.398,12.748
					c-13.385,7.161-28.552,11.058-43.731,10.858"/>
			</g>
			<g>
				<path fill="#5A9629" d="M231.168,1387.786c3.502-3.016,8.201-4.354,12.817-4.585c4.616-0.231,9.216,0.556,13.77,1.34
					c0.41,0.071,0.911,0.228,0.972,0.64c0.037,0.249-0.115,0.483-0.261,0.688c-4.583,6.403-11.362,11.202-18.924,13.397
					c-4.035,1.172-8.24,1.615-12.419,2.054c-3.511,0.369-7.044,0.738-10.564,0.477"/>
			</g>
		</g>
		<g>
			<g>
				<g>
					<path fill="#5A9629" d="M328.756,1488.607c-58.402,16.822-113.829,43.625-163.182,79.111
						c-13.766,9.899-27.04,20.465-39.808,31.62c-1.996,1.744,0.921,4.641,2.906,2.906c45.36-39.628,97.477-71.436,153.531-93.509
						c15.615-6.149,31.52-11.521,47.645-16.166C332.385,1491.839,331.306,1487.872,328.756,1488.607L328.756,1488.607z"/>
				</g>
			</g>
			<g>
				<path fill="#EB5F0A" d="M315.834,1494.727c5.357,11.359,14.031,21.13,24.675,27.795c5.817,3.643,12.762,6.431,19.448,4.88
					c3.203-0.743,6.455-2.883,6.989-6.127c0.31-1.883-0.352-3.788-1.164-5.516c-1.67-3.551-4.029-6.776-6.907-9.442
					c-1.794-1.662-3.941-3.39-4.145-5.827c-0.326-3.885,4.241-6.116,6.417-9.35c2.552-3.793,0.783-10.034-3.665-11.089
					c-2.073-0.491-4.409,0.083-6.265-0.964c-2.576-1.452-2.729-5.229-1.526-7.93c1.203-2.702,3.358-4.899,4.517-7.62
					c2.416-5.676-0.642-13.047-6.366-15.346c-5.025-2.018-10.961-0.231-15.135,3.219c-4.174,3.45-6.899,8.316-9.282,13.178
					C318.759,1474.106,312.236,1484.757,315.834,1494.727"/>
			</g>
			<polygon fill="#FFFFFF" points="368.483,1471.539 364.24,1463.312 352.114,1475.404 352.859,1477.819 			"/>
			<polygon fill="#FFFFFF" points="381.365,1486.316 380.75,1478.955 364.636,1484.714 364.526,1486.137 			"/>
			<polygon fill="#FFFFFF" points="368.741,1508.667 374.076,1501.103 357.749,1495.936 355.951,1497.714 			"/>
			<g>
				<path fill="#5A9629" d="M291.239,1501.44c5.377-5.39,9.471-12.052,11.851-19.284c1.067-3.243,1.787-6.796,0.722-10.039
					c-0.154-0.468-0.411-0.984-0.891-1.092c-0.457-0.102-0.891,0.216-1.247,0.52c-10.841,9.273-15.909,23.387-22.76,35.901"/>
			</g>
			<g>
				<path fill="#5A9629" d="M248.386,1518.777c3.491-5.106,7.011-10.264,9.314-16.005s3.321-12.194,1.652-18.15
					c-0.253-0.901-0.776-1.952-1.712-1.974c-0.429-0.01-0.825,0.213-1.192,0.435c-4.524,2.734-8.54,6.307-11.783,10.482
					c-2.894,3.725-5.156,7.893-7.404,12.04c-4.446,8.201-8.91,16.441-12.066,25.22"/>
			</g>
			<g>
				<path fill="#5A9629" d="M184.947,1553.649c8.285-7.524,14.052-17.49,18.061-27.938s6.365-21.445,8.705-32.389
					c0.571-2.669,0.469-6.444-2.211-6.96c-1.369-0.264-2.681,0.593-3.787,1.442c-10.178,7.81-17.866,18.547-23.315,30.162
					c-5.449,11.615-8.756,24.124-11.218,36.715c-0.656,3.356-0.848,7.654,2.141,9.315"/>
			</g>
			<g>
				<path fill="#5A9629" d="M186.459,1555.758c6.464-1.41,13.181-0.629,19.75,0.159c9.187,1.101,18.441,2.217,27.246,5.061
					c2.805,0.906,6.125,2.93,5.556,5.822c-0.266,1.351-1.364,2.376-2.493,3.164c-3.338,2.332-7.377,3.438-11.386,4.147
					c-17.427,3.082-35.994-0.859-50.667-10.754"/>
			</g>
			<g>
				<path fill="#5A9629" d="M228.556,1532.063c10.625-2.716,21.809-0.301,32.506,2.115c4.287,0.968,8.842,2.084,11.86,5.279
					c0.356,0.376,0.7,0.813,0.745,1.329c0.081,0.922-0.789,1.622-1.588,2.088c-5.334,3.115-11.667,4.039-17.842,4.245
					c-13.919,0.464-27.98-2.481-40.39-8.802"/>
			</g>
			<g>
				<path fill="#5A9629" d="M277.797,1509.068c4.105-1.062,8.514-0.257,12.407,1.426c3.892,1.682,7.358,4.195,10.788,6.688
					c0.309,0.224,0.657,0.557,0.54,0.921c-0.071,0.22-0.29,0.351-0.494,0.46c-6.368,3.41-13.893,4.61-21.006,3.349
					c-3.796-0.672-7.436-2.013-11.053-3.347c-3.038-1.12-6.095-2.25-8.886-3.892"/>
			</g>
		</g>
		<g>
			<path fill="#3E5E23" d="M109.549,1539.808c0,0,8.289-7.281,13.514-8.644c6.27-1.636,12.933,0.378,18.736,3.261
				c12.919,6.419,23.224,16.944,34.231,26.268c11.007,9.325,23.703,17.88,38.088,18.962c7.558,0.569,15.121-0.979,22.41-3.055
				c9.548-2.719,19.767-6.36,29.091-2.952c8.638,3.157,14.143,11.642,17.685,20.129c2.435,5.835,2.065,14.875,2.065,14.875H109.285
				L109.549,1539.808z"/>
		</g>
	</g>
	<g>
		<g>
			<g>
				<g>
					<path fill="#5A9632" d="M1083.762,1599.676c-2.982-15.358-6.797-30.187-8.113-45.867c-1.254-14.942-1.034-29.962,0.495-44.873
						c0.108-1.049-1.536-1.043-1.641,0c-1.565,15.543-1.687,31.184-0.187,46.739c1.416,14.676,3.547,30.343,8.888,44.156
						C1083.338,1600.175,1083.834,1600.046,1083.762,1599.676L1083.762,1599.676z"/>
				</g>
			</g>
			<g>
				<g>
					<g>
						<path fill="#FFFFFF" d="M1076.468,1496.93c0.146-4.32,2.222-8.618,3.21-12.809c0.257-1.091-1.339-1.881-1.885-0.795
							c-2.045,4.068-1.903,9.132-1.95,13.604C1075.838,1497.333,1076.454,1497.331,1076.468,1496.93L1076.468,1496.93z"/>
					</g>
				</g>
				<circle fill="#FFFFFF" cx="1075.212" cy="1484.282" r="0.943"/>
				<circle fill="#FFFFFF" cx="1079.616" cy="1481.057" r="1.551"/>
				<circle fill="#FFFFFF" cx="1081.724" cy="1485.646" r="1.147"/>
			</g>
			<g>
				<path fill="#FFE800" d="M1060.719,1497.73c1.948,5.071,5.778,9.394,10.577,11.939s15.539-0.795,20.919-11.986
					C1091.64,1492.734,1060.075,1493.031,1060.719,1497.73z"/>
			</g>
		</g>
		<g>
			<g>
				<g>
					<path fill="#5A9632" d="M1100.376,1586.286c12.119-17.121,18.747-39.487,21.993-59.961c0.115-0.723-0.993-1.033-1.107-0.305
						c-1.611,10.286-4.085,20.405-7.54,30.231c-3.676,10.454-8.859,19.925-13.695,29.831
						C1099.912,1586.317,1100.226,1586.498,1100.376,1586.286L1100.376,1586.286z"/>
				</g>
			</g>
			<g>
				<g>
					<g>
						<path fill="#FFFFFF" d="M1124.135,1517.158c0.32-2.861,0.904-5.84,0.351-8.696c-0.112-0.578-1.018-0.435-1.013,0.137
							c0.025,2.847,0.615,5.719,0.349,8.559C1123.803,1517.359,1124.112,1517.355,1124.135,1517.158L1124.135,1517.158z"/>
					</g>
				</g>
				<circle fill="#FFFFFF" cx="1126.26" cy="1509.509" r="0.66"/>
				<circle fill="#FFFFFF" cx="1123.852" cy="1506.546" r="1.085"/>
				<circle fill="#FFFFFF" cx="1121.611" cy="1509.278" r="0.803"/>
			</g>
			<g>
				<path fill="#FFE800" d="M1133.685,1521.177c-2.217,3.086-5.574,5.333-9.273,6.205c-3.699,0.872-10.375-3.291-12.032-11.818
					C1113.645,1512.318,1134.953,1518.112,1133.685,1521.177z"/>
			</g>
		</g>
		<g>
			<path fill="#314C1D" d="M1064.743,1611.874c-11.898-1.835-22.329-11.074-25.586-22.664c-0.334-1.189-0.489-2.713,0.52-3.426
				c0.958-0.677,2.271-0.126,3.303,0.434c4.926,2.675,9.851,5.349,14.777,8.024c-0.906-7.888-4.254-15.25-6.751-22.787
				c-2.497-7.537-4.145-15.818-1.611-23.342c0.409-1.213,1.084-2.537,2.327-2.843c1.125-0.277,2.25,0.401,3.161,1.117
				c10.963,8.616,11.97,25.197,21.284,35.573c0.305-2.225,0.61-4.449,0.915-6.674c0.162-1.186,0.59-2.654,1.776-2.818
				c0.744-0.103,1.441,0.41,1.902,1.003c2.101,2.698,1.456,7.547,4.641,8.792c4.91-16.839-0.838-35.826,6.015-51.972
				c0.357-0.842,0.806-1.731,1.628-2.13c1.14-0.553,2.5,0.062,3.509,0.829c5.569,4.229,6.313,12.175,6.583,19.163
				c0.349,9.028,0.698,18.056,1.047,27.084c0.078,2.03,0.162,4.089,0.771,6.027c1.92-0.329,2.905-2.424,3.646-4.226
				c3.24-7.881,7.726-15.248,13.24-21.744c1.069-1.26,2.849-2.583,4.183-1.609c0.706,0.516,0.904,1.48,0.932,2.354
				c0.093,2.884-1.053,5.646-2.178,8.303c-2.459,5.808-4.919,11.617-7.379,17.425c-0.697,1.646-1.33,3.735-0.127,5.057
				c3.217-2.45,6.592-4.691,10.099-6.704c1.117,0.89,0.486,2.668-0.228,3.905c-2.017,3.494-4.035,6.987-6.052,10.481
				c3.088-1.143,6.177-2.286,9.265-3.43c0.66-0.245,1.432-0.481,2.034-0.115c1.053,0.64,0.519,2.255-0.145,3.293
				c-3.895,6.084-8.429,11.758-13.503,16.9"/>
		</g>
	</g>
	<g>
		<g>
			<path fill="#4B7021" d="M2388.286,1606.028c-3.283-10.275-13.097-18.375-23.935-19.106c-6.558-0.442-13.135,1.517-19.669,0.795
				c-12.904-1.427-22.486-12.914-27.579-24.856c-1.638-3.842-3.1-8.006-6.322-10.664c-4.877-4.025-12.25-3.219-17.937-0.453
				c-5.687,2.766-10.432,7.159-15.983,10.189c-14.266,7.787-33.524,4.993-44.988-6.528c-9.765-9.813-15.516-25.769-29.142-28.217
				c-10.056-1.807-19.506,5.036-26.884,12.104c-11.122,10.655-20.841,22.774-28.826,35.945c-2.787,4.596-5.417,9.389-9.279,13.127
				c-3.863,3.738-9.285,6.324-14.569,5.34c-5.05-0.941-9.033-4.879-13.919-6.464c-7.126-2.313-15.116,0.852-20.531,6.03
				c-3.786,3.621-6.561,8.092-9.004,12.759H2388.286z"/>
		</g>
		<g>
			<g>
				<path fill="#3F5E27" d="M2196.628,1537.682c0.043-0.072,0.086-0.145,0.129-0.217c0.021-0.035,0.023-0.085,0-0.12
					c-0.248-0.381-0.192-0.348-0.654-0.381c-0.079-0.006-0.15,0.047-0.191,0.109c-0.746,1.149-0.072,2.843,0.12,4.098
					c0.391,2.566,0.77,5.134,1.136,7.704c0.793,5.573,1.457,11.16,2.051,16.757c1.112,10.475,1.823,20.989,2.188,31.516
					c0.026,0.739,1.177,0.743,1.152,0c-0.348-10.044-1.043-20.071-2.1-30.065c-0.482-4.558-1.062-9.105-1.706-13.643
					c-0.364-2.565-0.746-5.128-1.167-7.685c-0.414-2.514-1.513-5.6-1.09-8.129
					C2196.483,1537.703,2196.583,1537.756,2196.628,1537.682L2196.628,1537.682z"/>
			</g>
		</g>
		<g>
			<g>
				<path fill="#3F5E27" d="M2208.651,1544.09c-0.025-0.36-0.014-0.72,0.032-1.078c0.026-0.334-0.475-0.378-0.567-0.077
					c-1.192,3.929-2.067,8.086-2.777,12.129c-0.092,0.521,0.668,0.752,0.807,0.222c1.04-3.976,1.972-8.125,2.526-12.198
					c-0.186,0-0.371,0-0.556,0c0.136,0.334,0.238,0.678,0.305,1.033C2208.452,1544.249,2208.654,1544.222,2208.651,1544.09
					L2208.651,1544.09z"/>
			</g>
		</g>
		<g>
			<g>
				<path fill="#3F5E27" d="M2184.84,1557.917c-0.327-0.404-0.613-0.835-0.857-1.294c-0.183-0.308-0.6-0.038-0.467,0.273
					c1.709,4.012,4.259,8.09,7.061,11.433c0.282,0.336,0.846-0.102,0.608-0.469c-2.43-3.732-4.807-7.484-7.201-11.237
					c-0.142,0.109-0.283,0.219-0.425,0.328c0.419,0.318,0.804,0.672,1.155,1.064
					C2184.776,1558.078,2184.896,1557.992,2184.84,1557.917L2184.84,1557.917z"/>
			</g>
		</g>
		<g>
			<g>
				<path fill="#3F5E27" d="M2211.157,1572.524c0.04,0.005,0.079,0.01,0.119,0.015c0.09,0.011,0.159-0.07,0.188-0.143
					c0.087-0.22,0.081-0.261-0.038-0.462c-0.04-0.067-0.121-0.121-0.202-0.116c-1.372,0.095-1.983,3.043-2.449,4.055
					c-1.195,2.595-2.447,5.171-3.527,7.816c-0.161,0.396,0.499,0.671,0.691,0.291c1.006-1.989,1.892-4.037,2.808-6.068
					c0.21-0.466,2.228-5.749,2.41-5.758C2210.914,1572.167,2210.927,1572.495,2211.157,1572.524L2211.157,1572.524z"/>
			</g>
		</g>
		<g>
			<g>
				<path fill="#3F5E27" d="M2190.626,1581.546c0.066-0.036,1.895,3.978,2.065,4.286c0.758,1.375,1.651,2.679,2.698,3.849
					c0.333,0.373,0.844-0.166,0.541-0.541c-1.125-1.39-2.169-2.803-3.005-4.388c-0.417-0.79-0.761-1.605-1.109-2.427
					c-0.169-0.399-0.322-1.033-0.731-1.276c-0.688-0.41-1.245,0.335-0.596,0.779c0.046,0.032,0.108,0.015,0.146-0.019
					c0.039-0.034,0.077-0.067,0.116-0.101C2190.842,1581.629,2190.726,1581.492,2190.626,1581.546L2190.626,1581.546z"/>
			</g>
		</g>
		<g>
			<g>
				<path fill="#3F5E27" d="M2303.794,1556.27c-4.375,5.947-7.537,13.17-10.827,19.758c-3.194,6.398-6.77,12.937-9.112,19.704
					c-0.178,0.515,0.626,0.852,0.88,0.371c3.491-6.619,6.181-13.724,9.48-20.454c3.149-6.424,7.077-12.678,9.76-19.303
					C2304.02,1556.234,2303.855,1556.188,2303.794,1556.27L2303.794,1556.27z"/>
			</g>
		</g>
		<g>
			<g>
				<path fill="#3F5E27" d="M2291.707,1559.504c-0.533,1.064-0.534,2.336-0.604,3.508c-0.081,1.375-0.162,2.78,0.112,4.137
					c0.072,0.358,0.559,0.233,0.592-0.08c0.143-1.341,0.023-2.708,0.062-4.057c0.033-1.156,0.255-2.356-0.006-3.488
					C2291.847,1559.455,2291.74,1559.439,2291.707,1559.504L2291.707,1559.504z"/>
			</g>
		</g>
		<g>
			<g>
				<path fill="#3F5E27" d="M2307.258,1566.484c-1.3-0.743-2.374,0.815-3.172,1.638c-1.857,1.914-3.759,3.818-5.429,5.899
					c-0.242,0.302,0.135,0.704,0.433,0.433c1.344-1.226,2.57-2.564,3.803-3.9c0.711-0.77,2.995-4.129,4.228-3.741
					C2307.315,1566.875,2307.434,1566.585,2307.258,1566.484L2307.258,1566.484z"/>
			</g>
		</g>
		<g>
			<g>
				<path fill="#3F5E27" d="M2282.351,1576.924c-0.132,1.768,0.212,3.596,0.4,5.358c0.166,1.556,0.252,3.141,0.656,4.656
					c0.071,0.264,0.46,0.203,0.469-0.063c0.057-1.784-0.284-3.588-0.501-5.358c-0.189-1.541-0.276-3.147-0.741-4.631
					C2282.583,1576.726,2282.363,1576.763,2282.351,1576.924L2282.351,1576.924z"/>
			</g>
		</g>
		<g>
			<g>
				<path fill="#3F5E27" d="M2296.601,1585.636c-1.005,0.422-1.826,1.356-2.559,2.137c-0.831,0.887-1.628,1.83-2.221,2.894
					c-0.195,0.35,0.31,0.787,0.579,0.447c0.735-0.927,1.412-1.897,2.204-2.78c0.717-0.799,1.655-1.479,2.246-2.375
					C2296.948,1585.81,2296.781,1585.56,2296.601,1585.636L2296.601,1585.636z"/>
			</g>
		</g>
		<g>
			<g>
				<path fill="#3F5E27" d="M2101.712,1593.961c-0.292-0.693-0.489-1.361-0.687-2.087c-0.217,0.091-0.434,0.183-0.651,0.274
					c1.839,3.984,4.228,8.055,7.209,11.299c0.289,0.314,0.855-0.105,0.601-0.463c-2.602-3.666-5.095-7.203-7.195-11.196
					c-0.215-0.409-0.875-0.017-0.615,0.359c0.431,0.624,0.82,1.21,1.165,1.885
					C2101.587,1594.127,2101.754,1594.06,2101.712,1593.961L2101.712,1593.961z"/>
			</g>
		</g>
		<g>
			<g>
				<path fill="#3F5E27" d="M2365.566,1593.136c-4.399,1.576-8.996,4.478-12.376,7.707c-0.317,0.303,0.109,0.89,0.48,0.622
					c1.958-1.413,3.799-2.958,5.826-4.28c2.024-1.321,4.178-2.396,6.24-3.646
					C2365.942,1593.414,2365.809,1593.049,2365.566,1593.136L2365.566,1593.136z"/>
			</g>
		</g>
		<g>
			<path fill="#3E5E23" d="M2356.018,1606.008c-6.293-3.057-14.204-5.658-20.536-5.092c-5.154,0.461-10.952,1.816-15.05-1.343
				c-2.317-1.787-3.5-4.656-5.424-6.86c-4.893-5.603-13.594-5.905-20.779-3.979c-7.185,1.926-13.91,5.612-21.288,6.559
				c-17.291,2.22-32.42-10.672-48.781-16.69c-10.716-3.942-22.79-4.902-33.552-1.09c-14.906,5.28-25.61,18.836-40.29,24.715
				c-7.852,3.144-16.635,3.916-24.915,2.189c-4.236-0.883-8.446-2.412-12.758-2.062c-2.777,0.225-5.644,1.572-7.373,3.654H2356.018z
				"/>
		</g>
	</g>
	<g>
		<g>
			<g>
				<polygon id="XMLID_2_" fill="#FF5343" points="1698.352,930.105 1495.807,697.216 1294.13,930.105 1292.786,1092.875 
					1292.786,1505.275 1496.099,1505.275 1700.273,1505.275 1700.273,1092.875 				"/>
				<g>
					
						<line fill="none" stroke="#D24028" stroke-width="12.5439" stroke-miterlimit="10" x1="1292.89" y1="1461.726" x2="1700.224" y2="1461.726"/>
					
						<line fill="none" stroke="#D24028" stroke-width="12.5439" stroke-miterlimit="10" x1="1292.89" y1="1409.258" x2="1700.224" y2="1409.258"/>
					
						<line fill="none" stroke="#D24028" stroke-width="12.5439" stroke-miterlimit="10" x1="1292.89" y1="1355.603" x2="1700.224" y2="1355.603"/>
					
						<line fill="none" stroke="#D24028" stroke-width="12.5439" stroke-miterlimit="10" x1="1292.89" y1="1301.948" x2="1700.224" y2="1301.948"/>
					
						<line fill="none" stroke="#D24028" stroke-width="12.5439" stroke-miterlimit="10" x1="1292.89" y1="1246.487" x2="1700.224" y2="1246.487"/>
					
						<line fill="none" stroke="#D24028" stroke-width="12.5439" stroke-miterlimit="10" x1="1292.89" y1="1197.146" x2="1700.224" y2="1197.146"/>
					
						<line fill="none" stroke="#D24028" stroke-width="12.5439" stroke-miterlimit="10" x1="1292.89" y1="1143.491" x2="1700.224" y2="1143.491"/>
					
						<line fill="none" stroke="#D24028" stroke-width="12.5439" stroke-miterlimit="10" x1="1292.89" y1="1089.836" x2="1700.224" y2="1089.836"/>
					
						<line fill="none" stroke="#D24028" stroke-width="12.5439" stroke-miterlimit="10" x1="1292.89" y1="1036.181" x2="1700.224" y2="1036.181"/>
					
						<line fill="none" stroke="#D24028" stroke-width="12.5439" stroke-miterlimit="10" x1="1292.89" y1="982.525" x2="1700.224" y2="982.525"/>
					
						<line fill="none" stroke="#D24028" stroke-width="12.5439" stroke-miterlimit="10" x1="1302.793" y1="928.87" x2="1685.223" y2="928.87"/>
					
						<line fill="none" stroke="#D24028" stroke-width="12.5439" stroke-miterlimit="10" x1="1341.663" y1="875.215" x2="1644.25" y2="875.215"/>
					
						<line fill="none" stroke="#D24028" stroke-width="12.5439" stroke-miterlimit="10" x1="1380.376" y1="821.56" x2="1599.417" y2="821.56"/>
					
						<line fill="none" stroke="#D24028" stroke-width="12.5439" stroke-miterlimit="10" x1="1430.333" y1="767.905" x2="1562.207" y2="767.905"/>
				</g>
				<polyline fill="none" stroke="#802A22" stroke-width="35.0582" stroke-linecap="round" stroke-miterlimit="10" points="
					1293.261,930.105 1496.099,697.216 1698.933,930.105 				"/>
				<rect x="1385.184" y="1289.822" fill="#FFFFFF" width="222.69" height="215.453"/>
				<rect x="1399.396" y="1301.948" fill="#802A22" width="194.267" height="203.327"/>
				
					<line fill="none" stroke="#FFFFFF" stroke-width="12.5439" stroke-miterlimit="10" x1="1399.396" y1="1301.948" x2="1599.724" y2="1500.942"/>
				
					<line fill="none" stroke="#FFFFFF" stroke-width="12.5439" stroke-miterlimit="10" x1="1593.663" y1="1301.948" x2="1393.334" y2="1500.942"/>
				
					<circle fill="#802A22" stroke="#FFFFFF" stroke-width="12.5439" stroke-miterlimit="10" cx="1496.097" cy="1004.661" r="47.397"/>
			</g>
		</g>
		<g>
			<polygon fill="#FFFFFF" points="1515.192,831.213 1479.807,812.412 1590.683,497.012 1714.519,562.812 			"/>
			<polygon fill="#FFFFFF" points="1491.284,801.496 1472.48,836.876 1157.083,726.005 1222.883,602.168 			"/>
			<polygon fill="#FFFFFF" points="1470.413,830.1 1505.793,848.904 1394.922,1164.302 1271.084,1098.507 			"/>
			<polygon fill="#FFFFFF" points="1490.174,846.272 1508.975,810.894 1824.372,921.766 1758.578,1045.604 			"/>
		</g>
		<path fill="#454C53" d="M1528.652,819.922c0,19.362-15.693,35.055-35.06,35.055c-19.361,0-35.055-15.693-35.055-35.055
			c0-19.366,15.693-35.059,35.055-35.059C1512.959,784.863,1528.652,800.556,1528.652,819.922z"/>
	</g>
</g>
</svg>
