<?xml version="1.0" encoding="utf-8"?>
<!-- Generator: Adobe Illustrator 21.0.2, SVG Export Plug-In . SVG Version: 6.00 Build 0)  -->
<svg version="1.1" xmlns="http://www.w3.org/2000/svg" xmlns:xlink="http://www.w3.org/1999/xlink" x="0px" y="0px"
	 viewBox="0 0 1400 980" style="enable-background:new 0 0 1400 980;" xml:space="preserve">
<style type="text/css">
	.st0{fill:#14151F;}
	.st1{fill:#A0D8F5;}
	.st2{fill-rule:evenodd;clip-rule:evenodd;fill:#84C2E1;}
	.st3{fill-rule:evenodd;clip-rule:evenodd;fill:#7E8B9A;}
	.st4{fill-rule:evenodd;clip-rule:evenodd;fill:#D6F6FF;}
	.st5{opacity:0.18;fill-rule:evenodd;clip-rule:evenodd;fill:#FFFFFF;}
	.st6{fill-rule:evenodd;clip-rule:evenodd;fill:#169500;}
	.st7{fill-rule:evenodd;clip-rule:evenodd;fill:#16A200;}
	.st8{fill:#58CC00;}
	.st9{fill:#16B200;}
	.st10{fill:#16A200;}
	.st11{fill:#83590D;}
	.st12{fill:#4ABE00;}
	.st13{fill:#1A7D00;}
	.st14{fill:#1A5D00;}
	.st15{fill:#D6DB3F;}
	.st16{fill:#FFFFFF;}
	.st17{fill:#EF843B;}
	.st18{fill:#FFD773;}
	.st19{fill-rule:evenodd;clip-rule:evenodd;fill:#FFFFFF;}
</style>
<g id="Layer_2">
	<rect x="0" y="0" class="st0" width="1400" height="980"/>
	<rect y="0" class="st1" width="1400" height="980"/>
</g>
<g id="Layer_2_1_">
	<polygon class="st2" points="1355.7,136.9 1212,338.8 985.1,19.9 722.6,388.8 533.4,122.9 343.8,389.3 95.7,40.6 -248.1,523.8 
		-37.7,523.8 95.7,523.8 248.1,523.8 189.6,606 400,606 533.4,606 877.2,606 804,503.1 851.6,503.1 985.1,503.1 1095.1,503.1 
		1011.9,620.1 1222.2,620.1 1355.7,620.1 1699.5,620.1 	"/>
</g>
<g id="Layer_3">
	<polygon class="st3" points="324.5,40.6 -19.3,523.8 191.1,523.8 324.5,523.8 668.3,523.8 	"/>
	<polygon class="st4" points="324.5,40.6 238.3,161.8 303,143.9 332.7,181.9 368.6,142.5 418.3,172.4 	"/>
	<polygon class="st5" points="324.5,40.6 -133.1,688.3 194.9,662.3 	"/>
	<polygon class="st3" points="1195,112.5 739.2,644.5 1018.1,644.5 1195,644.5 1400.2,644.5 1400.2,352 	"/>
	<polygon class="st4" points="1195,112.5 1098.7,224.9 1167.9,206.3 1199.1,276.2 1249.5,213.9 1316,253.8 	"/>
	<polygon class="st5" points="1195,112.5 657,740.8 1023.9,703.9 	"/>
	<polygon class="st3" points="759.5,54.1 349.1,566.1 600.2,566.1 759.5,566.1 1169.9,566.1 	"/>
	<polygon class="st4" points="759.5,54.1 660.1,178.7 737.5,149.8 771.9,194.3 807.1,165.3 872.3,194.8 	"/>
	<polygon class="st5" points="759.5,54.1 634.8,595.9 311,613.9 	"/>
</g>
<g id="Layer_7">
	<g>
		<g>
			<path class="st6" d="M1181.8,349.2c-101.1,0-196.5,75.5-274.7,99.8c-83.6-30.4-188.9-48.5-303.3-48.5c-14.7,0-29.2,0.3-43.5,0.9
				c-75.5-21.9-147.6-111-243.2-111c-101.1,0-212.2,90.6-290.4,114.8c-9.1-3.3-18.5-6.5-28.1-9.5v380.5
				c83.3,30,187.8,47.8,301.3,47.8c14.7,0,29.2-0.3,43.5-0.9c56.3,16.3,120.3,27.5,188.8,32.2h143c73.8-5,142.3-17.6,201.7-36
				c42.4,15.4,90.4,27.7,142.3,36h381.8V396.5C1335.3,368.6,1260.9,349.2,1181.8,349.2z"/>
		</g>
	</g>
</g>
<g id="Layer_5">
	<path class="st7" d="M1271.5,572.5c-14.7,0-29.2,0.3-43.5,0.9c-75.5-21.9-164.7-34.6-260.3-34.6c-101.1,0-195,14.2-273.2,38.4
		C610.8,546.8,412,490,297.6,490c-134.3,0-233.2,34.4-299,84.5V980h1402.5V580.5C1359.8,575.3,1316.3,572.5,1271.5,572.5z"/>
	<g>
		<g>
			<g>
				<path class="st8" d="M102.3,483.8c-108.7,0-197.7,91.8-205.4,208.2h410.7C299.9,575.6,210.9,483.8,102.3,483.8z"/>
			</g>
			<g>
				<path class="st9" d="M1259.5,480.1c-116.4,0-211.8,107.6-220.1,244h440.1C1471.3,587.7,1376,480.1,1259.5,480.1z"/>
			</g>
			<path class="st9" d="M773.8,488.9c-29.7-79.5-77.3-130-144.1-130s-114.3,50.5-144.1,130C464.3,546,452.2,618,448.8,697.1h361.9
				C807.3,618,795.1,546,773.8,488.9z"/>
			<g>
				<path class="st8" d="M480.6,483.3c-128.3,0-193.3,92.2-202.4,209.1H683C673.9,575.5,609,483.3,480.6,483.3z"/>
			</g>
			<g>
				<path class="st8" d="M967.6,475.8c-187.8,0-282.9,95.7-296.2,216.9h592.4C1250.5,571.4,1155.4,475.8,967.6,475.8z"/>
			</g>
			<g>
				<path class="st9" d="M1402.4,680.5H32.1c-41,0-74.5,27.3-77,61.7h1524.3C1476.9,707.8,1443.4,680.5,1402.4,680.5z"/>
				<g>
					<g>
						<path class="st9" d="M32.1,668.8l11.1,11.7h-54.4l11.1-11.7C8.1,660.2,23.9,660.2,32.1,668.8z"/>
					</g>
					<g>
						<path class="st9" d="M86.5,668.8l11.1,11.7H43.2l11.1-11.7C62.5,660.2,78.3,660.2,86.5,668.8z"/>
					</g>
					<g>
						<path class="st9" d="M140.8,668.8l11.1,11.7H97.6l11.1-11.7C116.8,660.2,132.6,660.2,140.8,668.8z"/>
					</g>
					<g>
						<path class="st9" d="M195.2,668.8l11.1,11.7h-54.4l11.1-11.7C171.2,660.2,187,660.2,195.2,668.8z"/>
					</g>
					<g>
						<path class="st9" d="M249.6,668.8l11.1,11.7h-54.4l11.1-11.7C225.6,660.2,241.4,660.2,249.6,668.8z"/>
					</g>
					<g>
						<path class="st9" d="M303.9,668.8l11.1,11.7h-54.4l11.1-11.7C279.9,660.2,295.8,660.2,303.9,668.8z"/>
					</g>
					<g>
						<path class="st9" d="M358.3,668.8l11.1,11.7H315l11.1-11.7C334.3,660.2,350.1,660.2,358.3,668.8z"/>
					</g>
					<g>
						<path class="st9" d="M412.7,668.8l11.1,11.7h-54.4l11.1-11.7C388.7,660.2,404.5,660.2,412.7,668.8z"/>
					</g>
					<g>
						<path class="st9" d="M467.1,668.8l11.1,11.7h-54.4l11.1-11.7C443.1,660.2,458.9,660.2,467.1,668.8z"/>
					</g>
					<g>
						<path class="st9" d="M521.4,668.8l11.1,11.7h-54.4l11.1-11.7C497.4,660.2,513.2,660.2,521.4,668.8z"/>
					</g>
					<g>
						<path class="st9" d="M575.8,668.8l11.1,11.7h-54.4l11.1-11.7C551.8,660.2,567.6,660.2,575.8,668.8z"/>
					</g>
					<g>
						<path class="st9" d="M630.2,668.8l11.1,11.7h-54.4l11.1-11.7C606.2,660.2,622,660.2,630.2,668.8z"/>
					</g>
					<g>
						<path class="st9" d="M684.5,668.8l11.1,11.7h-54.4l11.1-11.7C660.5,660.2,676.3,660.2,684.5,668.8z"/>
					</g>
					<g>
						<path class="st9" d="M738.9,668.8l11.1,11.7h-54.4l11.1-11.7C714.9,660.2,730.7,660.2,738.9,668.8z"/>
					</g>
					<g>
						<path class="st9" d="M793.3,668.8l11.1,11.7H750l11.1-11.7C769.3,660.2,785.1,660.2,793.3,668.8z"/>
					</g>
					<g>
						<path class="st9" d="M847.6,668.8l11.1,11.7h-54.4l11.1-11.7C823.6,660.2,839.5,660.2,847.6,668.8z"/>
					</g>
					<g>
						<path class="st9" d="M902,668.8l11.1,11.7h-54.4l11.1-11.7C878,660.2,893.8,660.2,902,668.8z"/>
					</g>
					<g>
						<path class="st9" d="M956.4,668.8l11.1,11.7h-54.4l11.1-11.7C932.4,660.2,948.2,660.2,956.4,668.8z"/>
					</g>
					<g>
						<path class="st9" d="M1010.8,668.8l11.1,11.7h-54.4l11.1-11.7C986.8,660.2,1002.6,660.2,1010.8,668.8z"/>
					</g>
					<g>
						<path class="st9" d="M1065.1,668.8l11.1,11.7h-54.4l11.1-11.7C1041.1,660.2,1056.9,660.2,1065.1,668.8z"/>
					</g>
					<g>
						<path class="st9" d="M1119.5,668.8l11.1,11.7h-54.4l11.1-11.7C1095.5,660.2,1111.3,660.2,1119.5,668.8z"/>
					</g>
					<g>
						<path class="st9" d="M1173.9,668.8l11.1,11.7h-54.4l11.1-11.7C1149.9,660.2,1165.7,660.2,1173.9,668.8z"/>
					</g>
					<g>
						<path class="st9" d="M1228.2,668.8l11.1,11.7H1185l11.1-11.7C1204.2,660.2,1220,660.2,1228.2,668.8z"/>
					</g>
					<g>
						<path class="st9" d="M1282.6,668.8l11.1,11.7h-54.4l11.1-11.7C1258.6,660.2,1274.4,660.2,1282.6,668.8z"/>
					</g>
					<g>
						<path class="st9" d="M1337,668.8l11.1,11.7h-54.4l11.1-11.7C1313,660.2,1328.8,660.2,1337,668.8z"/>
					</g>
					<g>
						<path class="st9" d="M1391.3,668.8l11.1,11.7h-54.4l11.1-11.7C1367.3,660.2,1383.2,660.2,1391.3,668.8z"/>
					</g>
				</g>
				<path class="st10" d="M-44.9,742.2c-0.1,1.4-0.2,2.7-0.2,4.1v0c0,36.3,34.5,65.8,77.2,65.8h1370.3c42.6,0,77.2-29.5,77.2-65.8v0
					c0-1.4-0.1-2.8-0.2-4.1H-44.9z"/>
			</g>
		</g>
	</g>
</g>
<g id="Layer_4">
	<g>
		<g>
			
				<rect x="125" y="459.8" transform="matrix(-1 -1.224647e-16 1.224647e-16 -1 253.1001 949.6992)" class="st11" width="3.1" height="30.1"/>
			<g>
				<path class="st8" d="M126.6,425.6c-1.5,0-2.9,0.7-4.2,1.9c-3.2,2-5.8,4.9-7.4,8.3c-0.3,0.7-0.7,1.5-0.6,2.3
					c0,0.6,0.3,1.1,0.4,1.7c0,0.3,0,0.6,0,0.9c-0.2,0.5-0.4,1-0.5,1.5c-0.6,1.1-1.4,2.1-2.1,3.1c-1.6,2.6-1.9,6-0.8,8.8
					c-0.1,1.1-0.2,2.1-0.3,3c-1.7,3.3-1.4,7.7,1,10.6c1.3,1.6,3.3,2.7,5.3,3.1c2.6,1.9,5.7,3.1,9.1,3.1c0,0,0,0,0,0L126.6,425.6
					C126.6,425.6,126.6,425.6,126.6,425.6z"/>
			</g>
			<g>
				<path class="st12" d="M142,456.4c0-0.5-0.1-1.1-0.2-1.7c1.4-3,1.2-6.7-0.5-9.4c-1.1-1.7-2.9-3.4-2.6-5.5
					c0.1-0.6,0.3-1.1,0.4-1.7c0.1-0.8-0.2-1.6-0.6-2.3c-1.7-3.6-4.6-6.7-8.1-8.7l0,0.1c-1.2-1-2.5-1.5-3.8-1.5v48.3
					c3.4,0,6.5-1.1,9-3c2.2-0.4,4.3-1.5,5.8-3.2C143.9,464.6,144.1,459.8,142,456.4z"/>
			</g>
		</g>
		<g>
			
				<rect x="78.1" y="449" transform="matrix(-1 -1.224647e-16 1.224647e-16 -1 161.2698 947.3162)" class="st11" width="5" height="49.3"/>
			<g>
				<path class="st13" d="M80.6,392.9c-2.4,0-4.7,1.1-6.9,3c-5.2,3.3-9.4,8-12,13.6c-0.6,1.2-1.1,2.5-1,3.8c0.1,1,0.5,1.9,0.6,2.8
					c0.1,0.5,0.1,1,0,1.5c-0.3,0.8-0.6,1.6-0.8,2.4c-0.9,1.7-2.3,3.4-3.4,5c-2.7,4.2-3.1,9.8-1.3,14.4c-0.2,1.8-0.4,3.5-0.5,4.9
					c-2.8,5.4-2.3,12.6,1.6,17.3c2.2,2.7,5.4,4.4,8.7,5.1c4.2,3.2,9.4,5.1,15,5.1c0.1,0,0.1,0,0.2,0V393
					C80.8,392.9,80.7,392.9,80.6,392.9z"/>
			</g>
			<g>
				<path class="st14" d="M105.9,443.4c-0.1-0.9-0.2-1.8-0.3-2.8c2.3-4.9,2-10.9-0.9-15.5c-1.8-2.9-4.7-5.6-4.3-9
					c0.1-0.9,0.5-1.8,0.6-2.8c0.1-1.3-0.4-2.6-1-3.8c-2.8-6-7.5-11-13.2-14.3l0,0.2c-1.9-1.6-4-2.5-6.1-2.5V472
					c5.5,0,10.5-1.9,14.6-4.9c3.7-0.6,7.1-2.4,9.5-5.3C109.1,456.8,109.5,448.9,105.9,443.4z"/>
			</g>
		</g>
	</g>
	<g>
		<g>
			
				<rect x="1008" y="463.9" transform="matrix(-1 -1.224647e-16 1.224647e-16 -1 2019.0986 957.9173)" class="st11" width="3.1" height="30.1"/>
			<g>
				<path class="st8" d="M1009.5,429.7c-1.5,0-2.9,0.7-4.2,1.9c-3.2,2-5.8,4.9-7.4,8.3c-0.3,0.7-0.7,1.5-0.6,2.3
					c0,0.6,0.3,1.1,0.4,1.7c0,0.3,0,0.6,0,0.9c-0.2,0.5-0.4,1-0.5,1.5c-0.6,1.1-1.4,2.1-2.1,3.1c-1.6,2.6-1.9,6-0.8,8.8
					c-0.1,1.1-0.2,2.1-0.3,3c-1.7,3.3-1.4,7.7,1,10.6c1.3,1.6,3.3,2.7,5.3,3.1c2.6,1.9,5.7,3.1,9.1,3.1c0,0,0,0,0,0L1009.5,429.7
					C1009.6,429.7,1009.6,429.7,1009.5,429.7z"/>
			</g>
			<g>
				<path class="st12" d="M1025,460.5c0-0.5-0.1-1.1-0.2-1.7c1.4-3,1.2-6.7-0.5-9.4c-1.1-1.7-2.9-3.4-2.6-5.5
					c0.1-0.6,0.3-1.1,0.4-1.7c0.1-0.8-0.2-1.6-0.6-2.3c-1.7-3.6-4.6-6.7-8.1-8.7l0,0.1c-1.2-1-2.5-1.5-3.8-1.5V478
					c3.4,0,6.5-1.1,9-3c2.2-0.4,4.3-1.5,5.8-3.2C1026.9,468.7,1027.1,463.9,1025,460.5z"/>
			</g>
		</g>
		<g>
			
				<rect x="961.1" y="453.1" transform="matrix(-1 -1.224647e-16 1.224647e-16 -1 1927.2683 955.5343)" class="st11" width="5" height="49.3"/>
			<g>
				<path class="st13" d="M963.6,397.1c-2.4,0-4.7,1.1-6.9,3c-5.2,3.3-9.4,8-12,13.6c-0.6,1.2-1.1,2.5-1,3.8c0.1,1,0.5,1.9,0.6,2.8
					c0.1,0.5,0.1,1,0,1.5c-0.3,0.8-0.6,1.6-0.8,2.4c-0.9,1.7-2.3,3.4-3.4,5c-2.7,4.2-3.1,9.8-1.3,14.4c-0.2,1.8-0.4,3.5-0.5,4.9
					c-2.8,5.4-2.3,12.6,1.6,17.3c2.2,2.7,5.4,4.4,8.7,5.1c4.2,3.2,9.4,5.1,15,5.1c0.1,0,0.1,0,0.2,0v-79.1
					C963.8,397.1,963.7,397.1,963.6,397.1z"/>
			</g>
			<g>
				<path class="st14" d="M988.9,447.5c-0.1-0.9-0.2-1.8-0.3-2.8c2.3-4.9,2-10.9-0.9-15.5c-1.8-2.9-4.7-5.6-4.3-9
					c0.1-0.9,0.5-1.8,0.6-2.8c0.1-1.3-0.4-2.6-1-3.8c-2.8-6-7.5-11-13.2-14.3l0,0.2c-1.9-1.6-4-2.5-6.1-2.5v79.1
					c5.5,0,10.5-1.9,14.6-4.9c3.7-0.6,7.1-2.4,9.5-5.3C992.1,460.9,992.5,453.1,988.9,447.5z"/>
			</g>
		</g>
		<g>
			
				<rect x="900.3" y="459.5" transform="matrix(-1 -1.224647e-16 1.224647e-16 -1 1802.8188 941.533)" class="st11" width="2.3" height="22.6"/>
			<g>
				<path class="st13" d="M901.4,433.7c-1.1,0-2.2,0.5-3.2,1.4c-2.4,1.5-4.3,3.7-5.5,6.2c-0.3,0.5-0.5,1.1-0.4,1.7
					c0,0.4,0.2,0.8,0.3,1.3c0,0.2,0,0.5,0,0.7c-0.1,0.4-0.3,0.7-0.4,1.1c-0.4,0.8-1.1,1.5-1.6,2.3c-1.2,1.9-1.4,4.5-0.6,6.6
					c-0.1,0.8-0.2,1.6-0.2,2.3c-1.3,2.5-1.1,5.8,0.7,8c1,1.2,2.5,2,4,2.4c1.9,1.5,4.3,2.3,6.9,2.3c0,0,0.1,0,0.1,0L901.4,433.7
					C901.5,433.7,901.4,433.7,901.4,433.7z"/>
			</g>
			<g>
				<path class="st14" d="M913,456.9c0-0.4-0.1-0.8-0.1-1.3c1.1-2.2,0.9-5-0.4-7.1c-0.8-1.3-2.1-2.6-2-4.1c0.1-0.4,0.2-0.8,0.3-1.3
					c0-0.6-0.2-1.2-0.4-1.7c-1.3-2.7-3.4-5.1-6.1-6.6l0,0.1c-0.9-0.7-1.8-1.1-2.8-1.2V470c2.5,0,4.8-0.9,6.7-2.3
					c1.7-0.3,3.3-1.1,4.4-2.4C914.5,463,914.6,459.4,913,456.9z"/>
			</g>
		</g>
	</g>
	<g>
		<g>
			
				<rect x="1257.7" y="810.8" transform="matrix(-1 -1.224647e-16 1.224647e-16 -1 2527.207 1737.7158)" class="st11" width="11.8" height="116.1"/>
			<g>
				<path class="st8" d="M1263.6,678.6c-5.6,0-11.1,2.6-16.3,7.2c-12.2,7.7-22.2,19-28.4,32c-1.3,2.8-2.5,5.8-2.3,8.9
					c0.2,2.2,1.1,4.4,1.4,6.6c0.2,1.2,0.1,2.4,0,3.5c-0.7,1.9-1.4,3.8-2,5.8c-2.1,4.1-5.5,7.9-8,11.9c-6.3,10-7.4,23.1-3.1,34
					c-0.6,4.2-0.9,8.1-1.1,11.6c-6.7,12.8-5.4,29.7,3.8,40.9c5.2,6.3,12.6,10.4,20.6,12.1c9.9,7.5,22.1,11.9,35.3,11.9
					c0,0,0.1,0,0.1,0V678.6C1263.7,678.6,1263.6,678.6,1263.6,678.6z"/>
			</g>
			<g>
				<path class="st12" d="M1323.2,797.6c-0.1-2.1-0.4-4.3-0.6-6.7c5.5-11.4,4.8-25.7-2-36.4c-4.3-6.8-11-13.2-10-21.1
					c0.3-2.2,1.2-4.3,1.4-6.6c0.2-3.1-0.9-6.1-2.3-8.9c-6.7-14.1-17.7-26-31.2-33.8l0,0.5c-4.7-3.7-9.6-5.9-14.6-5.9v186.4
					c13,0,25-4.3,34.8-11.6c8.6-1.4,16.8-5.7,22.4-12.4C1330.8,829.1,1331.5,810.6,1323.2,797.6z"/>
			</g>
		</g>
		<g>
			
				<rect x="820.8" y="746.3" transform="matrix(-1 -1.224647e-16 1.224647e-16 -1 1649.7699 1572.5099)" class="st11" width="8.1" height="79.9"/>
			<g>
				<path class="st8" d="M824.9,655.4c-3.9,0-7.6,1.8-11.2,4.9c-8.4,5.3-15.3,13.1-19.5,22.1c-0.9,1.9-1.7,4-1.6,6.2
					c0.1,1.5,0.8,3,0.9,4.5c0.1,0.8,0.1,1.6,0,2.4c-0.5,1.3-0.9,2.6-1.4,4c-1.5,2.8-3.8,5.5-5.5,8.2c-4.4,6.9-5.1,15.9-2.1,23.4
					c-0.4,2.9-0.7,5.6-0.8,8c-4.6,8.8-3.7,20.4,2.6,28.1c3.6,4.3,8.7,7.2,14.2,8.3c6.8,5.2,15.2,8.2,24.3,8.2c0,0,0.1,0,0.1,0
					L824.9,655.4C824.9,655.4,824.9,655.4,824.9,655.4z"/>
			</g>
			<g>
				<path class="st12" d="M865.9,737.2c-0.1-1.4-0.2-3-0.4-4.6c3.8-7.9,3.3-17.7-1.4-25.1c-2.9-4.6-7.6-9.1-6.9-14.6
					c0.2-1.5,0.8-3,0.9-4.5c0.2-2.1-0.6-4.2-1.6-6.2c-4.6-9.7-12.2-17.9-21.5-23.2l0,0.3c-3.2-2.6-6.6-4.1-10.1-4.1v128.3
					c8.9,0,17.2-3,23.9-8c5.9-1,11.5-3.9,15.4-8.5C871.1,758.9,871.6,746.2,865.9,737.2z"/>
			</g>
		</g>
		<g>
			
				<rect x="947.4" y="782.1" transform="matrix(-1 -1.224647e-16 1.224647e-16 -1 1909.9719 1712.89)" class="st11" width="15.1" height="148.7"/>
			<g>
				<path class="st13" d="M955,612.9c-7.2,0-14.2,3.4-20.8,9.2c-15.6,9.9-28.4,24.3-36.4,41c-1.7,3.6-3.2,7.5-2.9,11.5
					c0.2,2.9,1.4,5.6,1.8,8.4c0.2,1.5,0.2,3-0.1,4.5c-0.9,2.4-1.7,4.9-2.6,7.4c-2.8,5.2-7,10.2-10.2,15.2
					c-8.1,12.8-9.4,29.5-3.9,43.6c-0.7,5.4-1.2,10.4-1.4,14.8c-8.6,16.4-7,38,4.9,52.3c6.6,8,16.2,13.3,26.3,15.5
					c12.7,9.6,28.3,15.3,45.2,15.3c0,0,0.1,0,0.1,0V612.9C955.1,612.9,955,612.9,955,612.9z"/>
			</g>
			<g>
				<path class="st14" d="M1031.3,765.2c-0.2-2.7-0.5-5.5-0.8-8.5c7-14.6,6.1-32.9-2.6-46.6c-5.5-8.7-14.1-16.9-12.8-27.1
					c0.4-2.9,1.5-5.6,1.8-8.4c0.3-4-1.2-7.8-2.9-11.5c-8.5-18-22.7-33.3-40-43.2l0,0.6c-6-4.8-12.3-7.5-18.7-7.6v238.7
					c16.6,0,32-5.5,44.5-14.8c11-1.8,21.5-7.3,28.6-15.9C1041,805.5,1041.9,781.9,1031.3,765.2z"/>
			</g>
		</g>
		<g>
			
				<rect x="1076.6" y="769.1" transform="matrix(-1 -1.224647e-16 1.224647e-16 -1 2172.5698 1728.5131)" class="st11" width="19.3" height="190.3"/>
			<g>
				<path class="st13" d="M1086.3,552.6c-9.2,0-18.2,4.3-26.6,11.8c-20,12.7-36.4,31.1-46.5,52.5c-2.2,4.6-4.1,9.6-3.7,14.7
					c0.3,3.7,1.8,7.1,2.3,10.8c0.3,2,0.2,3.9-0.1,5.7c-1.1,3.1-2.2,6.3-3.3,9.4c-3.5,6.7-9,13-13.1,19.5
					c-10.4,16.4-12.1,37.8-5,55.8c-0.9,6.9-1.6,13.3-1.8,19c-11,20.9-8.9,48.6,6.3,67c8.5,10.3,20.7,17,33.7,19.8
					c16.2,12.3,36.2,19.5,57.9,19.5c0.2,0,0.5,0,0.7,0V552.6C1086.7,552.6,1086.5,552.6,1086.3,552.6z"/>
			</g>
			<g>
				<path class="st14" d="M1183.9,747.5c-0.2-3.4-0.6-7.1-1.1-10.9c8.9-18.7,7.8-42.1-3.3-59.7c-7-11.1-18.1-21.7-16.4-34.7
					c0.5-3.7,2-7.1,2.3-10.8c0.4-5.1-1.5-10-3.7-14.7c-10.9-23.1-29-42.6-51.2-55.3l0,0.7c-7.5-6-15.4-9.5-23.5-9.7V858
					c21.1-0.2,40.5-7.2,56.4-19c14.1-2.3,27.5-9.3,36.6-20.3C1196.3,799.1,1197.6,768.8,1183.9,747.5z"/>
			</g>
		</g>
	</g>
	<g>
		<g>
			
				<rect x="623" y="766.4" transform="matrix(-1 -1.224647e-16 1.224647e-16 -1 1252.9382 1601.8186)" class="st11" width="7" height="69.1"/>
			<g>
				<path class="st8" d="M626.5,687.8c-3.4,0-6.6,1.6-9.7,4.3c-7.3,4.6-13.2,11.3-16.9,19.1c-0.8,1.7-1.5,3.5-1.3,5.3
					c0.1,1.3,0.6,2.6,0.8,3.9c0.1,0.7,0.1,1.4,0,2.1c-0.4,1.1-0.8,2.3-1.2,3.4c-1.3,2.4-3.3,4.7-4.8,7.1c-3.8,5.9-4.4,13.7-1.8,20.2
					c-0.3,2.5-0.6,4.8-0.7,6.9c-4,7.6-3.2,17.7,2.3,24.3c3.1,3.7,7.5,6.2,12.2,7.2c5.9,4.5,13.2,7.1,21,7.1c0,0,0,0,0.1,0
					L626.5,687.8C626.5,687.8,626.5,687.8,626.5,687.8z"/>
			</g>
			<g>
				<path class="st12" d="M661.9,758.5c-0.1-1.2-0.2-2.6-0.4-4c3.2-6.8,2.8-15.3-1.2-21.7c-2.5-4-6.6-7.9-6-12.6
					c0.2-1.3,0.7-2.6,0.8-3.9c0.1-1.8-0.6-3.6-1.3-5.3c-4-8.4-10.5-15.5-18.6-20.1l0,0.3c-2.8-2.2-5.7-3.5-8.7-3.5v110.9
					c7.7,0,14.9-2.6,20.7-6.9c5.1-0.8,10-3.4,13.3-7.4C666.4,777.3,666.9,766.3,661.9,758.5z"/>
			</g>
		</g>
		<g>
			
				<rect x="363.1" y="728" transform="matrix(-1 -1.224647e-16 1.224647e-16 -1 731.0694 1503.5599)" class="st11" width="4.8" height="47.5"/>
			<g>
				<path class="st8" d="M365.5,673.9c-2.3,0-4.5,1.1-6.7,2.9c-5,3.2-9.1,7.8-11.6,13.1c-0.5,1.2-1,2.4-0.9,3.7
					c0.1,0.9,0.4,1.8,0.6,2.7c0.1,0.5,0.1,1,0,1.4c-0.3,0.8-0.6,1.6-0.8,2.4c-0.9,1.7-2.2,3.2-3.3,4.9c-2.6,4.1-3,9.4-1.3,13.9
					c-0.2,1.7-0.4,3.3-0.4,4.7c-2.7,5.2-2.2,12.1,1.6,16.7c2.1,2.6,5.2,4.3,8.4,4.9c4.1,3.1,9.1,4.9,14.5,4.9c0,0,0,0,0,0
					L365.5,673.9C365.6,673.9,365.5,673.9,365.5,673.9z"/>
			</g>
			<g>
				<path class="st12" d="M389.9,722.6c-0.1-0.9-0.1-1.8-0.3-2.7c2.2-4.7,2-10.5-0.8-14.9c-1.8-2.8-4.5-5.4-4.1-8.7
					c0.1-0.9,0.5-1.8,0.6-2.7c0.1-1.3-0.4-2.5-0.9-3.7c-2.7-5.8-7.2-10.6-12.8-13.8l0,0.2c-1.9-1.5-3.9-2.4-6-2.4v76.3
					c5.3,0,10.2-1.8,14.2-4.7c3.5-0.6,6.9-2.3,9.2-5.1C393,735.5,393.3,727.9,389.9,722.6z"/>
			</g>
		</g>
		<g>
			
				<rect x="438.4" y="749.3" transform="matrix(-1 -1.224647e-16 1.224647e-16 -1 885.8284 1587.0531)" class="st11" width="9" height="88.4"/>
			<g>
				<path class="st13" d="M442.9,648.7c-4.3,0-8.4,2-12.4,5.5c-9.3,5.9-16.9,14.4-21.6,24.4c-1,2.1-1.9,4.4-1.7,6.8
					c0.1,1.7,0.8,3.3,1,5c0.1,0.9,0.1,1.8,0,2.7c-0.5,1.5-1,2.9-1.5,4.4c-1.6,3.1-4.2,6-6.1,9c-4.8,7.6-5.6,17.6-2.3,25.9
					c-0.4,3.2-0.7,6.2-0.8,8.8c-5.1,9.7-4.1,22.6,2.9,31.1c4,4.8,9.6,7.9,15.7,9.2c7.5,5.7,16.8,9.1,26.9,9.1c0,0,0.1,0,0.1,0
					L442.9,648.7C443,648.7,442.9,648.7,442.9,648.7z"/>
			</g>
			<g>
				<path class="st14" d="M488.3,739.3c-0.1-1.6-0.3-3.3-0.5-5.1c4.2-8.7,3.6-19.6-1.5-27.7c-3.3-5.1-8.4-10.1-7.6-16.1
					c0.2-1.7,0.9-3.3,1-5c0.2-2.4-0.7-4.7-1.7-6.8c-5.1-10.7-13.5-19.8-23.8-25.7l0,0.3c-3.6-2.8-7.3-4.5-11.1-4.5v141.9
					c9.9,0,19-3.3,26.5-8.8c6.6-1.1,12.8-4.3,17-9.5C494,763.2,494.6,749.2,488.3,739.3z"/>
			</g>
		</g>
		<g>
			
				<rect x="515.3" y="741.6" transform="matrix(-1 -1.224647e-16 1.224647e-16 -1 1042.0125 1596.3451)" class="st11" width="11.5" height="113.2"/>
			<g>
				<path class="st13" d="M521,612.8c-5.5,0-10.8,2.6-15.8,7c-11.9,7.5-21.6,18.5-27.7,31.2c-1.3,2.7-2.4,5.7-2.2,8.7
					c0.2,2.2,1.1,4.3,1.3,6.4c0.1,1.2,0.1,2.3,0,3.4c-0.7,1.9-1.3,3.7-1.9,5.6c-2.1,4-5.4,7.7-7.8,11.6c-6.2,9.7-7.2,22.5-3,33.2
					c-0.6,4.1-0.9,7.9-1.1,11.3c-6.5,12.4-5.3,28.9,3.7,39.8c5.1,6.1,12.3,10.1,20,11.8c9.6,7.3,21.6,11.6,34.4,11.6
					c0.1,0,0.3,0,0.4,0V612.8C521.3,612.8,521.1,612.8,521,612.8z"/>
			</g>
			<g>
				<path class="st14" d="M579.1,728.7c-0.1-2-0.3-4.2-0.6-6.5c5.3-11.1,4.6-25-2-35.5c-4.2-6.6-10.8-12.9-9.8-20.6
					c0.3-2.2,1.2-4.2,1.3-6.4c0.2-3-0.9-6-2.2-8.7c-6.5-13.7-17.3-25.4-30.4-32.9l0,0.4c-4.5-3.6-9.1-5.7-14-5.8v181.7
					c12.5-0.1,24.1-4.3,33.6-11.3c8.4-1.4,16.4-5.5,21.8-12.1C586.4,759.4,587.2,741.4,579.1,728.7z"/>
			</g>
		</g>
	</g>
	<g>
		<g>
			
				<rect x="543.6" y="483" transform="matrix(-1 -1.224647e-16 1.224647e-16 -1 1090.3405 997.571)" class="st11" width="3.2" height="31.5"/>
			<g>
				<path class="st8" d="M545.2,447.1c-1.5,0-3,0.7-4.4,2c-3.3,2.1-6,5.2-7.7,8.7c-0.4,0.8-0.7,1.6-0.6,2.4c0,0.6,0.3,1.2,0.4,1.8
					c0,0.3,0,0.6,0,1c-0.2,0.5-0.4,1-0.5,1.6c-0.6,1.1-1.5,2.2-2.2,3.2c-1.7,2.7-2,6.3-0.8,9.2c-0.2,1.1-0.3,2.2-0.3,3.1
					c-1.8,3.5-1.5,8.1,1,11.1c1.4,1.7,3.4,2.8,5.6,3.3c2.7,2,6,3.2,9.6,3.2c0,0,0,0,0,0L545.2,447.1
					C545.2,447.1,545.2,447.1,545.2,447.1z"/>
			</g>
			<g>
				<path class="st12" d="M561.3,479.4c0-0.6-0.1-1.2-0.2-1.8c1.5-3.1,1.3-7-0.6-9.9c-1.2-1.8-3-3.6-2.7-5.7
					c0.1-0.6,0.3-1.2,0.4-1.8c0.1-0.8-0.3-1.7-0.6-2.4c-1.8-3.8-4.8-7.1-8.5-9.2l0,0.1c-1.3-1-2.6-1.6-4-1.6v50.6
					c3.5,0,6.8-1.2,9.4-3.1c2.3-0.4,4.6-1.5,6.1-3.4C563.4,488,563.6,483,561.3,479.4z"/>
			</g>
		</g>
		<g>
			
				<rect x="424.9" y="465.5" transform="matrix(-1 -1.224647e-16 1.224647e-16 -1 852.1017 952.7148)" class="st11" width="2.2" height="21.7"/>
			<g>
				<path class="st8" d="M426.1,440.8c-1.1,0-2.1,0.5-3,1.3c-2.3,1.4-4.1,3.5-5.3,6c-0.2,0.5-0.5,1.1-0.4,1.7c0,0.4,0.2,0.8,0.3,1.2
					c0,0.2,0,0.4,0,0.7c-0.1,0.4-0.3,0.7-0.4,1.1c-0.4,0.8-1,1.5-1.5,2.2c-1.2,1.9-1.4,4.3-0.6,6.4c-0.1,0.8-0.2,1.5-0.2,2.2
					c-1.3,2.4-1,5.5,0.7,7.6c1,1.2,2.4,1.9,3.8,2.3c1.8,1.4,4.1,2.2,6.6,2.2c0,0,0,0,0,0L426.1,440.8
					C426.1,440.8,426.1,440.8,426.1,440.8z"/>
			</g>
			<g>
				<path class="st12" d="M437.2,463c0-0.4-0.1-0.8-0.1-1.2c1-2.1,0.9-4.8-0.4-6.8c-0.8-1.3-2.1-2.5-1.9-4c0.1-0.4,0.2-0.8,0.3-1.2
					c0-0.6-0.2-1.1-0.4-1.7c-1.2-2.6-3.3-4.9-5.8-6.3l0,0.1c-0.9-0.7-1.8-1.1-2.7-1.1v34.8c2.4,0,4.7-0.8,6.5-2.2
					c1.6-0.3,3.1-1.1,4.2-2.3C438.6,468.9,438.7,465.5,437.2,463z"/>
			</g>
		</g>
		<g>
			
				<rect x="459.3" y="475.2" transform="matrix(-1 -1.224647e-16 1.224647e-16 -1 922.7509 990.8304)" class="st11" width="4.1" height="40.4"/>
			<g>
				<path class="st13" d="M461.4,429.3c-2,0-3.9,0.9-5.6,2.5c-4.2,2.7-7.7,6.6-9.9,11.1c-0.5,1-0.9,2-0.8,3.1
					c0.1,0.8,0.4,1.5,0.5,2.3c0.1,0.4,0,0.8,0,1.2c-0.2,0.7-0.5,1.3-0.7,2c-0.7,1.4-1.9,2.8-2.8,4.1c-2.2,3.5-2.6,8-1.1,11.8
					c-0.2,1.5-0.3,2.8-0.4,4c-2.3,4.4-1.9,10.3,1.3,14.2c1.8,2.2,4.4,3.6,7.1,4.2c3.4,2.6,7.7,4.1,12.3,4.1c0,0,0,0,0,0L461.4,429.3
					C461.4,429.3,461.4,429.3,461.4,429.3z"/>
			</g>
			<g>
				<path class="st14" d="M482.1,470.7c0-0.7-0.1-1.5-0.2-2.3c1.9-4,1.7-8.9-0.7-12.7c-1.5-2.3-3.8-4.6-3.5-7.4
					c0.1-0.8,0.4-1.5,0.5-2.3c0.1-1.1-0.3-2.1-0.8-3.1c-2.3-4.9-6.2-9-10.9-11.7l0,0.2c-1.6-1.3-3.3-2-5.1-2.1v64.8
					c4.5,0,8.7-1.5,12.1-4c3-0.5,5.8-2,7.8-4.3C484.7,481.6,485,475.2,482.1,470.7z"/>
			</g>
		</g>
		<g>
			
				<rect x="494.4" y="471.7" transform="matrix(-1 -1.224647e-16 1.224647e-16 -1 994.0505 995.0723)" class="st11" width="5.2" height="51.7"/>
			<g>
				<path class="st13" d="M497,412.9c-2.5,0-4.9,1.2-7.2,3.2c-5.4,3.4-9.9,8.4-12.6,14.3c-0.6,1.3-1.1,2.6-1,4
					c0.1,1,0.5,1.9,0.6,2.9c0.1,0.5,0.1,1.1,0,1.6c-0.3,0.9-0.6,1.7-0.9,2.6c-1,1.8-2.4,3.5-3.6,5.3c-2.8,4.4-3.3,10.3-1.4,15.1
					c-0.3,1.9-0.4,3.6-0.5,5.2c-3,5.7-2.4,13.2,1.7,18.2c2.3,2.8,5.6,4.6,9.1,5.4c4.4,3.3,9.8,5.3,15.7,5.3c0.1,0,0.1,0,0.2,0v-82.9
					C497.2,412.9,497.1,412.9,497,412.9z"/>
			</g>
			<g>
				<path class="st14" d="M523.5,465.8c-0.1-0.9-0.2-1.9-0.3-3c2.4-5.1,2.1-11.4-0.9-16.2c-1.9-3-4.9-5.9-4.5-9.4
					c0.1-1,0.5-1.9,0.6-2.9c0.1-1.4-0.4-2.7-1-4c-3-6.3-7.9-11.6-13.9-15l0,0.2c-2-1.6-4.2-2.6-6.4-2.6v82.9c5.7,0,11-1.9,15.3-5.2
					c3.8-0.6,7.5-2.5,10-5.5C526.9,479.8,527.2,471.6,523.5,465.8z"/>
			</g>
		</g>
	</g>
	<g>
		<g>
			
				<rect x="235.2" y="784.5" transform="matrix(-1 -1.224647e-16 1.224647e-16 -1 480.1807 1665.1462)" class="st11" width="9.8" height="96.1"/>
			<g>
				<path class="st8" d="M240.1,675.1c-4.7,0-9.2,2.2-13.5,5.9c-10.1,6.4-18.4,15.7-23.5,26.5c-1.1,2.3-2.1,4.8-1.9,7.4
					c0.1,1.9,0.9,3.6,1.1,5.5c0.1,1,0.1,2,0,2.9c-0.6,1.6-1.1,3.2-1.7,4.8c-1.8,3.4-4.5,6.6-6.6,9.8c-5.2,8.3-6.1,19.1-2.5,28.2
					c-0.5,3.5-0.8,6.7-0.9,9.6c-5.6,10.6-4.5,24.6,3.2,33.8c4.3,5.2,10.4,8.6,17,10c8.2,6.2,18.3,9.9,29.3,9.9c0,0,0.1,0,0.1,0
					L240.1,675.1C240.2,675.1,240.1,675.1,240.1,675.1z"/>
			</g>
			<g>
				<path class="st12" d="M289.4,773.6c-0.1-1.7-0.3-3.6-0.5-5.5c4.5-9.5,3.9-21.3-1.7-30.2c-3.5-5.6-9.1-10.9-8.3-17.5
					c0.2-1.8,1-3.6,1.1-5.5c0.2-2.6-0.8-5.1-1.9-7.4c-5.5-11.6-14.7-21.5-25.9-27.9l0,0.4c-3.9-3.1-7.9-4.9-12.1-4.9v154.4
					c10.7,0,20.7-3.6,28.8-9.6c7.1-1.2,13.9-4.7,18.5-10.3C295.7,799.7,296.3,784.3,289.4,773.6z"/>
			</g>
		</g>
		<g>
			
				<rect x="85.3" y="750" transform="matrix(-1 -1.224647e-16 1.224647e-16 -1 186.5578 1657.5269)" class="st11" width="16" height="157.5"/>
			<g>
				<path class="st13" d="M93.3,570.7c-7.6,0-15,3.6-22,9.7c-16.6,10.5-30.1,25.7-38.5,43.5c-1.8,3.8-3.4,7.9-3.1,12.1
					c0.2,3,1.5,5.9,1.9,8.9c0.2,1.6,0.2,3.2-0.1,4.7c-0.9,2.6-1.8,5.2-2.7,7.8c-2.9,5.6-7.5,10.8-10.8,16.1
					c-8.6,13.6-10,31.3-4.2,46.2c-0.8,5.7-1.3,11-1.5,15.7c-9.1,17.3-7.4,40.3,5.2,55.5c7,8.5,17.1,14.1,27.9,16.4
					c13.4,10.2,30,16.2,47.9,16.2c0.2,0,0.4,0,0.6,0V570.7C93.7,570.7,93.5,570.7,93.3,570.7z"/>
			</g>
			<g>
				<path class="st14" d="M174.1,732.1c-0.2-2.8-0.5-5.9-0.9-9c7.4-15.5,6.5-34.9-2.8-49.4c-5.8-9.2-15-17.9-13.6-28.7
					c0.4-3,1.6-5.9,1.9-8.9c0.3-4.2-1.3-8.3-3.1-12.1c-9-19.1-24-35.3-42.4-45.8l0,0.6c-6.2-5-12.7-7.9-19.4-8v252.9
					c17.4-0.1,33.6-5.9,46.7-15.7c11.7-1.9,22.8-7.7,30.3-16.8C184.4,774.8,185.4,749.7,174.1,732.1z"/>
			</g>
		</g>
	</g>
</g>
<g id="Layer_6">
	<g>
		<g>
			<g>
				<circle class="st15" cx="246.7" cy="904.6" r="15.9"/>
				<circle class="st15" cx="246.7" cy="935.7" r="15.9"/>
				<circle class="st15" cx="231.1" cy="920.2" r="15.9"/>
				<circle class="st15" cx="262.3" cy="920.2" r="15.9"/>
			</g>
		</g>
		<circle class="st16" cx="246.7" cy="920.2" r="8.9"/>
	</g>
	<g>
		<g>
			<g>
				<circle class="st15" cx="624.5" cy="931.2" r="13.4"/>
				<circle class="st15" cx="624.5" cy="957.4" r="13.4"/>
				<circle class="st15" cx="611.4" cy="944.3" r="13.4"/>
				<circle class="st15" cx="637.6" cy="944.3" r="13.4"/>
			</g>
		</g>
		<circle class="st16" cx="624.5" cy="944.3" r="7.5"/>
	</g>
	<g>
		<g>
			<g>
				<circle class="st15" cx="385.4" cy="849.1" r="6"/>
				<circle class="st15" cx="385.4" cy="860.9" r="6"/>
				<circle class="st15" cx="379.5" cy="855" r="6"/>
				<circle class="st15" cx="391.2" cy="855" r="6"/>
			</g>
		</g>
		<circle class="st16" cx="385.4" cy="855" r="3.3"/>
	</g>
	<g>
		<g>
			<g>
				<circle class="st17" cx="803.2" cy="913.1" r="12.1"/>
				<circle class="st17" cx="803.2" cy="936.8" r="12.1"/>
				<circle class="st17" cx="791.4" cy="924.9" r="12.1"/>
				<circle class="st17" cx="815" cy="924.9" r="12.1"/>
			</g>
		</g>
		<circle class="st16" cx="803.2" cy="924.9" r="6.8"/>
	</g>
	<g>
		<g>
			<g>
				<circle class="st17" cx="485.6" cy="903.8" r="13.4"/>
				<circle class="st17" cx="485.6" cy="929.9" r="13.4"/>
				<circle class="st17" cx="472.5" cy="916.9" r="13.4"/>
				<circle class="st17" cx="498.7" cy="916.9" r="13.4"/>
			</g>
		</g>
		<circle class="st16" cx="485.6" cy="916.9" r="7.5"/>
	</g>
	<g>
		<g>
			<g>
				<circle class="st15" cx="683.4" cy="848" r="9"/>
				<circle class="st15" cx="683.4" cy="865.7" r="9"/>
				<circle class="st15" cx="674.6" cy="856.8" r="9"/>
				<circle class="st15" cx="692.3" cy="856.8" r="9"/>
			</g>
		</g>
		<circle class="st16" cx="683.4" cy="856.8" r="5"/>
	</g>
	<g>
		<circle class="st18" cx="1341.3" cy="890.4" r="18.5"/>
		<circle class="st17" cx="1341.3" cy="890.4" r="8.2"/>
	</g>
	<g>
		<circle class="st18" cx="864.7" cy="857.9" r="15.5"/>
		<circle class="st17" cx="864.7" cy="857.9" r="6.9"/>
	</g>
	<path class="st18" d="M146,899.7c-11.3,0-11.3,17.5,0,17.5C157.3,917.2,157.3,899.7,146,899.7z"/>
	<path class="st17" d="M91.4,938.8c-5.3,0.2-9.8,4.3-9.8,9.8v1.6c0,5.1,4.5,10,9.8,9.8c5.3-0.2,9.8-4.3,9.8-9.8v-1.6
		C101.1,943.5,96.6,938.6,91.4,938.8z"/>
	<path class="st17" d="M324.8,800.9v1c0,10.3,16,10.3,16,0v-1C340.8,790.6,324.8,790.6,324.8,800.9z"/>
	<path class="st17" d="M804.6,842.2c-3.2-3.2-8.3-5.5-12.8-5.3c-4.7,0.2-9.6,1.8-12.8,5.3c-3.3,3.6-5.3,7.9-5.3,12.8v1.6
		c0,4.7,2,9.6,5.3,12.8c3.2,3.2,8.3,5.5,12.8,5.3c4.7-0.2,9.6-1.8,12.8-5.3c3.3-3.6,5.3-7.9,5.3-12.8V855
		C809.9,850.4,807.9,845.5,804.6,842.2z"/>
	<path class="st15" d="M558.9,905.7h-1.6c-4.6,0-9.1,4.1-8.9,8.9c0.2,4.8,3.9,8.9,8.9,8.9h1.6c4.6,0,9.1-4.1,8.9-8.9
		C567.5,909.8,563.9,905.7,558.9,905.7z"/>
	<path class="st18" d="M706,793.7c-6.8,0-6.9,10.6,0,10.6C712.9,804.3,712.9,793.7,706,793.7z"/>
	<path class="st17" d="M726.1,789.3c-7.1,0-7.2,11.1,0,11.1C733.2,800.4,733.3,789.3,726.1,789.3z"/>
	<path class="st17" d="M1160.8,930.6c-0.5-0.5-1.1-1.1-1.6-1.6c-2.6-2.6-7.5-2.8-10.1,0c-2.6,2.9-2.8,7.3,0,10.1
		c0.5,0.5,1.1,1.1,1.6,1.6c2.6,2.6,7.5,2.8,10.1,0C1163.4,937.9,1163.6,933.5,1160.8,930.6z"/>
	<path class="st17" d="M1229.6,881.7c-19.8,0-19.8,30.8,0,30.8C1249.4,912.5,1249.4,881.7,1229.6,881.7z"/>
	<path class="st17" d="M1160.5,856.5c-17.1,0-17.1,26.6,0,26.6C1177.6,883.1,1177.7,856.5,1160.5,856.5z"/>
	<path class="st15" d="M355.2,902.9c-2.7,0.1-5,2.2-5,5v1.6c0,2.6,2.3,5.2,5,5c2.7-0.1,5-2.2,5-5v-1.6
		C360.3,905.3,358,902.8,355.2,902.9z"/>
	<path class="st17" d="M342.9,921.9c-3.9-3.6-10-3.9-13.9,0c-0.5,0.5-1.1,1.1-1.6,1.6c-3.6,3.6-3.9,10.3,0,13.9
		c3.9,3.6,10,3.9,13.9,0c0.5-0.5,1.1-1.1,1.6-1.6C346.6,932.1,346.8,925.4,342.9,921.9z"/>
	<path class="st17" d="M380.9,908.3c-22.7,0-22.7,35.2,0,35.2C403.6,943.5,403.6,908.3,380.9,908.3z"/>
</g>
<g id="Layer_8">
	<path class="st19" d="M1287.9,69.9c0-13.4-10.7-24.5-24.1-24.6c-0.1,0-0.2,0-0.3,0c-4.5,0-8.8,0.7-12.8,2.1
		c-11.7-5.6-27.5-9.1-45.1-9.1c-7.6,0-14.9,0.7-21.7,1.9c-6.3-13.2-30.1-23.1-58.5-23.1c-30.2,0-55.2,11.1-59.5,25.6
		c-6.8-1.3-14.2-2-21.9-2c-32.6,0-59.2,12.7-61.2,28.7l-0.5,0.1c-9-6-23.5-10-39.7-10c-20,0-37.3,6-45.1,14.5
		c-7.5-3.9-17.9-6.3-29.5-6.3c-22.6,0-41,9.7-41,21c0,0.6,0.1-0.7,0.2,2.4h439.3C1278.4,91.2,1287.9,81.7,1287.9,69.9L1287.9,69.9z"
		/>
	<path class="st19" d="M186.2,171.8c-5.5-0.1-10.6,1.7-14.6,4.8c-5.3-5.6-12.7-9.1-21-9.1c-4,0-7.8,0.8-11.2,2.2
		c-3.3-18.1-19.1-31.9-38.2-31.9c-4.5,0-8.9,0.8-13,2.2c-3.8-15.8-18-27.6-35-27.6c-18,0-33,13.3-35.6,30.6
		c-4.1-1.6-8.5-2.4-13.1-2.4c-19.5,0-35.4,15.2-36.6,34.4l-0.3,0.1c-5.4-7.2-14-11.9-23.7-11.9c-0.5,0-1.1,0-1.6,0
		c-9.8,0.5-17.4,8.8-17.4,18.6v0c0,10.3,8.4,18.7,18.7,18.7h265c0.2-0.9,0.3-1.8,0.4-2.6C210.4,184.4,199.9,172,186.2,171.8z"/>
	<path class="st16" d="M729.5,108.2c0-14.2-11.3-26.1-25.5-26.2c-0.1,0-0.2,0-0.3,0c-14.4,0-27.2,6.9-35.2,17.6l-0.5-0.2
		c-1.8-28.4-25.3-50.9-54.2-50.9c-6.8,0-13.4,1.3-19.4,3.6c-3.8-25.7-26-45.3-52.7-45.3c-25.2,0-46.2,17.4-51.8,40.9
		c-6-2.1-12.5-3.3-19.2-3.3c-28.2,0-51.7,20.4-56.5,47.2c-5.1-2.1-10.7-3.3-16.6-3.3c-12.3,0-23.4,5.2-31.2,13.5
		c-7.5-5.8-17.3-8.5-27.8-6.5c-16.3,3.1-27.8,17.7-27.7,34.3c0,2.4,0.3,3,0.8,7.5h388.9C716.6,136.9,729.5,124,729.5,108.2
		L729.5,108.2z"/>
</g>
</svg>
