<?xml version="1.0" encoding="utf-8"?>
<!-- Generator: Adobe Illustrator 19.2.1, SVG Export Plug-In . SVG Version: 6.00 Build 0)  -->
<svg version="1.1" xmlns="http://www.w3.org/2000/svg" xmlns:xlink="http://www.w3.org/1999/xlink" x="0px" y="0px"
	 viewBox="0 0 1400 980" style="enable-background:new 0 0 1400 980;" xml:space="preserve">
<style type="text/css">
	.st0{fill:#6ED4BF;}
	.st1{fill:#ABDDD9;}
	.st2{fill:#B9E3E7;}
	.st3{fill:#FFFFFF;}
	.st4{fill:#E4F5FD;}
	.st5{fill:#D2E8F4;}
	.st6{fill:#FF9929;}
	.st7{fill:#F6D5C5;}
	.st8{fill:#7D9FD3;}
	.st9{fill:#EA760F;}
	.st10{fill:#FFBC27;}
	.st11{fill:#D8981A;}
	.st12{fill:#FFD683;}
	.st13{fill:#8E6048;}
	.st14{opacity:0.4;fill:#8EFFFF;}
	.st15{fill:#735459;}
	.st16{fill:#6AD372;}
	.st17{fill:#54B861;}
</style>
<g id="layer">
	<rect x="0" class="st0" width="1400" height="980"/>
</g>
<g id="Layer_2">
	<path class="st1" d="M1400,475.3c-14.9-20.8-26.4-34.5-31.2-34.7c-15.9-0.8-117.3,93.2-122.4,93.1
		c-5.1-0.1-143.9-211.8-171.1-208.7c-23.8,2.7-183.2,130.6-183.2,130.6S687.5,146.3,643.1,144.4c-44.4-1.9-465.2,567.5-465.2,567.5
		L1400,696.8V475.3z"/>
	<path class="st2" d="M1277.9,594.5c28.2-53.5,47.5-110.6,89.5-153.7c-19.4,3.6-116.1,93.1-121.1,92.9c-0.2,0-0.5-0.2-0.9-0.7
		c-18.2,15.6-41.1,25.3-64.4,33.5c-20,8-43,11-58,27c-4,4-2,13,4,15c27,7,55-8,79,1c4,1-5,13-10,20c-18.3,26.2-54.2,41.7-61.7,70.6
		l39.2-0.5c22-17.1,44.6-32.2,64.5-52.1C1253.9,631.5,1266.9,614.5,1277.9,594.5z"/>
	<g>
		<path class="st2" d="M541.5,707.3h-38.8L647.2,148c-3.8-2.2-7.1-3.5-9.8-3.6c-44.4-1.9-465.2,567.5-465.2,567.5L541.5,707.3z"/>
		<path class="st2" d="M1077,700.7c-17.9-64.6-8.8-299-5.2-375.5c-0.8-0.2-1.6-0.3-2.2-0.2c-23.8,2.7-183.2,130.6-183.2,130.6
			l111.8,246.2L1077,700.7z"/>
		<path class="st1" d="M497.3,581.4c-29-32.7-246-328.9-276.9-325.4C191.8,259.2,0.2,412.9,0.2,412.9s-0.3-0.5-0.9-1.4v299l498-6.2
			V581.4z"/>
		<path class="st2" d="M229.4,707.6c-21.6-77.6-10.6-359.4-6.3-451.4c-1-0.3-1.9-0.4-2.7-0.3C191.8,259.2,0.2,412.9,0.2,412.9
			l-0.9,295.9L229.4,707.6z"/>
	</g>
</g>
<g id="Layer_10">
	<g>
		<path class="st3" d="M1400,980V696.8c-33.1-5.6-62.2-35.9-94.5-51.2c-70.7-33.6-150.5,6.5-224.5,30.6
			c-92.5,30.2-192.1,34.9-286.7,13.6c-93.5-21.1-184.9-67.2-279.9-56.5c-78.7,8.9-151.7,56.6-230.9,55.7
			c-56.1-0.7-109.5-25.9-165.3-32.5C76.7,651.5,29,661.9-0.2,691v289H1400z"/>
	</g>
	<g>
		<path class="st4" d="M1308.9,815.5c-105,25-203,58-309,48c-99-10-194-36-293-30c-86,5-169,24-256,34c-68,7-134,10-203-6
			c-47-12-89-27-136-38c-38.9-9.9-76.5-3.4-112.1,9.9V980H1400V816.6C1370.3,810.6,1340.1,808.9,1308.9,815.5z"/>
	</g>
	<g>
		<path class="st5" d="M1180.9,907.5c-74,15-140,37-214,27c-35-5-68-12-99-30c-8-5-19-4-26-10c-83-57-172-29-260-7
			c-139,35-279,18-418,8c-55.4-3.7-111.7,2.9-164.1,20.4V980H1400v-73.2C1329.5,885.7,1256,891.4,1180.9,907.5z"/>
	</g>
</g>
<g id="Layer_3">
	<g>
		<g>
			<g>
				<g>
					<rect x="87.3" y="230.1" class="st3" width="71.3" height="4.5"/>
				</g>
			</g>
		</g>
		<g>
			<g>
				<g>
					<rect x="34.3" y="277.2" class="st3" width="71.3" height="4.5"/>
				</g>
			</g>
		</g>
		<g>
			<g>
				<g>
					<rect x="70" y="296.2" class="st3" width="35.7" height="4.5"/>
				</g>
			</g>
		</g>
		<g>
			<g>
				<g>
					<rect x="1244.2" y="316.6" class="st3" width="71.3" height="4.5"/>
				</g>
			</g>
		</g>
		<g>
			<g>
				<g>
					<rect x="827.6" y="99.1" class="st3" width="71.3" height="4.5"/>
				</g>
			</g>
		</g>
		<g>
			<g>
				<g>
					<rect x="863.3" y="118.1" class="st3" width="35.7" height="4.5"/>
				</g>
			</g>
		</g>
		<g>
			<g>
				<g>
					<rect x="1203.1" y="369.2" class="st3" width="71.3" height="4.5"/>
				</g>
			</g>
		</g>
		<g>
			<g>
				<g>
					<rect x="1238.7" y="388.2" class="st3" width="35.7" height="4.5"/>
				</g>
			</g>
		</g>
		<g>
			<g>
				<g>
					<rect x="350.2" y="112.7" class="st3" width="89.7" height="4.5"/>
				</g>
			</g>
		</g>
		<g>
			<g>
				<g>
					<rect x="363.8" y="131.7" class="st3" width="76.1" height="4.5"/>
				</g>
			</g>
		</g>
		<g>
			<g>
				<g>
					<rect x="1247.1" y="196.7" class="st3" width="89.7" height="4.5"/>
				</g>
			</g>
		</g>
		<g>
			<g>
				<g>
					<rect x="1260.6" y="215.7" class="st3" width="76.1" height="4.5"/>
				</g>
			</g>
		</g>
		<g>
			<g>
				<g>
					<rect x="564.9" y="63.8" class="st3" width="89.7" height="4.5"/>
				</g>
			</g>
		</g>
		<g>
			<g>
				<g>
					<rect x="578.5" y="82.8" class="st3" width="76.1" height="4.5"/>
				</g>
			</g>
		</g>
		<g>
			<g>
				<g>
					<g>
						<g>
							<rect x="966.4" y="208.5" class="st3" width="106.7" height="6.7"/>
						</g>
					</g>
				</g>
				<g>
					<g>
						<g>
							<rect x="1000.5" y="229.6" class="st3" width="106.7" height="6.7"/>
						</g>
					</g>
				</g>
			</g>
		</g>
	</g>
</g>
<g id="Layer_9">
	<g>
		<g>
			<rect x="535.2" y="517.8" class="st6" width="333.8" height="290.3"/>
			<g>
				<rect x="649" y="691" class="st7" width="103.3" height="117.1"/>
				<g>
					<path class="st3" d="M649,690.8c6-2.5,13.6-4.8,20.7-6.7c8.1-2.2,16.5-4.3,25.5-5.5c9-1.2,18.9-1.4,27.7,0.2
						c3.3,0.6,6.3,1.4,9.3,2.3c7.9,2.2,17.2,5.7,20.2,9.7"/>
				</g>
				<rect x="701.9" y="697.5" class="st3" width="45" height="110.6"/>
				<rect x="707.5" y="706.4" class="st8" width="33.7" height="53.9"/>
			</g>
			<g>
				<rect x="655.7" y="697.5" class="st3" width="45" height="110.6"/>
				<rect x="661.3" y="706.4" class="st8" width="33.7" height="53.9"/>
			</g>
			<rect x="535.2" y="517.8" class="st9" width="333.8" height="55.3"/>
			<rect x="523.4" y="415.5" class="st4" width="354.6" height="141"/>
			<path class="st3" d="M523.4,556.5H878c0,0-39.9-33.2-79.7-11.1c0,0-69-45.4-150.6,0C647.6,545.4,580.9,513.5,523.4,556.5z"/>
		</g>
		<g>
			<polygon class="st10" points="1093.1,807.2 865.9,807.2 865.9,479.7 979,343.7 1093.1,479.7 			"/>
			<polygon class="st11" points="1093.1,501.4 1093.1,479.7 979,343.7 865.9,479.7 865.9,501.4 977.9,365.4 			"/>
			<path class="st3" d="M1119.6,480.3c-5.6-20.5-115.2-161.4-140.5-161.4c-25.7,0-140.1,144.7-140.9,161.4
				c-0.2,5.2,13.6,15.9,17,11.9c35.4-41,123.9-147.9,123.9-147.9s96.8,120.7,123.5,147.9C1106.2,496,1120.9,485.3,1119.6,480.3z"/>
			<rect x="861.7" y="763.8" class="st12" width="237.3" height="44.3"/>
			<g>
				<path class="st3" d="M861.6,764.3c-1.6-1.8-0.4-4.9,1.7-6c2.1-1.2,4.6-1,7-0.7c9.6,1.1,19.2,3,28.7,2c6.1-0.6,12-2.4,18.1-3.1
					c17.3-2.1,34.7,4.2,52.2,3.1c7.6-0.5,15-2.4,22.5-3c15.1-1.4,30.2,2.2,45.4,2.5c17.9,0.5,35.9-3.5,53.7-1.6
					c1.9,0.2,3.8,0.5,5.4,1.6c1.6,1.1,2.6,3.2,1.8,4.9"/>
			</g>
		</g>
		<g>
			<g>
				<rect x="899.2" y="675.8" class="st13" width="56.4" height="61.8"/>
				<rect x="904.6" y="681.6" class="st8" width="45.7" height="56"/>
				<path class="st13" d="M965.6,738.7c0,1.6-1.2,2.9-2.7,2.9h-71c-1.5,0-2.7-1.3-2.7-2.9l0,0c0-1.6,1.2-2.9,2.7-2.9h71
					C964.4,735.8,965.6,737.1,965.6,738.7L965.6,738.7z"/>
			</g>
			<rect x="925.9" y="681.6" class="st14" width="24.5" height="54.2"/>
		</g>
		<g>
			<g>
				<rect x="999.9" y="675.8" class="st13" width="56.4" height="61.8"/>
				<rect x="1005.2" y="681.6" class="st8" width="45.7" height="56"/>
				<path class="st13" d="M1066.3,738.7c0,1.6-1.2,2.9-2.7,2.9h-71c-1.5,0-2.7-1.3-2.7-2.9l0,0c0-1.6,1.2-2.9,2.7-2.9h71
					C1065.1,735.8,1066.3,737.1,1066.3,738.7L1066.3,738.7z"/>
			</g>
			<rect x="1026.5" y="681.6" class="st14" width="24.5" height="54.2"/>
		</g>
		<g>
			<g>
				<rect x="899.2" y="578.6" class="st13" width="56.4" height="61.8"/>
				<rect x="904.6" y="584.4" class="st8" width="45.7" height="56"/>
				<path class="st13" d="M965.6,641.5c0,1.6-1.2,2.9-2.7,2.9h-71c-1.5,0-2.7-1.3-2.7-2.9l0,0c0-1.6,1.2-2.9,2.7-2.9h71
					C964.4,638.6,965.6,639.9,965.6,641.5L965.6,641.5z"/>
			</g>
			<rect x="925.9" y="584.4" class="st14" width="24.5" height="54.2"/>
		</g>
		<g>
			<g>
				<rect x="999.9" y="578.6" class="st13" width="56.4" height="61.8"/>
				<rect x="1005.2" y="584.4" class="st8" width="45.7" height="56"/>
				<path class="st13" d="M1066.3,641.5c0,1.6-1.2,2.9-2.7,2.9h-71c-1.5,0-2.7-1.3-2.7-2.9l0,0c0-1.6,1.2-2.9,2.7-2.9h71
					C1065.1,638.6,1066.3,639.9,1066.3,641.5L1066.3,641.5z"/>
			</g>
			<rect x="1026.5" y="584.4" class="st14" width="24.5" height="54.2"/>
		</g>
		<g>
			<g>
				<rect x="899.2" y="481.4" class="st13" width="56.4" height="61.8"/>
				<rect x="904.6" y="487.3" class="st8" width="45.7" height="56"/>
				<path class="st13" d="M965.6,544.4c0,1.6-1.2,2.9-2.7,2.9h-71c-1.5,0-2.7-1.3-2.7-2.9l0,0c0-1.6,1.2-2.9,2.7-2.9h71
					C964.4,541.5,965.6,542.8,965.6,544.4L965.6,544.4z"/>
			</g>
			<rect x="925.9" y="487.3" class="st14" width="24.5" height="54.2"/>
		</g>
		<g>
			<g>
				<rect x="999.9" y="481.4" class="st13" width="56.4" height="61.8"/>
				<rect x="1005.2" y="487.3" class="st8" width="45.7" height="56"/>
				<path class="st13" d="M1066.3,544.4c0,1.6-1.2,2.9-2.7,2.9h-71c-1.5,0-2.7-1.3-2.7-2.9l0,0c0-1.6,1.2-2.9,2.7-2.9h71
					C1065.1,541.5,1066.3,542.8,1066.3,544.4L1066.3,544.4z"/>
			</g>
			<rect x="1026.5" y="487.3" class="st14" width="24.5" height="54.2"/>
		</g>
		<g>
			<path class="st3" d="M899.2,481.4c3.3-3,7.4-5.6,11.3-7.9c4.4-2.6,9-5,13.9-6.4s10.3-1.6,15.1,0.3c1.8,0.7,3.4,1.7,5.1,2.7
				c4.3,2.6,9.4,6.6,11,11.4"/>
		</g>
		<g>
			<path class="st3" d="M999.9,481.4c3.3-3,7.4-5.6,11.3-7.9c4.4-2.6,9-5,13.9-6.4c4.9-1.4,10.3-1.6,15.1,0.3
				c1.8,0.7,3.4,1.7,5.1,2.7c4.3,2.6,9.4,6.6,11,11.4"/>
		</g>
		<g>
			<path class="st3" d="M899.2,578.6c3.3-3,7.4-5.6,11.3-7.9c4.4-2.6,9-5,13.9-6.4s10.3-1.6,15.1,0.3c1.8,0.7,3.4,1.7,5.1,2.7
				c4.3,2.6,9.4,6.6,11,11.4"/>
		</g>
		<g>
			<g>
				<rect x="788.6" y="688.7" class="st13" width="56.4" height="61.8"/>
				<rect x="794" y="694.6" class="st8" width="45.7" height="56"/>
				<path class="st13" d="M855,751.7c0,1.6-1.2,2.9-2.7,2.9h-71c-1.5,0-2.7-1.3-2.7-2.9l0,0c0-1.6,1.2-2.9,2.7-2.9h71
					C853.9,748.8,855,750.1,855,751.7L855,751.7z"/>
			</g>
			<rect x="815.3" y="694.6" class="st14" width="24.5" height="54.2"/>
		</g>
		<g>
			<path class="st3" d="M788.6,688.7c3.3-3,7.4-5.6,11.3-7.9c4.4-2.6,9-5,13.9-6.4s10.3-1.6,15.1,0.3c1.8,0.7,3.4,1.7,5.1,2.7
				c4.3,2.6,9.4,6.6,11,11.4"/>
		</g>
		<g>
			<g>
				<rect x="563.5" y="688.7" class="st13" width="56.4" height="61.8"/>
				<rect x="568.9" y="694.6" class="st8" width="45.7" height="56"/>
				<path class="st13" d="M629.9,751.7c0,1.6-1.2,2.9-2.7,2.9h-71c-1.5,0-2.7-1.3-2.7-2.9l0,0c0-1.6,1.2-2.9,2.7-2.9h71
					C628.7,748.8,629.9,750.1,629.9,751.7L629.9,751.7z"/>
			</g>
			<rect x="590.1" y="694.6" class="st14" width="24.5" height="54.2"/>
		</g>
		<g>
			<path class="st3" d="M563.5,688.7c3.3-3,7.4-5.6,11.3-7.9c4.4-2.6,9-5,13.9-6.4s10.3-1.6,15.1,0.3c1.8,0.7,3.4,1.7,5.1,2.7
				c4.3,2.6,9.4,6.6,11,11.4"/>
		</g>
		<g>
			<g>
				<rect x="788.6" y="594" class="st13" width="56.4" height="61.8"/>
				<rect x="794" y="599.8" class="st8" width="45.7" height="56"/>
				<path class="st13" d="M855,656.9c0,1.6-1.2,2.9-2.7,2.9h-71c-1.5,0-2.7-1.3-2.7-2.9l0,0c0-1.6,1.2-2.9,2.7-2.9h71
					C853.9,654,855,655.3,855,656.9L855,656.9z"/>
			</g>
			<rect x="815.3" y="599.8" class="st14" width="24.5" height="54.2"/>
		</g>
		<g>
			<path class="st3" d="M788.6,594c3.3-3,7.4-5.6,11.3-7.9c4.4-2.6,9-5,13.9-6.4s10.3-1.6,15.1,0.3c1.8,0.7,3.4,1.7,5.1,2.7
				c4.3,2.6,9.4,6.6,11,11.4"/>
		</g>
		<g>
			<g>
				<rect x="675" y="594" class="st13" width="56.4" height="61.8"/>
				<rect x="680.4" y="599.8" class="st8" width="45.7" height="56"/>
				<path class="st13" d="M741.4,656.9c0,1.6-1.2,2.9-2.7,2.9h-71c-1.5,0-2.7-1.3-2.7-2.9l0,0c0-1.6,1.2-2.9,2.7-2.9h71
					C740.2,654,741.4,655.3,741.4,656.9L741.4,656.9z"/>
			</g>
			<rect x="701.6" y="599.8" class="st14" width="24.5" height="54.2"/>
		</g>
		<g>
			<path class="st3" d="M675,594c3.3-3,7.4-5.6,11.3-7.9c4.4-2.6,9-5,13.9-6.4s10.3-1.6,15.1,0.3c1.8,0.7,3.4,1.7,5.1,2.7
				c4.3,2.6,9.4,6.6,11,11.4"/>
		</g>
		<g>
			<g>
				<rect x="563.5" y="594" class="st13" width="56.4" height="61.8"/>
				<rect x="568.9" y="599.8" class="st8" width="45.7" height="56"/>
				<path class="st13" d="M629.9,656.9c0,1.6-1.2,2.9-2.7,2.9h-71c-1.5,0-2.7-1.3-2.7-2.9l0,0c0-1.6,1.2-2.9,2.7-2.9h71
					C628.7,654,629.9,655.3,629.9,656.9L629.9,656.9z"/>
			</g>
			<rect x="590.1" y="599.8" class="st14" width="24.5" height="54.2"/>
		</g>
		<g>
			<path class="st3" d="M563.5,594c3.3-3,7.4-5.6,11.3-7.9c4.4-2.6,9-5,13.9-6.4s10.3-1.6,15.1,0.3c1.8,0.7,3.4,1.7,5.1,2.7
				c4.3,2.6,9.4,6.6,11,11.4"/>
		</g>
		<g>
			<path class="st3" d="M999.9,578.6c3.3-3,7.4-5.6,11.3-7.9c4.4-2.6,9-5,13.9-6.4c4.9-1.4,10.3-1.6,15.1,0.3
				c1.8,0.7,3.4,1.7,5.1,2.7c4.3,2.6,9.4,6.6,11,11.4"/>
		</g>
		<g>
			<path class="st3" d="M899.2,675.8c3.3-3,7.4-5.6,11.3-7.9c4.4-2.6,9-5,13.9-6.4s10.3-1.6,15.1,0.3c1.8,0.7,3.4,1.7,5.1,2.7
				c4.3,2.6,9.4,6.6,11,11.4"/>
		</g>
		<g>
			<path class="st3" d="M999.9,675.8c3.3-3,7.4-5.6,11.3-7.9c4.4-2.6,9-5,13.9-6.4c4.9-1.4,10.3-1.6,15.1,0.3
				c1.8,0.7,3.4,1.7,5.1,2.7c4.3,2.6,9.4,6.6,11,11.4"/>
		</g>
		<polygon class="st10" points="540.9,807.2 313.7,807.2 313.7,479.7 426.8,343.7 540.9,479.7 		"/>
		<polygon class="st11" points="540.9,501.4 540.9,479.7 426.8,343.7 313.7,479.7 313.7,501.4 425.7,365.4 		"/>
		<path class="st3" d="M567.3,480.3c-5.6-20.5-115.2-161.4-140.5-161.4c-25.7,0-140.1,144.7-140.9,161.4c-0.2,5.2,13.6,15.9,17,11.9
			c35.4-41,123.9-147.9,123.9-147.9s96.8,120.7,123.5,147.9C554,496,568.7,485.3,567.3,480.3z"/>
		<rect x="309.5" y="763.8" class="st12" width="237.3" height="44.3"/>
		<g>
			<path class="st3" d="M310.2,764.3c-1.6-1.8-0.4-4.9,1.7-6c2.1-1.2,4.6-1,7-0.7c9.6,1.1,19.2,3,28.7,2c6.1-0.6,12-2.4,18.1-3.1
				c17.3-2.1,34.7,4.2,52.2,3.1c7.6-0.5,15-2.4,22.5-3c15.1-1.4,30.2,2.2,45.4,2.5c17.9,0.5,35.9-3.5,53.7-1.6
				c1.9,0.2,3.8,0.5,5.4,1.6c1.6,1.1,2.6,3.2,1.8,4.9"/>
		</g>
		<g>
			<g>
				<rect x="347" y="675.8" class="st13" width="56.4" height="61.8"/>
				<rect x="352.4" y="681.6" class="st8" width="45.7" height="56"/>
				<path class="st13" d="M413.4,738.7c0,1.6-1.2,2.9-2.7,2.9h-71c-1.5,0-2.7-1.3-2.7-2.9l0,0c0-1.6,1.2-2.9,2.7-2.9h71
					C412.2,735.8,413.4,737.1,413.4,738.7L413.4,738.7z"/>
			</g>
			<rect x="373.6" y="681.6" class="st14" width="24.5" height="54.2"/>
		</g>
		<g>
			<g>
				<rect x="447.6" y="675.8" class="st13" width="56.4" height="61.8"/>
				<rect x="453" y="681.6" class="st8" width="45.7" height="56"/>
				<path class="st13" d="M514,738.7c0,1.6-1.2,2.9-2.7,2.9h-71c-1.5,0-2.7-1.3-2.7-2.9l0,0c0-1.6,1.2-2.9,2.7-2.9h71
					C512.9,735.8,514,737.1,514,738.7L514,738.7z"/>
			</g>
			<rect x="474.3" y="681.6" class="st14" width="24.5" height="54.2"/>
		</g>
		<g>
			<g>
				<rect x="347" y="578.6" class="st13" width="56.4" height="61.8"/>
				<rect x="352.4" y="584.4" class="st8" width="45.7" height="56"/>
				<path class="st13" d="M413.4,641.5c0,1.6-1.2,2.9-2.7,2.9h-71c-1.5,0-2.7-1.3-2.7-2.9l0,0c0-1.6,1.2-2.9,2.7-2.9h71
					C412.2,638.6,413.4,639.9,413.4,641.5L413.4,641.5z"/>
			</g>
			<rect x="373.6" y="584.4" class="st14" width="24.5" height="54.2"/>
		</g>
		<g>
			<g>
				<rect x="447.6" y="578.6" class="st13" width="56.4" height="61.8"/>
				<rect x="453" y="584.4" class="st8" width="45.7" height="56"/>
				<path class="st13" d="M514,641.5c0,1.6-1.2,2.9-2.7,2.9h-71c-1.5,0-2.7-1.3-2.7-2.9l0,0c0-1.6,1.2-2.9,2.7-2.9h71
					C512.9,638.6,514,639.9,514,641.5L514,641.5z"/>
			</g>
			<rect x="474.3" y="584.4" class="st14" width="24.5" height="54.2"/>
		</g>
		<g>
			<g>
				<rect x="347" y="481.4" class="st13" width="56.4" height="61.8"/>
				<rect x="352.4" y="487.3" class="st8" width="45.7" height="56"/>
				<path class="st13" d="M413.4,544.4c0,1.6-1.2,2.9-2.7,2.9h-71c-1.5,0-2.7-1.3-2.7-2.9l0,0c0-1.6,1.2-2.9,2.7-2.9h71
					C412.2,541.5,413.4,542.8,413.4,544.4L413.4,544.4z"/>
			</g>
			<rect x="373.6" y="487.3" class="st14" width="24.5" height="54.2"/>
		</g>
		<g>
			<g>
				<rect x="447.6" y="481.4" class="st13" width="56.4" height="61.8"/>
				<rect x="453" y="487.3" class="st8" width="45.7" height="56"/>
				<path class="st13" d="M514,544.4c0,1.6-1.2,2.9-2.7,2.9h-71c-1.5,0-2.7-1.3-2.7-2.9l0,0c0-1.6,1.2-2.9,2.7-2.9h71
					C512.9,541.5,514,542.8,514,544.4L514,544.4z"/>
			</g>
			<rect x="474.3" y="487.3" class="st14" width="24.5" height="54.2"/>
		</g>
		<g>
			<path class="st3" d="M347,481.4c3.3-3,7.4-5.6,11.3-7.9c4.4-2.6,9-5,13.9-6.4c4.9-1.4,10.3-1.6,15.1,0.3c1.8,0.7,3.4,1.7,5.1,2.7
				c4.3,2.6,9.4,6.6,11,11.4"/>
		</g>
		<g>
			<path class="st3" d="M447.6,481.4c3.3-3,7.4-5.6,11.3-7.9c4.4-2.6,9-5,13.9-6.4c4.9-1.4,10.3-1.6,15.1,0.3
				c1.8,0.7,3.4,1.7,5.1,2.7c4.3,2.6,9.4,6.6,11,11.4"/>
		</g>
		<g>
			<path class="st3" d="M347,578.6c3.3-3,7.4-5.6,11.3-7.9c4.4-2.6,9-5,13.9-6.4c4.9-1.4,10.3-1.6,15.1,0.3c1.8,0.7,3.4,1.7,5.1,2.7
				c4.3,2.6,9.4,6.6,11,11.4"/>
		</g>
		<g>
			<path class="st3" d="M447.6,578.6c3.3-3,7.4-5.6,11.3-7.9c4.4-2.6,9-5,13.9-6.4c4.9-1.4,10.3-1.6,15.1,0.3
				c1.8,0.7,3.4,1.7,5.1,2.7c4.3,2.6,9.4,6.6,11,11.4"/>
		</g>
		<g>
			<path class="st3" d="M347,675.8c3.3-3,7.4-5.6,11.3-7.9c4.4-2.6,9-5,13.9-6.4c4.9-1.4,10.3-1.6,15.1,0.3c1.8,0.7,3.4,1.7,5.1,2.7
				c4.3,2.6,9.4,6.6,11,11.4"/>
		</g>
		<g>
			<path class="st3" d="M447.6,675.8c3.3-3,7.4-5.6,11.3-7.9c4.4-2.6,9-5,13.9-6.4c4.9-1.4,10.3-1.6,15.1,0.3
				c1.8,0.7,3.4,1.7,5.1,2.7c4.3,2.6,9.4,6.6,11,11.4"/>
		</g>
	</g>
</g>
<g id="Layer_7">
	<g>
		<path class="st3" d="M982,178.7c-4.2-7.6-8.5-20.7-9.9-29.2c-1.4-8.5,0.5-18.1,7-23.8c5.5-4.8,13.6-6,20.8-4.3s13.4,6.2,18.5,11.5
			c1.9,1.9,4.1,4.2,6.8,3.8c3.6-0.5,4.8-5.1,5.2-8.8c1.2-9.4,5.2-20.1,14.3-22.6c7.8-2.2,16.2,3.1,20.2,10.2
			c4,7.1,4.7,15.5,5.4,23.6c6-1.7,8.7-8.3,11.5-13.9c5.7-11.5,15.3-21.9,27.9-24.5c18.3-3.7,36.5,11.4,41.6,29.3s-0.2,31.9-8.3,48.7
			"/>
	</g>
	<g>
		<path class="st3" d="M413.6,306.8c4-7.1,8-19.5,9.3-27.5c1.3-8-0.5-17.1-6.6-22.4c-5.2-4.5-12.8-5.7-19.6-4
			c-6.7,1.7-12.6,5.8-17.4,10.8c-1.8,1.8-3.9,3.9-6.4,3.6c-3.4-0.5-4.5-4.8-4.9-8.3c-1.1-8.8-4.9-18.9-13.5-21.3
			c-7.4-2-15.2,2.9-19,9.6s-4.5,14.6-5.1,22.2c-5.6-1.6-8.2-7.8-10.8-13.1c-5.3-10.8-14.4-20.6-26.3-23.1
			c-17.2-3.5-34.4,10.7-39.2,27.6c-4.8,16.9,0.1,30,7.8,45.9"/>
	</g>
	<g>
		<path class="st3" d="M1235.9,120.1c-7.5-4.1-13.9-9.6-15.9-17.9c-2-8.3,1.2-18.1,8.7-22.3c7.6-4.3,18.5-1.5,23,6
			c1.4,2.4,2.9,5.6,5.7,5.6c1.9,0,3.4-1.5,4.7-3c3.1-3.5,6.2-7.1,9.3-10.6c5.3-6.1,11.2-12.5,19-14.2s17.7,4.2,16.6,12.2
			c-0.3,2.3-1.5,4.5-1.7,6.8c-0.3,2.3,0.9,5.2,3.2,5.5c1.2,0.2,2.3-0.4,3.4-0.9c7.8-3.6,16-6.3,24.4-8.1c2.1-0.4,4.4-0.8,6.4-0.1
			c5.2,1.7,6.2,8.8,5.2,14.2c-1.8,9.7-7,20.2-14.4,26.8"/>
	</g>
	<g>
		<path class="st3" d="M819.5,271.9c-4.6-2.6-8.6-5.9-9.8-11.1c-1.2-5.2,0.8-11.2,5.4-13.8c4.7-2.7,11.4-0.9,14.2,3.7
			c0.9,1.5,1.8,3.5,3.5,3.5c1.2,0,2.1-0.9,2.9-1.8c1.9-2.2,3.8-4.4,5.8-6.6c3.3-3.7,6.9-7.7,11.8-8.8c4.9-1.1,11,2.6,10.3,7.5
			c-0.2,1.4-0.9,2.8-1.1,4.2c-0.2,1.4,0.5,3.2,2,3.4c0.7,0.1,1.4-0.2,2.1-0.5c4.8-2.2,9.9-3.9,15.1-5c1.3-0.3,2.7-0.5,4-0.1
			c3.2,1.1,3.8,5.4,3.2,8.8c-1.1,6-4.3,12.5-8.9,16.6"/>
	</g>
	<g>
		<path class="st3" d="M301,166.9c17.6-9.7,32.6-22.5,37.3-42.1c4.7-19.6-2.9-42.6-20.4-52.6C300,62,274.5,68.6,263.9,86.3
			c-3.4,5.7-6.9,13.1-13.5,13.2c-4.5,0-8-3.6-11-7c-7.3-8.3-14.6-16.7-21.9-25c-12.5-14.3-26.3-29.3-44.8-33.3S131,44,133.5,62.8
			c0.7,5.5,3.5,10.5,4.1,16c0.6,5.5-2,12.2-7.5,12.9c-2.8,0.4-5.5-0.9-8.1-2c-18.4-8.5-37.7-14.8-57.5-18.9c-5-1-10.2-1.9-15.1-0.3
			c-12.4,4-14.6,20.7-12.1,33.5c4.3,22.9,16.4,47.5,33.8,63"/>
	</g>
	<g>
		<path class="st3" d="M498.9,189.5c-3.3-1.3-10.2-24.3-10.6-27.8c-0.5-3.5,0.6-7.1,2.3-10.1c2.1-3.8,5.7-7.2,10-7.3
			c6.4-0.3,10.7,6.3,14.6,11.4c0.7,0.9,1.5,1.8,2.5,2.2c2.2,0.8,4.3-0.9,6.4-1.9c4.9-2.4,11.4-0.6,14.4,3.9c0.6,0.8,1,1.8,1.8,2.4
			c2.6,2.1,6.4-0.4,8.8-2.8c3.2-3.1,6.4-6.3,9.5-9.4c1.2-1.2,2.5-2.5,4.2-2.9c2-0.6,4.2,0.2,6.1,1.3c6.4,4,9.1,12.1,8.7,19.6
			c-0.4,7.5-3.5,14.6-6.6,21.4"/>
	</g>
</g>
<g id="Layer_11">
	<g>
		<g>
			<path class="st15" d="M246.3,821.5h4.8c0-0.1,0-0.1,0-0.2L251,747c0-1.3-1.1-2.4-2.4-2.4c-1.3,0-2.4,1.1-2.4,2.4l0.2,74.3
				C246.3,821.4,246.3,821.4,246.3,821.5z"/>
		</g>
		<g>
			
				<ellipse transform="matrix(1 -2.311724e-003 2.311724e-003 1 -1.7029 0.5765)" class="st16" cx="248.5" cy="736.9" rx="38.4" ry="38.4"/>
			<path class="st4" d="M253.9,703.5c8-1.8,14.4,2.7,21.3,5.9c-6.9-6.7-16.4-10.9-26.8-10.8c-14.6,0-27.3,8.2-33.8,20.3
				C230.1,725.4,240.7,707.3,253.9,703.5z"/>
			<path class="st17" d="M248.6,762c-18.9,0-34.7-13.6-37.9-31.7c-0.4,2.2-0.6,4.4-0.6,6.7c0,21.2,17.3,38.4,38.5,38.3
				c21.2,0,38.4-17.3,38.3-38.5c0-2.3-0.2-4.5-0.6-6.7C283.2,748.2,267.5,762,248.6,762z"/>
		</g>
	</g>
	<g>
		<g>
			<path class="st15" d="M327,819.5l-0.2-94.7c0-1.7-1.4-3.1-3.1-3.1c-1.7,0-3.1,1.4-3.1,3.1l0.2,94.6H327z"/>
		</g>
		<g>
			
				<ellipse transform="matrix(1 -2.311724e-003 2.311724e-003 1 -1.6448 0.7501)" class="st16" cx="323.7" cy="711.9" rx="49.5" ry="49.5"/>
			<path class="st4" d="M324.9,676.5c4-2,12,5,19,7c6.5,1.3,12.2-0.8,17.8-3.2c-9.1-11-22.8-17.9-38.2-17.9
				c-16.5,0-31.1,8.2-40.1,20.6C296.5,688.6,311.5,681,324.9,676.5z"/>
			<path class="st17" d="M323.7,744.2c-24.4,0.1-44.6-17.6-48.8-40.8c-0.5,2.8-0.8,5.7-0.8,8.6c0.1,27.3,22.3,49.4,49.6,49.4
				c27.3-0.1,49.4-22.3,49.4-49.6c0-2.9-0.3-5.8-0.8-8.6C368.3,726.4,348.1,744.1,323.7,744.2z"/>
		</g>
	</g>
	<g>
		<g>
			<path class="st15" d="M1290.2,654.9l-0.1-50.8c0-0.9-0.8-1.7-1.7-1.7c-0.9,0-1.7,0.8-1.7,1.7l0.1,50.8H1290.2z"/>
		</g>
		<g>
			
				<ellipse transform="matrix(1 -2.311724e-003 2.311724e-003 1 -1.3766 2.9799)" class="st16" cx="1288.4" cy="597" rx="27" ry="27"/>
			<path class="st4" d="M1288.3,570c-9.3,0-17.5,4.8-22.4,11.9c8.5,2.6,17-4.1,25-3.1c6,0.5,12,1.1,18.6,2.2c0.2,0,0.5,0.1,0.7,0.1
				C1305.2,574.3,1297.3,569.9,1288.3,570z"/>
			<path class="st17" d="M1288.4,614.6c-13.3,0-24.4-9.6-26.6-22.3c-0.3,1.5-0.4,3.1-0.4,4.7c0,14.9,12.2,27,27.1,26.9
				c14.9,0,27-12.2,26.9-27.1c0-1.6-0.2-3.2-0.4-4.7C1312.7,604.9,1301.7,614.6,1288.4,614.6z"/>
		</g>
	</g>
	<g>
		<g>
			<path class="st15" d="M1206.2,643.2l-0.1-36.8c0-0.7-0.6-1.2-1.2-1.2c-0.7,0-1.2,0.6-1.2,1.2l0.1,36.8H1206.2z"/>
		</g>
		<g>
			
				<ellipse transform="matrix(1 -2.311724e-003 2.311724e-003 1 -1.3867 2.7869)" class="st16" cx="1204.9" cy="601.2" rx="19.6" ry="19.6"/>
			<path class="st4" d="M1204.8,581.7c-6.7,0-12.7,3.4-16.2,8.6c6.2,1.9,12.3-3,18.1-2.3c4.4,0.4,8.7,0.8,13.4,1.6
				c0.2,0,0.3,0.1,0.5,0.1C1217.1,584.8,1211.3,581.7,1204.8,581.7z"/>
			<path class="st17" d="M1204.9,614c-9.6,0-17.7-6.9-19.3-16.1c-0.2,1.1-0.3,2.2-0.3,3.4c0,10.8,8.8,19.5,19.6,19.5
				c10.8,0,19.5-8.8,19.5-19.6c0-1.2-0.1-2.3-0.3-3.4C1222.5,607,1214.5,614,1204.9,614z"/>
		</g>
	</g>
	<g>
		<g>
			<path class="st15" d="M1133.8,680.1l-0.1-58c0-1.1-0.9-1.9-1.9-1.9c-1.1,0-1.9,0.9-1.9,1.9l0.1,58H1133.8z"/>
		</g>
		<g>
			
				<ellipse transform="matrix(1 -2.311724e-003 2.311724e-003 1 -1.4164 2.6178)" class="st16" cx="1131.7" cy="614" rx="30.8" ry="30.8"/>
			<path class="st4" d="M1131.6,583.2c-10.6,0-20,5.4-25.5,13.6c9.7,3,19.4-4.7,28.5-3.6c6.9,0.6,13.7,1.2,21.2,2.5
				c0.3,0,0.5,0.1,0.8,0.1C1151,588.2,1141.9,583.2,1131.6,583.2z"/>
			<path class="st17" d="M1131.7,634.2c-15.2,0-27.8-10.9-30.4-25.4c-0.3,1.7-0.5,3.5-0.5,5.4c0,17,13.9,30.8,30.9,30.8
				c17,0,30.8-13.9,30.8-30.9c0-1.8-0.2-3.6-0.5-5.3C1159.5,623.1,1146.9,634.1,1131.7,634.2z"/>
		</g>
	</g>
	<g>
		<g>
			<path class="st15" d="M189.4,674.9l-0.1-25c0-0.5-0.4-0.8-0.8-0.8c-0.5,0-0.8,0.4-0.8,0.8l0.1,25H189.4z"/>
		</g>
		<g>
			
				<ellipse transform="matrix(1 -2.311724e-003 2.311724e-003 1 -1.4938 0.4375)" class="st16" cx="188.5" cy="646.4" rx="13.3" ry="13.3"/>
			<path class="st4" d="M188.5,633.2c-4.6,0-8.6,2.3-11,5.9c4.2,1.3,8.3-2,12.3-1.5c2.9,0.3,5.9,0.5,9.1,1.1c0.1,0,0.2,0,0.3,0.1
				C196.8,635.3,192.9,633.1,188.5,633.2z"/>
			<path class="st17" d="M188.5,655.1c-6.5,0-12-4.7-13.1-10.9c-0.1,0.7-0.2,1.5-0.2,2.3c0,7.3,6,13.2,13.3,13.2
				c7.3,0,13.2-6,13.2-13.3c0-0.8-0.1-1.6-0.2-2.3C200.5,650.3,195.1,655.1,188.5,655.1z"/>
		</g>
	</g>
	<g>
		<g>
			<path class="st15" d="M263.1,693.2l-0.1-36.8c0-0.7-0.6-1.2-1.2-1.2c-0.7,0-1.2,0.6-1.2,1.2l0.1,36.8H263.1z"/>
		</g>
		<g>
			
				<ellipse transform="matrix(1 -2.311724e-003 2.311724e-003 1 -1.5047 0.6068)" class="st16" cx="261.7" cy="651.2" rx="19.6" ry="19.6"/>
			<path class="st4" d="M261.7,631.6c-6.7,0-12.7,3.4-16.2,8.6c6.2,1.9,12.3-3,18.1-2.3c4.4,0.4,8.7,0.8,13.4,1.6
				c0.2,0,0.3,0.1,0.5,0.1C274,634.8,268.2,631.6,261.7,631.6z"/>
			<path class="st17" d="M261.8,664c-9.6,0-17.7-6.9-19.3-16.1c-0.2,1.1-0.3,2.2-0.3,3.4c0,10.8,8.8,19.5,19.6,19.5
				c10.8,0,19.5-8.8,19.5-19.6c0-1.2-0.1-2.3-0.3-3.4C279.4,656.9,271.4,663.9,261.8,664z"/>
		</g>
	</g>
	<g>
		<g>
			<path class="st15" d="M113.8,675.3l-0.1-58c0-1.1-0.9-1.9-1.9-1.9c-1.1,0-1.9,0.9-1.9,1.9l0.1,58H113.8z"/>
		</g>
		<g>
			
				<ellipse transform="matrix(1 -2.311724e-003 2.311724e-003 1 -1.4079 0.2598)" class="st16" cx="111.7" cy="609.1" rx="30.8" ry="30.8"/>
			<path class="st4" d="M111.6,578.3c-10.6,0-20,5.4-25.5,13.6c9.7,3,19.4-4.7,28.5-3.6c6.9,0.6,13.7,1.2,21.2,2.5
				c0.3,0,0.5,0.1,0.8,0.1C130.9,583.3,121.9,578.3,111.6,578.3z"/>
			<path class="st17" d="M111.7,629.3c-15.2,0-27.8-10.9-30.4-25.4c-0.3,1.7-0.5,3.5-0.5,5.4c0,17,13.9,30.8,30.9,30.8
				c17,0,30.8-13.9,30.8-30.9c0-1.8-0.2-3.6-0.5-5.3C139.5,618.2,126.9,629.2,111.7,629.3z"/>
		</g>
	</g>
	<g>
		<g>
			<path class="st15" d="M987.3,818l-0.2-93.1c0-1.7-1.4-3.1-3.1-3.1c-1.7,0-3.1,1.4-3.1,3.1L981,818H987.3z"/>
		</g>
		<g>
			
				<ellipse transform="matrix(1 -2.311724e-003 2.311724e-003 1 -1.643 2.2764)" class="st16" cx="983.9" cy="711.9" rx="49.5" ry="49.5"/>
			<path class="st4" d="M983.8,662.4c-17.1,0-32.1,8.7-40.9,21.9c15.6,4.8,31.1-7.6,45.7-5.8c11,1,22,2,34,4
				c0.4,0.1,0.9,0.1,1.3,0.2C1014.8,670.4,1000.3,662.3,983.8,662.4z"/>
			<path class="st17" d="M984,744.2c-24.4,0.1-44.7-17.6-48.8-40.8c-0.5,2.8-0.8,5.7-0.8,8.6c0.1,27.3,22.3,49.4,49.6,49.4
				c27.3-0.1,49.4-22.3,49.4-49.6c0-2.9-0.3-5.8-0.8-8.6C1028.6,726.4,1008.4,744.1,984,744.2z"/>
		</g>
	</g>
	<g>
		<g>
			<path class="st15" d="M72.7,815.5l-0.2-90.7c0-1.7-1.4-3.1-3.1-3.1c-1.7,0-3.1,1.4-3.1,3.1l0.2,90.7H72.7z"/>
		</g>
		<g>
			
				<ellipse transform="matrix(1 -2.311724e-003 2.311724e-003 1 -1.6454 0.1623)" class="st16" cx="69.4" cy="711.9" rx="49.5" ry="49.5"/>
			<path class="st4" d="M56.9,680.5c7-5,12-12,20-9c8,2,11,15,21,11c2.3-0.8,3.9-3.8,5.5-6.5c-8.9-8.5-20.9-13.6-34.2-13.6
				c-15.2,0-28.8,6.9-37.8,17.7C39.1,684.6,48.8,685,56.9,680.5z"/>
			<path class="st17" d="M69.5,744.2c-24.4,0.1-44.7-17.6-48.8-40.8c-0.5,2.8-0.8,5.7-0.8,8.6c0.1,27.3,22.3,49.4,49.6,49.4
				c27.3-0.1,49.4-22.3,49.4-49.6c0-2.9-0.3-5.8-0.8-8.6C114,726.4,93.8,744.1,69.5,744.2z"/>
		</g>
	</g>
	<g>
		<g>
			<path class="st15" d="M1208.2,820l-0.2-95.2c0-1.7-1.4-3.1-3.1-3.1c-1.7,0-3.1,1.4-3.1,3.1l0.2,95.2H1208.2z"/>
		</g>
		<g>
			
				<ellipse transform="matrix(1 -2.311724e-003 2.311724e-003 1 -1.6424 2.7872)" class="st16" cx="1204.9" cy="711.9" rx="49.5" ry="49.5"/>
			<path class="st4" d="M1165.8,681.5c22.6,12.2,46.7,1.7,69.8-8.4c-8.5-6.7-19.2-10.7-30.8-10.7
				C1188.9,662.4,1174.9,669.9,1165.8,681.5z"/>
			<path class="st17" d="M1204.9,744.2c-24.4,0.1-44.7-17.6-48.8-40.8c-0.5,2.8-0.8,5.7-0.8,8.6c0.1,27.3,22.3,49.4,49.6,49.4
				s49.4-22.3,49.4-49.6c0-2.9-0.3-5.8-0.8-8.6C1249.5,726.4,1229.3,744.1,1204.9,744.2z"/>
		</g>
	</g>
	<g>
		<g>
			<path class="st15" d="M1355.4,820l-0.1-63.1c0-1.2-0.9-2.1-2.1-2.1c-1.2,0-2.1,1-2.1,2.1l0.1,63.1H1355.4z"/>
		</g>
		<g>
			
				<ellipse transform="matrix(1 -2.311724e-003 2.311724e-003 1 -1.7258 3.13)" class="st16" cx="1353.1" cy="748.1" rx="33.5" ry="33.5"/>
			<path class="st4" d="M1367.8,718.1c-4.5-2.2-9.5-3.4-14.8-3.4c-4.6,0-8.9,0.9-12.9,2.6C1348.7,721.5,1359.4,722,1367.8,718.1z"/>
			<path class="st17" d="M1353.1,770c-16.5,0-30.2-11.9-33-27.6c-0.3,1.9-0.5,3.8-0.5,5.8c0,18.5,15.1,33.4,33.5,33.4
				c18.5,0,33.4-15.1,33.4-33.5c0-2-0.2-3.9-0.5-5.8C1383.3,758,1369.6,769.9,1353.1,770z"/>
		</g>
	</g>
</g>
</svg>
